{
.appVersion = "895";
.formatVersion = 3;
customParameters = (
{
name = glyphOrder;
value = (
nirugu,
_A.isol,
_A.init,
_A.medi,
_A.fina,
_Aa.isol,
_Aa.fina,
_I.isol,
_I.init,
_I.medi,
_I.fina,
_Ix.isol,
_O.init,
_O.medi,
_O.fina,
_U.isol,
_U.fina,
_Ux.isol,
_Ue.fina,
_N.init,
_N.medi,
_N.fina,
_N.fina.mvs,
_B.init,
_B.medi,
_B.fina,
_B2.fina,
_P.init,
_P.medi,
_P.fina,
_H.init,
_H.medi,
_H.fina,
_Hx.init,
_Hx.medi,
_Hx.fina,
_Hx.fina.mvs,
_G.init,
_G.medi,
_G.fina,
_Gx.init,
_Gx.medi,
_M.init,
_M.medi,
_M.fina,
_L.init,
_L.medi,
_L.fina,
_S.init,
_S.medi,
_S.fina,
_Sz.fina,
_Sh.init,
_Sh.medi,
_Sh.fina,
_T.init,
_T.medi,
_T.fina,
_D.init,
_D.medi,
_D.fina,
_Dd.medi,
_Dd.fina,
_Ch.init,
_Ch.medi,
_Ch.fina,
_J.medi,
_J.fina,
_Y.init,
_Y.medi,
_R.init,
_R.medi,
_R.fina,
_W.init,
_W.medi,
_W.fina,
_F.init,
_F.medi,
_F.fina,
_K.init,
_K.medi,
_K.fina,
_K2.init,
_K2.medi,
_K2.fina,
_C.init,
_C.medi,
_C.fina,
_Z.init,
_Z.medi,
_Z.fina,
_Hr.medi,
_Hr.fina,
_Rh.init,
_Rh.medi,
_Rh.fina,
_Zr.init,
_Cr.init,
_GA.init,
_GA.medi,
_GAa.isol,
_GAa.fina,
_GxA.init,
_GxA.medi,
_GxAa.isol,
_GxAa.fina,
_GI.init,
_GI.medi,
_GI.isol,
_GI.fina,
_GxI.init,
_GxI.medi,
_GxI.isol,
_GxI.fina,
_GOI.init,
_GOI.medi,
_GUe.isol,
_GUe.fina,
_GO.init,
_GO.medi,
_GO.isol,
_GO.fina,
_GxOI.init,
_GxOI.medi,
_GxUe.isol,
_GxUe.fina,
_GxO.init,
_GxO.medi,
_GxO.isol,
_GxO.fina,
_GW.init,
_GW.medi,
_GW.isol,
_GW.fina,
_GxW.init,
_GxW.medi,
_GxW.isol,
_GxW.fina,
_BA.init,
_BA.medi,
_BAa.isol,
_BAa.fina,
_BI.init,
_BI.medi,
_BI.isol,
_BI.fina,
_BO.init,
_BO.medi,
_BO.isol,
_BO.fina,
_BOI.init,
_BOI.medi,
_BUe.isol,
_BUe.fina,
_BW.init,
_BW.medi,
_BW.isol,
_BW.fina,
_PA.init,
_PA.medi,
_PAa.isol,
_PAa.fina,
_PI.init,
_PI.medi,
_PI.isol,
_PI.fina,
_PO.init,
_PO.medi,
_PO.isol,
_PO.fina,
_POI.init,
_POI.medi,
_PUe.isol,
_PUe.fina,
_PW.init,
_PW.medi,
_PW.isol,
_PW.fina,
_FA.init,
_FA.medi,
_FAa.isol,
_FAa.fina,
_FI.init,
_FI.medi,
_FI.isol,
_FI.fina,
_FO.init,
_FO.medi,
_FO.isol,
_FO.fina,
_FOI.init,

glyphs = (
{
glyphname = nirugu;
layers = (
{
layerId = "E14AE757-7134-4DB9-897C-AD248BACE90D";
shapes = (
{
closed = 1;
nodes = (
(188,364,l),
(188,444,l),
(0,444,l),
(0,364,l)
);
}
);
width = 168;
}
);
unicode = 6154;
},
{
export = 0;
glyphname = _A.isol;
layers = (
{
layerId = "E14AE757-7134-4DB9-897C-AD248BACE90D";
shapes = (
{
closed = 1;
nodes = (
(600,-264,l),
(586,-239,o),
(579,-214,o),
(579,-187,c),
(579,-158,o),
(584,-133,o),
(595,-110,c),
(605,-88,o),
(622,-62,o),
(646,-31,c),
(691,26,o),
(724,75,o),
(746,118,c),
(768,161,o),
(779,203,o),
(779,245,c),
(778,378,o),
(701,444,o),
(548,444,c),
(444,444,l),
(360,444,o),
(307,416,o),
(285,361,c),
(281,361,l),
(278,445,l),
(277,536,o),
(258,597,o),
(223,628,c),
(204,645,o),
(176,653,o),
(139,653,c),
(100,653,o),
(57,643,o),
(10,623,c),
(10,550,l),
(51,567,o),
(87,575,o),
(118,575,c),
(147,575,o),
(167,564,o),
(179,541,c),
(191,518,o),
(198,483,o),
(200,437,c),
(226,74,l),
(292,74,l),
(302,219,l),
(305,293,o),
(324,337,o),
(361,351,c),
(381,360,o),
(409,364,o),
(445,364,c),
(547,364,l),
(650,365,o),
(701,325,o),
(701,245,c),
(701,214,o),
(693,182,o),
(676,150,c),
(659,117,o),
(631,77,o),
(594,28,c),
(563,-12,o),
(539,-49,o),
(523,-83,c),
(507,-118,o),
(499,-152,o),
(499,-187,c),
(499,-218,o),
(505,-243,o),
(518,-264,c)
);
}
);
width = 824;
}
);
},
{
export = 0;
glyphname = _A.init;
layers = (
{
layerId = "E14AE757-7134-4DB9-897C-AD248BACE90D";
shapes = (
{
closed = 1;
nodes = (
(226,74,l),
(292,74,l),
(302,219,l),
(305,292,o),
(325,336,o),
(362,351,c),
(381,360,o),
(409,364,o),
(445,364,c),
(522,364,l),
(522,444,l),
(444,444,l),
(360,444,o),
(307,416,o),
(285,361,c),
(281,361,l),
(278,445,l),
(277,536,o),
(258,597,o),
(223,628,c),
(204,645,o),
(176,653,o),
(139,653,c),
(100,653,o),
(57,643,o),
(10,623,c),
(10,550,l),
(51,567,o),
(87,575,o),
(118,575,c),
(147,575,o),
(168,564,o),
(180,542,c),
(191,519,o),
(198,484,o),
(200,437,c)
);
}
);
width = 492;
}
);
},
{
export = 0;
glyphname = _A.medi;
layers = (
{
layerId = "E14AE757-7134-4DB9-897C-AD248BACE90D";
shapes = (
{
closed = 1;
nodes = (
(85,96,l),
(104,364,l),
(314,364,l),
(314,444,l),
(0,444,l),
(0,364,l),
(19,96,l)
);
}
);
width = 284;
}
);
},
{
export = 0;
glyphname = _A.fina;
layers = (
{
layerId = "E14AE757-7134-4DB9-897C-AD248BACE90D";
shapes = (
{
closed = 1;
nodes = (
(228,156,l),
(228,297,o),
(244,428,o),
(277,547,c),
(308,664,o),
(355,761,o),
(417,836,c),
(325,836,l),
(273,768,o),
(231,674,o),
(199,555,c),
(167,435,o),
(151,302,o),
(151,156,c),
(94,189,o),
(60,245,o),
(49,323,c),
(44,360,o),
(41,400,o),
(41,444,c),
(-33,444,l),
(-33,364,l),
(-33,257,o),
(8,170,o),
(89,103,c),
(128,73,o),
(175,56,o),
(228,53,c)
);
}
);
width = 427;
}
);
},
{
export = 0;
glyphname = _Aa.isol;
layers = (
{
layerId = "E14AE757-7134-4DB9-897C-AD248BACE90D";
shapes = (
{
closed = 1;
nodes = (
(246,-264,l),
(232,-239,o),
(225,-214,o),
(225,-187,c),
(225,-157,o),
(230,-131,o),
(241,-109,c),
(251,-87,o),
(268,-61,o),
(292,-31,c),
(339,27,o),
(373,78,o),
(394,123,c),
(415,164,o),
(425,205,o),
(425,245,c),
(424,378,o),
(347,444,o),
(194,444,c),
(118,444,l),
(100,364,l),
(193,364,l),
(296,365,o),
(347,325,o),
(347,245,c),
(347,214,o),
(339,183,o),
(323,152,c),
(306,119,o),
(278,77,o),
(240,28,c),
(209,-11,o),
(185,-48,o),
(169,-82,c),
(153,-117,o),
(145,-152,o),
(145,-187,c),
(145,-218,o),
(151,-243,o),
(164,-264,c)
);
}
);
width = 470;
}
);
},
{
export = 0;
glyphname = _Aa.fina;
layers = (
{
layerId = "E14AE757-7134-4DB9-897C-AD248BACE90D";
shapes = (
{
closed = 1;
nodes = (
(215,-264,l),
(201,-237,o),
(194,-212,o),
(194,-187,c),
(194,-158,o),
(199,-133,o),
(210,-110,c),
(220,-88,o),
(237,-62,o),
(261,-31,c),
(304,22,o),
(337,71,o),
(360,116,c),
(383,161,o),
(394,204,o),
(394,245,c),
(392,378,o),
(315,444,o),
(163,444,c),
(0,444,l),
(0,364,l),
(162,364,l),
(265,365,o),
(316,325,o),
(316,244,c),
(316,212,o),
(308,180,o),
(291,148,c),
(274,115,o),
(247,75,o),
(209,28,c),
(178,-13,o),
(154,-50,o),
(138,-83,c),
(122,-116,o),
(114,-151,o),
(114,-187,c),
(114,-217,o),
(120,-243,o),
(133,-264,c)
);
}
);
width = 439;
}
);
},
{
export = 0;
glyphname = _I.isol;
layers = (
{
layerId = "E14AE757-7134-4DB9-897C-AD248BACE90D";
shapes = (
{
closed = 1;
nodes = (
(245,85,l),
(204,142,o),
(173,196,o),
(154,246,c),
(134,296,o),
(124,350,o),
(124,407,c),
(124,486,o),
(137,545,o),
(163,585,c),
(189,624,o),
(226,644,o),
(273,644,c),
(361,644,o),
(411,555,o),
(423,376,c),
(503,386,l),
(497,485,o),
(477,565,o),
(443,625,c),
(403,693,o),
(346,727,o),
(273,727,c),
(224,727,o),
(182,713,o),
(148,686,c),
(114,659,o),
(88,620,o),
(71,570,c),
(54,521,o),
(45,467,o),
(45,407,c),
(45,292,o),
(88,171,o),
(174,42,c)
);
}
);
width = 548;
}
);
},
{
export = 0;
glyphname = _I.init;
layers = (
{
layerId = "E14AE757-7134-4DB9-897C-AD248BACE90D";
shapes = (
{
closed = 1;
nodes = (
(306,-31,l),
(233,98,o),
(178,229,o),
(139,364,c),
(451,364,l),
(451,444,l),
(45,444,l),
(72,287,o),
(134,117,o),
(233,-67,c)
);
}
);
width = 421;
}
);
},
{
export = 0;
glyphname = _I.medi;
layers = (
{
layerId = "E14AE757-7134-4DB9-897C-AD248BACE90D";
shapes = (
{
closed = 1;
nodes = (
(246,-31,l),
(173,98,o),
(118,229,o),
(79,364,c),
(391,364,l),
(391,444,l),
(0,444,l),
(0,364,l),
(39,220,o),
(96,76,o),
(173,-67,c)
);
}
);
width = 361;
}
);
},
{
export = 0;
glyphname = _I.fina;
layers = (
{
layerId = "E14AE757-7134-4DB9-897C-AD248BACE90D";
shapes = (
{
closed = 1;
nodes = (
(198,85,l),
(157,142,o),
(126,196,o),
(107,246,c),
(87,296,o),
(77,350,o),
(77,407,c),
(77,486,o),
(90,545,o),
(116,585,c),
(142,624,o),
(179,644,o),
(226,644,c),
(314,644,o),
(364,555,o),
(376,376,c),
(456,386,l),
(450,485,o),
(430,565,o),
(396,625,c),
(356,693,o),
(299,727,o),
(226,727,c),
(177,727,o),
(135,713,o),
(101,686,c),
(67,659,o),
(41,620,o),
(24,570,c),
(7,521,o),
(-2,467,o),
(-2,407,c),
(-2,292,o),
(41,171,o),
(127,42,c)
);
}
);
width = 501;
}
);
},
{
export = 0;
glyphname = _Ix.isol;
layers = (
{
layerId = "E14AE757-7134-4DB9-897C-AD248BACE90D";
shapes = (
{
closed = 1;
nodes = (
(189,-185,l),
(224,-149,o),
(270,-110,o),
(328,-69,c),
(267,0,l),
(228,-39,o),
(187,-88,o),
(146,-146,c)
);
},
{
closed = 1;
nodes = (
(198,85,l),
(157,142,o),
(126,196,o),
(107,246,c),
(87,296,o),
(77,350,o),
(77,407,c),
(77,486,o),
(90,545,o),
(116,585,c),
(142,624,o),
(179,644,o),
(226,644,c),
(314,644,o),
(364,555,o),
(376,376,c),
(456,386,l),
(450,485,o),
(430,565,o),
(396,625,c),
(356,693,o),
(299,727,o),
(226,727,c),
(177,727,o),
(135,713,o),
(101,686,c),
(67,659,o),
(41,620,o),
(24,570,c),
(7,521,o),
(-2,467,o),
(-2,407,c),
(-2,292,o),
(41,171,o),
(127,42,c)
);
}
);
width = 501;
}
);
},
{
export = 0;
glyphname = _O.init;
layers = (
{
layerId = "E14AE757-7134-4DB9-897C-AD248BACE90D";
shapes = (
{
closed = 1;
nodes = (
(163,123,o),
(124,169,o),
(124,262,c),
(124,301,o),
(131,335,o),
(144,364,c),
(341,364,l),
(354,332,o),
(361,294,o),
(361,251,c),
(361,209,o),
(351,177,o),
(330,156,c),
(309,134,o),
(279,123,o),
(242,123,c)
);
},
{
closed = 1;
nodes = (
(305,40,o),
(353,59,o),
(388,97,c),
(423,134,o),
(440,185,o),
(440,249,c),
(440,294,o),
(433,333,o),
(420,364,c),
(648,364,l),
(648,444,l),
(90,444,l),
(60,397,o),
(45,336,o),
(45,260,c),
(45,190,o),
(62,136,o),
(95,98,c),
(128,59,o),
(177,40,o),
(242,40,c)
);
}
);
width = 618;
}
);
},
{
export = 0;
glyphname = _O.medi;
layers = (
{
layerId = "E14AE757-7134-4DB9-897C-AD248BACE90D";
shapes = (
{
closed = 1;
nodes = (
(118,124,o),
(79,166,o),
(79,251,c),
(79,294,o),
(86,332,o),
(99,364,c),
(296,364,l),
(309,332,o),
(316,294,o),
(316,251,c),
(316,209,o),
(306,177,o),
(285,156,c),
(264,134,o),
(235,123,o),
(197,123,c)
);
},
{
closed = 1;
nodes = (
(260,40,o),
(308,59,o),
(343,97,c),
(378,134,o),
(395,185,o),
(395,249,c),
(395,294,o),
(388,333,o),
(373,364,c),
(603,364,l),
(603,444,l),
(0,444,l),
(0,364,l),
(20,364,l),
(7,333,o),
(0,294,o),
(0,249,c),
(3,110,o),
(69,40,o),
(197,40,c)
);
}
);
width = 573;
}
);
},
{
export = 0;
glyphname = _O.fina;
layers = (
{
layerId = "E14AE757-7134-4DB9-897C-AD248BACE90D";
shapes = (
{
closed = 1;
nodes = (
(118,124,o),
(79,166,o),
(79,251,c),
(79,294,o),
(86,332,o),
(99,364,c),
(294,364,l),
(309,331,o),
(316,293,o),
(316,251,c),
(316,209,o),
(306,177,o),
(285,156,c),
(264,134,o),
(235,123,o),
(197,123,c)
);
},
{
closed = 1;
nodes = (
(260,40,o),
(308,59,o),
(343,97,c),
(378,134,o),
(395,185,o),
(395,249,c),
(395,282,o),
(391,316,o),
(383,351,c),
(375,385,o),
(363,416,o),
(348,444,c),
(0,444,l),
(0,364,l),
(20,364,l),
(7,333,o),
(0,294,o),
(0,249,c),
(3,110,o),
(69,40,o),
(197,40,c)
);
}
);
width = 440;
}
);
},
{
export = 0;
glyphname = _U.isol;
layers = (
{
layerId = "E14AE757-7134-4DB9-897C-AD248BACE90D";
shapes = (
{
closed = 1;
nodes = (
(127,123,o),
(81,203,o),
(78,364,c),
(316,364,l),
(323,344,o),
(326,314,o),
(326,275,c),
(326,230,o),
(317,194,o),
(299,166,c),
(280,137,o),
(253,123,o),
(218,123,c)
);
},
{
closed = 1;
nodes = (
(294,40,o),
(347,78,o),
(382,153,c),
(397,188,o),
(405,229,o),
(405,275,c),
(405,296,o),
(403,325,o),
(398,362,c),
(393,398,o),
(388,425,o),
(382,444,c),
(78,444,l),
(81,546,o),
(113,620,o),
(174,666,c),
(205,688,o),
(243,699,o),
(289,699,c),
(334,699,o),
(372,687,o),
(403,662,c),
(434,637,o),
(459,602,o),
(477,557,c),
(494,513,o),
(505,464,o),
(509,409,c),
(589,419,l),
(582,520,o),
(552,605,o),
(501,675,c),
(447,746,o),
(376,782,o),
(289,782,c),
(226,782,o),
(172,766,o),
(129,735,c),
(86,704,o),
(53,659,o),
(31,601,c),
(10,544,o),
(-1,480,o),
(-1,408,c),
(-2,163,o),
(73,40,o),
(225,40,c)
);
}
);
width = 634;
}
);
},
{
export = 0;
glyphname = _U.fina;
layers = (
{
layerId = "E14AE757-7134-4DB9-897C-AD248BACE90D";
shapes = (
{
closed = 1;
nodes = (
(127,123,o),
(81,203,o),
(78,364,c),
(316,364,l),
(323,344,o),
(326,314,o),
(326,275,c),
(326,230,o),
(317,194,o),
(299,166,c),
(280,137,o),
(253,123,o),
(218,123,c)
);
},
{
closed = 1;
nodes = (
(294,40,o),
(347,78,o),
(382,153,c),
(397,188,o),
(405,229,o),
(405,275,c),
(405,296,o),
(403,325,o),
(398,362,c),
(393,398,o),
(388,425,o),
(382,444,c),
(78,444,l),
(81,546,o),
(113,620,o),
(174,666,c),
(205,688,o),
(243,699,o),
(289,699,c),
(334,699,o),
(372,687,o),
(403,662,c),
(434,637,o),
(459,602,o),
(477,557,c),
(494,513,o),
(505,464,o),
(509,409,c),
(589,419,l),
(582,520,o),
(552,605,o),
(501,675,c),
(447,746,o),
(376,782,o),
(289,782,c),
(226,782,o),
(172,766,o),
(129,735,c),
(86,704,o),
(53,659,o),
(31,601,c),
(10,544,o),
(-1,480,o),
(-1,408,c),
(-2,163,o),
(73,40,o),
(225,40,c)
);
}
);
width = 634;
}
);
},
{
export = 0;
glyphname = _Ux.isol;
layers = (
{
layerId = "E14AE757-7134-4DB9-897C-AD248BACE90D";
shapes = (
{
closed = 1;
nodes = (
(127,123,o),
(81,203,o),
(78,364,c),
(316,364,l),
(323,344,o),
(326,314,o),
(326,275,c),
(326,230,o),
(317,194,o),
(299,166,c),
(280,137,o),
(253,123,o),
(218,123,c)
);
},
{
closed = 1;
nodes = (
(263,-185,l),
(298,-149,o),
(344,-110,o),
(402,-69,c),
(341,0,l),
(302,-39,o),
(261,-88,o),
(220,-146,c)
);
},
{
closed = 1;
nodes = (
(294,40,o),
(347,78,o),
(382,153,c),
(397,188,o),
(405,229,o),
(405,275,c),
(405,296,o),
(403,325,o),
(398,362,c),
(393,398,o),
(388,425,o),
(382,444,c),
(78,444,l),
(81,546,o),
(113,620,o),
(174,666,c),
(205,688,o),
(243,699,o),
(289,699,c),
(334,699,o),
(372,687,o),
(403,662,c),
(434,637,o),
(459,602,o),
(477,557,c),
(494,513,o),
(505,464,o),
(509,409,c),
(589,419,l),
(582,520,o),
(552,605,o),
(501,675,c),
(447,746,o),
(376,782,o),
(289,782,c),
(226,782,o),
(172,766,o),
(129,735,c),
(86,704,o),
(53,659,o),
(31,601,c),
(10,544,o),
(-1,480,o),
(-1,408,c),
(-2,163,o),
(73,40,o),
(225,40,c)
);
}
);
width = 634;
}
);
},
{
export = 0;
glyphname = _Ue.fina;
layers = (
{
layerId = "E14AE757-7134-4DB9-897C-AD248BACE90D";
shapes = (
{
closed = 1;
nodes = (
(118,124,o),
(79,166,o),
(79,251,c),
(79,294,o),
(86,332,o),
(99,364,c),
(296,364,l),
(309,332,o),
(316,294,o),
(316,251,c),
(316,209,o),
(306,177,o),
(285,156,c),
(264,134,o),
(235,123,o),
(197,123,c)
);
},
{
closed = 1;
nodes = (
(260,40,o),
(308,59,o),
(343,97,c),
(378,134,o),
(395,185,o),
(395,249,c),
(395,294,o),
(388,333,o),
(373,364,c),
(523,364,l),
(558,364,o),
(583,357,o),
(598,343,c),
(613,328,o),
(621,307,o),
(621,279,c),
(621,235,o),
(614,196,o),
(599,162,c),
(673,162,l),
(690,197,o),
(698,236,o),
(698,279,c),
(699,389,o),
(640,444,o),
(523,444,c),
(0,444,l),
(0,364,l),
(20,364,l),
(7,333,o),
(0,294,o),
(0,249,c),
(3,110,o),
(69,40,o),
(197,40,c)
);
}
);
width = 743;
}
);
},
{
export = 0;
glyphname = _N.init;
layers = (
{
anchors = (
{
name = baluda;
pos = (0,0);
},
{
name = dagalga;
pos = (0,0);
}
);
layerId = "E14AE757-7134-4DB9-897C-AD248BACE90D";
shapes = (
{
closed = 1;
nodes = (
(226,74,l),
(292,74,l),
(302,219,l),
(310,329,o),
(337,364,o),
(445,364,c),
(522,364,l),
(522,444,l),
(444,444,l),
(360,444,o),
(307,416,o),
(285,361,c),
(281,361,l),
(278,445,l),
(273,575,o),
(248,653,o),
(139,653,c),
(100,653,o),
(57,643,o),
(10,623,c),
(10,550,l),
(52,567,o),
(88,575,o),
(118,575,c),
(180,575,o),
(194,522,o),
(200,437,c)
);
},
{
closed = 1;
nodes = (
(262,-163,l),
(295,-128,o),
(341,-90,o),
(401,-47,c),
(340,22,l),
(301,-17,o),
(261,-65,o),
(219,-124,c)
);
}
);
width = 492;
}
);
},
{
export = 0;
glyphname = _N.medi;
layers = (
{
layerId = "E14AE757-7134-4DB9-897C-AD248BACE90D";
shapes = (
{
closed = 1;
nodes = (
(45,-163,l),
(80,-127,o),
(126,-88,o),
(184,-47,c),
(123,22,l),
(84,-17,o),
(43,-66,o),
(2,-124,c)
);
},
{
closed = 1;
nodes = (
(85,96,l),
(104,364,l),
(314,364,l),
(314,444,l),
(0,444,l),
(0,364,l),
(19,96,l)
);
}
);
width = 284;
}
);
},
{
export = 0;
glyphname = _N.fina;
layers = (
{
layerId = "E14AE757-7134-4DB9-897C-AD248BACE90D";
shapes = (
{
closed = 1;
nodes = (
(182,-185,l),
(217,-149,o),
(263,-110,o),
(321,-69,c),
(260,0,l),
(221,-39,o),
(180,-88,o),
(139,-146,c)
);
},
{
closed = 1;
nodes = (
(228,156,l),
(228,297,o),
(244,428,o),
(277,547,c),
(308,664,o),
(355,761,o),
(417,836,c),
(325,836,l),
(273,768,o),
(231,674,o),
(199,555,c),
(167,435,o),
(151,302,o),
(151,156,c),
(94,189,o),
(60,245,o),
(49,323,c),
(44,360,o),
(41,400,o),
(41,444,c),
(-33,444,l),
(-33,364,l),
(-33,257,o),
(8,170,o),
(89,103,c),
(128,73,o),
(175,56,o),
(228,53,c)
);
}
);
width = 427;
}
);
},
{
export = 0;
glyphname = _N.fina.mvs;
layers = (
{
anchors = (
{
name = baluda;
pos = (0,0);
},
{
name = dagalga;
pos = (0,0);
}
);
layerId = "E14AE757-7134-4DB9-897C-AD248BACE90D";
shapes = (
{
closed = 1;
nodes = (
(535,116,o),
(581,155,o),
(639,196,c),
(578,265,l),
(539,226,o),
(498,177,o),
(457,119,c),
(500,80,l)
);
},
{
closed = 1;
nodes = (
(228,156,l),
(228,448,o),
(298,691,o),
(417,836,c),
(325,836,l),
(225,705,o),
(151,460,o),
(151,156,c),
(63,208,o),
(41,304,o),
(41,444,c),
(-33,444,l),
(-33,364,l),
(-33,209,o),
(64,63,o),
(228,53,c)
);
}
);
width = 427;
}
);
},
{
export = 0;
glyphname = _B.init;
layers = (
{
layerId = "E14AE757-7134-4DB9-897C-AD248BACE90D";
shapes = (
{
closed = 1;
nodes = (
(173,123,o),
(127,203,o),
(124,364,c),
(362,364,l),
(369,346,o),
(372,316,o),
(372,275,c),
(372,230,o),
(363,194,o),
(345,166,c),
(326,137,o),
(299,123,o),
(264,123,c)
);
},
{
closed = 1;
nodes = (
(342,40,o),
(394,78,o),
(428,154,c),
(443,190,o),
(451,230,o),
(451,275,c),
(451,295,o),
(449,324,o),
(444,361,c),
(439,398,o),
(434,425,o),
(428,444,c),
(124,444,l),
(126,545,o),
(158,619,o),
(220,666,c),
(252,688,o),
(290,699,o),
(335,699,c),
(402,699,o),
(455,670,o),
(494,611,c),
(533,552,o),
(554,470,o),
(557,364,c),
(631,364,l),
(631,476,o),
(606,574,o),
(557,657,c),
(503,740,o),
(429,782,o),
(335,782,c),
(272,782,o),
(218,766,o),
(175,735,c),
(132,704,o),
(99,659,o),
(77,601,c),
(56,544,o),
(45,480,o),
(45,408,c),
(44,163,o),
(120,40,o),
(273,40,c)
);
}
);
width = 557;
}
);
},
{
export = 0;
glyphname = _B.medi;
layers = (
{
layerId = "E14AE757-7134-4DB9-897C-AD248BACE90D";
shapes = (
{
closed = 1;
nodes = (
(127,123,o),
(81,203,o),
(78,364,c),
(316,364,l),
(323,346,o),
(326,316,o),
(326,275,c),
(326,230,o),
(317,194,o),
(299,166,c),
(280,137,o),
(253,123,o),
(218,123,c)
);
},
{
closed = 1;
nodes = (
(296,40,o),
(348,78,o),
(382,154,c),
(397,190,o),
(405,230,o),
(405,275,c),
(405,295,o),
(403,324,o),
(398,361,c),
(393,398,o),
(388,425,o),
(382,444,c),
(78,444,l),
(80,545,o),
(112,619,o),
(174,666,c),
(206,688,o),
(244,699,o),
(289,699,c),
(356,699,o),
(409,670,o),
(448,611,c),
(487,552,o),
(508,470,o),
(511,364,c),
(585,364,l),
(585,476,o),
(560,574,o),
(511,657,c),
(457,740,o),
(383,782,o),
(289,782,c),
(226,782,o),
(172,766,o),
(129,735,c),
(86,704,o),
(53,659,o),
(31,601,c),
(10,544,o),
(-1,480,o),
(-1,408,c),
(-2,163,o),
(74,40,o),
(227,40,c)
);
}
);
width = 511;
}
);
},
{
export = 0;
glyphname = _B.fina;
layers = (
{
layerId = "E14AE757-7134-4DB9-897C-AD248BACE90D";
shapes = (
{
closed = 1;
nodes = (
(127,123,o),
(81,203,o),
(78,364,c),
(316,364,l),
(323,344,o),
(326,314,o),
(326,275,c),
(326,230,o),
(317,194,o),
(299,166,c),
(280,137,o),
(253,123,o),
(218,123,c)
);
},
{
closed = 1;
nodes = (
(479,-264,l),
(465,-237,o),
(458,-212,o),
(458,-187,c),
(458,-143,o),
(469,-104,o),
(492,-71,c),
(503,-52,o),
(518,-31,o),
(536,-7,c),
(610,90,o),
(659,176,o),
(682,252,c),
(695,295,o),
(702,340,o),
(702,388,c),
(702,551,o),
(647,667,o),
(537,735,c),
(484,766,o),
(419,782,o),
(344,782,c),
(197,782,o),
(96,724,o),
(39,608,c),
(12,552,o),
(-1,485,o),
(-1,408,c),
(-2,163,o),
(73,40,o),
(225,40,c),
(293,40,o),
(345,78,o),
(382,153,c),
(397,188,o),
(405,229,o),
(405,275,c),
(405,296,o),
(403,325,o),
(398,362,c),
(393,398,o),
(388,425,o),
(382,444,c),
(78,444,l),
(81,525,o),
(105,588,o),
(152,633,c),
(199,677,o),
(263,699,o),
(344,699,c),
(433,699,o),
(501,672,o),
(550,617,c),
(599,562,o),
(623,486,o),
(623,388,c),
(623,304,o),
(603,230,o),
(562,165,c),
(541,130,o),
(515,91,o),
(484,50,c),
(447,3,o),
(421,-38,o),
(404,-73,c),
(387,-109,o),
(378,-147,o),
(378,-187,c),
(378,-214,o),
(384,-239,o),
(397,-264,c)
);
}
);
width = 747;
}
);
},
{
export = 0;
glyphname = _B2.fina;
layers = (
{
layerId = "E14AE757-7134-4DB9-897C-AD248BACE90D";
shapes = (
{
closed = 1;
nodes = (
(118,124,o),
(79,166,o),
(79,251,c),
(79,294,o),
(86,332,o),
(99,364,c),
(296,364,l),
(309,332,o),
(316,294,o),
(316,251,c),
(316,209,o),
(306,177,o),
(285,156,c),
(264,134,o),
(235,123,o),
(197,123,c)
);
},
{
closed = 1;
nodes = (
(596,-264,l),
(582,-239,o),
(575,-214,o),
(575,-187,c),
(575,-160,o),
(580,-134,o),
(591,-111,c),
(601,-88,o),
(618,-62,o),
(642,-31,c),
(686,24,o),
(719,74,o),
(742,117,c),
(764,160,o),
(775,203,o),
(775,245,c),
(774,378,o),
(697,444,o),
(544,444,c),
(0,444,l),
(0,364,l),
(20,364,l),
(7,333,o),
(0,294,o),
(0,249,c),
(3,110,o),
(69,40,o),
(197,40,c),
(260,40,o),
(308,59,o),
(343,97,c),
(378,134,o),
(395,185,o),
(395,249,c),
(395,294,o),
(388,333,o),
(373,364,c),
(543,364,l),
(646,367,o),
(697,326,o),
(697,243,c),
(697,212,o),
(689,181,o),
(672,150,c),
(655,119,o),
(628,79,o),
(590,28,c),
(558,-13,o),
(534,-50,o),
(519,-83,c),
(503,-116,o),
(495,-151,o),
(495,-187,c),
(495,-218,o),
(501,-243,o),
(514,-264,c)
);
}
);
width = 820;
}
);
},
{
export = 0;
glyphname = _P.init;
layers = (
{
layerId = "E14AE757-7134-4DB9-897C-AD248BACE90D";
shapes = (
{
closed = 1;
nodes = (
(62,42,l),
(83,54,o),
(107,62,o),
(134,67,c),
(160,71,o),
(192,73,o),
(231,73,c),
(307,73,o),
(362,106,o),
(395,171,c),
(410,202,o),
(418,236,o),
(418,275,c),
(418,332,o),
(411,389,o),
(397,444,c),
(124,444,l),
(125,545,o),
(156,619,o),
(217,666,c),
(248,688,o),
(285,699,o),
(330,699,c),
(397,699,o),
(450,670,o),
(489,612,c),
(528,554,o),
(549,471,o),
(552,364,c),
(626,364,l),
(626,476,o),
(601,574,o),
(552,657,c),
(498,740,o),
(424,782,o),
(330,782,c),
(267,782,o),
(215,766,o),
(172,735,c),
(129,704,o),
(97,659,o),
(76,601,c),
(55,544,o),
(45,480,o),
(45,408,c),
(45,364,l),
(329,364,l),
(336,344,o),
(339,314,o),
(339,275,c),
(339,238,o),
(329,209,o),
(310,187,c),
(291,164,o),
(264,153,o),
(231,153,c),
(192,153,o),
(159,151,o),
(132,147,c),
(105,142,o),
(81,134,o),
(62,122,c)
);
}
);
width = 552;
}
);
},
{
export = 0;
glyphname = _P.medi;
layers = (
{
layerId = "E14AE757-7134-4DB9-897C-AD248BACE90D";
shapes = (
{
closed = 1;
nodes = (
(17,42,l),
(38,54,o),
(62,62,o),
(89,67,c),
(115,71,o),
(147,73,o),
(186,73,c),
(262,73,o),
(317,106,o),
(350,171,c),
(365,202,o),
(373,236,o),
(373,275,c),
(373,332,o),
(366,389,o),
(352,444,c),
(79,444,l),
(80,545,o),
(111,619,o),
(172,666,c),
(203,688,o),
(240,699,o),
(285,699,c),
(352,699,o),
(405,670,o),
(444,612,c),
(483,554,o),
(504,471,o),
(507,364,c),
(581,364,l),
(581,476,o),
(556,574,o),
(507,657,c),
(453,740,o),
(379,782,o),
(285,782,c),
(222,782,o),
(170,766,o),
(127,735,c),
(84,704,o),
(52,659,o),
(31,601,c),
(10,544,o),
(0,480,o),
(0,408,c),
(0,364,l),
(284,364,l),
(291,344,o),
(294,314,o),
(294,275,c),
(294,238,o),
(284,209,o),
(265,187,c),
(246,164,o),
(219,153,o),
(186,153,c),
(147,153,o),
(114,151,o),
(87,147,c),
(60,142,o),
(36,134,o),
(17,122,c)
);
}
);
width = 507;
}
);
},
{
export = 0;
glyphname = _P.fina;
layers = (
{
layerId = "E14AE757-7134-4DB9-897C-AD248BACE90D";
shapes = (
{
closed = 1;
nodes = (
(447,-264,l),
(433,-237,o),
(426,-212,o),
(426,-187,c),
(426,-143,o),
(437,-104,o),
(460,-71,c),
(471,-52,o),
(486,-31,o),
(504,-7,c),
(576,86,o),
(625,173,o),
(650,252,c),
(663,295,o),
(670,340,o),
(670,388,c),
(670,551,o),
(617,667,o),
(511,734,c),
(460,766,o),
(396,782,o),
(321,782,c),
(190,782,o),
(96,724,o),
(39,607,c),
(13,552,o),
(0,485,o),
(0,408,c),
(0,364,l),
(284,364,l),
(291,345,o),
(294,315,o),
(294,275,c),
(294,238,o),
(284,209,o),
(265,187,c),
(246,164,o),
(219,153,o),
(186,153,c),
(147,153,o),
(113,151,o),
(86,147,c),
(59,142,o),
(35,134,o),
(16,122,c),
(16,42,l),
(53,63,o),
(110,73,o),
(186,73,c),
(262,73,o),
(317,106,o),
(350,171,c),
(365,202,o),
(373,236,o),
(373,275,c),
(373,332,o),
(366,389,o),
(352,444,c),
(79,444,l),
(82,547,o),
(120,621,o),
(191,667,c),
(226,688,o),
(270,699,o),
(322,699,c),
(381,699,o),
(431,687,o),
(471,662,c),
(511,637,o),
(541,600,o),
(562,552,c),
(581,506,o),
(591,451,o),
(591,388,c),
(591,345,o),
(586,306,o),
(576,271,c),
(566,236,o),
(551,200,o),
(530,165,c),
(509,130,o),
(483,92,o),
(452,50,c),
(415,1,o),
(388,-41,o),
(371,-75,c),
(354,-110,o),
(346,-147,o),
(346,-187,c),
(346,-216,o),
(352,-241,o),
(365,-264,c)
);
}
);
width = 715;
}
);
},
{
export = 0;
glyphname = _H.init;
layers = (
{
layerId = "E14AE757-7134-4DB9-897C-AD248BACE90D";
shapes = (
{
closed = 1;
nodes = (
(299,96,l),
(289,268,o),
(258,377,o),
(206,423,c),
(210,496,o),
(226,552,o),
(253,589,c),
(280,626,o),
(316,644,o),
(362,644,c),
(413,644,o),
(450,623,o),
(475,580,c),
(500,537,o),
(512,470,o),
(512,378,c),
(512,285,o),
(506,191,o),
(495,96,c),
(573,96,l),
(587,192,o),
(594,281,o),
(594,364,c),
(818,364,l),
(818,444,l),
(591,444,l),
(574,633,o),
(497,727,o),
(362,727,c),
(271,727,o),
(206,682,o),
(165,593,c),
(146,551,o),
(134,504,o),
(129,451,c),
(96,450,o),
(68,444,o),
(45,433,c),
(45,353,l),
(62,362,o),
(84,366,o),
(112,366,c),
(149,366,o),
(175,342,o),
(189,294,c),
(204,246,o),
(214,180,o),
(221,96,c)
);
}
);
width = 788;
}
);
},
{
export = 0;
glyphname = _H.medi;
layers = (
{
layerId = "E14AE757-7134-4DB9-897C-AD248BACE90D";
shapes = (
{
closed = 1;
nodes = (
(85,96,l),
(104,364,l),
(284,364,l),
(303,96,l),
(369,96,l),
(388,364,l),
(598,364,l),
(598,444,l),
(0,444,l),
(0,364,l),
(19,96,l)
);
}
);
width = 568;
}
);
},
{
export = 0;
glyphname = _H.fina;
layers = (
{
layerId = "E14AE757-7134-4DB9-897C-AD248BACE90D";
shapes = (
{
closed = 1;
nodes = (
(506,186,l),
(506,277,o),
(515,362,o),
(533,441,c),
(550,520,o),
(579,595,o),
(618,666,c),
(525,666,l),
(460,537,o),
(427,377,o),
(427,188,c),
(386,211,o),
(359,242,o),
(344,283,c),
(329,323,o),
(321,377,o),
(321,444,c),
(0,444,l),
(0,364,l),
(19,96,l),
(85,96,l),
(104,364,l),
(251,364,l),
(251,314,o),
(262,267,o),
(285,223,c),
(307,179,o),
(338,143,o),
(377,115,c),
(416,88,o),
(459,74,o),
(506,74,c)
);
}
);
width = 663;
}
);
},
{
export = 0;
glyphname = _Hx.init;
layers = (
{
layerId = "E14AE757-7134-4DB9-897C-AD248BACE90D";
shapes = (
{
closed = 1;
nodes = (
(391,-218,l),
(426,-182,o),
(472,-143,o),
(530,-102,c),
(469,-33,l),
(430,-72,o),
(389,-121,o),
(348,-179,c)
);
},
{
closed = 1;
nodes = (
(299,96,l),
(289,268,o),
(258,377,o),
(206,423,c),
(210,496,o),
(226,552,o),
(253,589,c),
(280,626,o),
(316,644,o),
(362,644,c),
(413,644,o),
(450,623,o),
(475,580,c),
(500,537,o),
(512,470,o),
(512,378,c),
(512,285,o),
(506,191,o),
(495,96,c),
(573,96,l),
(587,192,o),
(594,281,o),
(594,364,c),
(818,364,l),
(818,444,l),
(591,444,l),
(574,633,o),
(497,727,o),
(362,727,c),
(271,727,o),
(206,682,o),
(165,593,c),
(146,551,o),
(134,504,o),
(129,451,c),
(96,450,o),
(68,444,o),
(45,433,c),
(45,353,l),
(62,362,o),
(84,366,o),
(112,366,c),
(149,366,o),
(175,342,o),
(189,294,c),
(204,246,o),
(214,180,o),
(221,96,c)
);
},
{
closed = 1;
nodes = (
(215,-141,l),
(250,-105,o),
(296,-66,o),
(354,-25,c),
(293,44,l),
(254,5,o),
(213,-44,o),
(172,-102,c)
);
}
);
width = 788;
}
);
},
{
export = 0;
glyphname = _Hx.medi;
layers = (
{
layerId = "E14AE757-7134-4DB9-897C-AD248BACE90D";
shapes = (
{
closed = 1;
nodes = (
(328,-163,l),
(363,-127,o),
(409,-88,o),
(467,-47,c),
(406,22,l),
(367,-17,o),
(326,-66,o),
(285,-124,c)
);
},
{
closed = 1;
nodes = (
(85,96,l),
(104,364,l),
(284,364,l),
(303,96,l),
(369,96,l),
(388,364,l),
(598,364,l),
(598,444,l),
(0,444,l),
(0,364,l),
(19,96,l)
);
},
{
closed = 1;
nodes = (
(45,-163,l),
(80,-127,o),
(126,-88,o),
(184,-47,c),
(123,22,l),
(84,-17,o),
(43,-66,o),
(2,-124,c)
);
}
);
width = 568;
}
);
},
{
export = 0;
glyphname = _Hx.fina;
layers = (
{
layerId = "E14AE757-7134-4DB9-897C-AD248BACE90D";
shapes = (
{
closed = 1;
nodes = (
(462,-196,l),
(497,-160,o),
(543,-121,o),
(601,-80,c),
(540,-11,l),
(501,-50,o),
(460,-99,o),
(419,-157,c)
);
},
{
closed = 1;
nodes = (
(506,186,l),
(506,277,o),
(515,362,o),
(533,441,c),
(550,520,o),
(579,595,o),
(618,666,c),
(525,666,l),
(460,537,o),
(427,377,o),
(427,188,c),
(386,211,o),
(359,242,o),
(344,283,c),
(329,323,o),
(321,377,o),
(321,444,c),
(0,444,l),
(0,364,l),
(19,96,l),
(85,96,l),
(104,364,l),
(251,364,l),
(251,314,o),
(262,267,o),
(285,223,c),
(307,179,o),
(338,143,o),
(377,115,c),
(416,88,o),
(459,74,o),
(506,74,c)
);
},
{
closed = 1;
nodes = (
(243,-141,l),
(278,-105,o),
(324,-66,o),
(382,-25,c),
(321,44,l),
(282,5,o),
(241,-44,o),
(200,-102,c)
);
}
);
width = 663;
}
);
},
{
export = 0;
glyphname = _Hx.fina.mvs;
layers = (
{
anchors = (
{
name = baluda;
pos = (0,0);
},
{
name = dagalga;
pos = (0,0);
}
);
layerId = "E14AE757-7134-4DB9-897C-AD248BACE90D";
shapes = (
{
closed = 1;
nodes = (
(764,0,o),
(810,39,o),
(868,80,c),
(807,149,l),
(768,110,o),
(727,61,o),
(686,3,c),
(729,-36,l)
);
},
{
closed = 1;
nodes = (
(506,186,l),
(506,370,o),
(541,526,o),
(618,666,c),
(525,666,l),
(460,537,o),
(427,377,o),
(427,188,c),
(347,233,o),
(321,311,o),
(321,444,c),
(0,444,l),
(0,364,l),
(19,96,l),
(85,96,l),
(104,364,l),
(251,364,l),
(251,217,o),
(359,74,o),
(506,74,c)
);
},
{
closed = 1;
nodes = (
(767,172,o),
(813,211,o),
(871,252,c),
(810,321,l),
(771,282,o),
(730,233,o),
(689,175,c),
(732,136,l)
);
}
);
width = 663;
}
);
},
{
export = 0;
glyphname = _G.init;
layers = (
{
anchors = (
{
name = baluda;
pos = (0,0);
},
{
name = dagalga;
pos = (0,0);
}
);
layerId = "E14AE757-7134-4DB9-897C-AD248BACE90D";
shapes = (
{
closed = 1;
nodes = (
(215,112,l),
(158,206,o),
(124,294,o),
(124,400,c),
(124,489,o),
(167,543,o),
(247,543,c),
(319,543,o),
(369,485,o),
(377,364,c),
(451,364,l),
(444,509,o),
(384,626,o),
(247,626,c),
(124,626,o),
(45,537,o),
(45,400,c),
(45,296,o),
(77,186,o),
(141,70,c)
);
}
);
width = 377;
}
);
},
{
export = 0;
glyphname = _G.medi;
layers = (
{
anchors = (
{
name = baluda;
pos = (-47,0);
},
{
name = dagalga;
pos = (-47,0);
}
);
layerId = "E14AE757-7134-4DB9-897C-AD248BACE90D";
shapes = (
{
closed = 1;
nodes = (
(168,112,l),
(111,206,o),
(77,294,o),
(77,400,c),
(77,489,o),
(120,543,o),
(200,543,c),
(272,543,o),
(322,485,o),
(330,364,c),
(404,364,l),
(397,509,o),
(337,626,o),
(200,626,c),
(77,626,o),
(-2,537,o),
(-2,400,c),
(-2,296,o),
(30,186,o),
(94,70,c)
);
}
);
width = 330;
}
);
},
{
export = 0;
glyphname = _G.fina;
layers = (
{
layerId = "E14AE757-7134-4DB9-897C-AD248BACE90D";
shapes = (
{
closed = 1;
nodes = (
(444,-264,l),
(430,-237,o),
(423,-212,o),
(423,-187,c),
(423,-158,o),
(428,-133,o),
(439,-111,c),
(449,-90,o),
(466,-63,o),
(490,-31,c),
(542,37,o),
(577,91,o),
(595,131,c),
(614,171,o),
(623,209,o),
(623,245,c),
(621,378,o),
(544,444,o),
(392,444,c),
(0,444,l),
(0,364,l),
(39,220,o),
(96,76,o),
(173,-67,c),
(246,-31,l),
(173,98,o),
(118,229,o),
(79,364,c),
(391,364,l),
(494,365,o),
(545,325,o),
(545,245,c),
(545,222,o),
(542,202,o),
(536,184,c),
(529,166,o),
(518,145,o),
(503,120,c),
(488,95,o),
(467,65,o),
(438,28,c),
(407,-12,o),
(383,-49,o),
(367,-82,c),
(351,-115,o),
(343,-150,o),
(343,-187,c),
(343,-217,o),
(349,-243,o),
(362,-264,c)
);
}
);
width = 668;
}
);
},
{
export = 0;
glyphname = _Gx.init;
layers = (
{
anchors = (
{
name = baluda;
pos = (0,0);
},
{
name = dagalga;
pos = (0,0);
}
);
layerId = "E14AE757-7134-4DB9-897C-AD248BACE90D";
shapes = (
{
closed = 1;
nodes = (
(196,-11,l),
(157,-50,o),
(117,-98,o),
(75,-157,c),
(118,-196,l),
(151,-162,o),
(197,-123,o),
(257,-80,c)
);
},
{
closed = 1;
nodes = (
(411,-11,l),
(373,-50,o),
(333,-98,o),
(290,-157,c),
(333,-196,l),
(366,-162,o),
(412,-123,o),
(472,-80,c)
);
},
{
closed = 1;
nodes = (
(215,112,l),
(158,206,o),
(124,294,o),
(124,400,c),
(124,489,o),
(167,543,o),
(247,543,c),
(319,543,o),
(369,485,o),
(377,364,c),
(451,364,l),
(444,509,o),
(384,626,o),
(247,626,c),
(124,626,o),
(45,537,o),
(45,400,c),
(45,296,o),
(77,186,o),
(141,70,c)
);
}
);
width = 378;
}
);
},
{
export = 0;
glyphname = _Gx.medi;
layers = (
{
anchors = (
{
name = baluda;
pos = (-47,0);
},
{
name = dagalga;
pos = (-47,0);
}
);
layerId = "E14AE757-7134-4DB9-897C-AD248BACE90D";
shapes = (
{
closed = 1;
nodes = (
(149,-11,l),
(110,-50,o),
(70,-98,o),
(28,-157,c),
(71,-196,l),
(104,-162,o),
(150,-123,o),
(210,-80,c)
);
},
{
closed = 1;
nodes = (
(364,-11,l),
(326,-50,o),
(286,-98,o),
(243,-157,c),
(286,-196,l),
(319,-162,o),
(365,-123,o),
(425,-80,c)
);
},
{
closed = 1;
nodes = (
(168,112,l),
(111,206,o),
(77,294,o),
(77,400,c),
(77,489,o),
(120,543,o),
(200,543,c),
(272,543,o),
(322,485,o),
(330,364,c),
(404,364,l),
(397,509,o),
(337,626,o),
(200,626,c),
(77,626,o),
(-2,537,o),
(-2,400,c),
(-2,296,o),
(30,186,o),
(94,70,c)
);
}
);
width = 331;
}
);
},
{
export = 0;
glyphname = _M.init;
layers = (
{
layerId = "E14AE757-7134-4DB9-897C-AD248BACE90D";
shapes = (
{
closed = 1;
nodes = (
(226,74,l),
(292,74,l),
(302,219,l),
(305,291,o),
(325,335,o),
(361,350,c),
(380,359,o),
(408,364,o),
(445,364,c),
(522,364,l),
(522,444,l),
(444,444,l),
(360,444,o),
(307,416,o),
(285,361,c),
(281,361,l),
(281,504,o),
(264,614,o),
(229,693,c),
(265,693,l),
(320,693,o),
(360,696,o),
(383,701,c),
(406,706,o),
(427,716,o),
(444,731,c),
(444,808,l),
(430,798,o),
(409,789,o),
(380,782,c),
(355,776,o),
(317,773,o),
(265,773,c),
(144,773,l),
(144,716,l),
(163,699,o),
(178,675,o),
(189,646,c),
(174,651,o),
(157,653,o),
(139,653,c),
(100,653,o),
(57,643,o),
(10,623,c),
(10,550,l),
(51,567,o),
(87,575,o),
(118,575,c),
(147,575,o),
(168,564,o),
(180,542,c),
(191,519,o),
(198,484,o),
(200,437,c)
);
}
);
width = 492;
}
);
},
{
export = 0;
glyphname = _M.medi;
layers = (
{
layerId = "E14AE757-7134-4DB9-897C-AD248BACE90D";
shapes = (
{
closed = 1;
nodes = (
(85,96,l),
(104,364,l),
(314,364,l),
(314,444,l),
(84,444,l),
(81,518,o),
(71,583,o),
(54,639,c),
(90,639,l),
(137,639,o),
(174,641,o),
(201,646,c),
(228,651,o),
(250,661,o),
(269,677,c),
(269,754,l),
(234,731,o),
(174,719,o),
(90,719,c),
(-31,719,l),
(-31,653,l),
(-1,585,o),
(14,515,o),
(14,444,c),
(0,444,l),
(0,364,l),
(19,96,l)
);
}
);
width = 284;
}
);
},
{
export = 0;
glyphname = _M.fina;
layers = (
{
layerId = "E14AE757-7134-4DB9-897C-AD248BACE90D";
shapes = (
{
closed = 1;
nodes = (
(270,186,l),
(270,326,o),
(295,447,o),
(345,549,c),
(371,604,o),
(404,660,o),
(445,718,c),
(346,718,l),
(243,577,o),
(191,399,o),
(191,183,c),
(130,216,o),
(94,263,o),
(83,325,c),
(76,358,o),
(71,400,o),
(70,449,c),
(69,513,o),
(62,565,o),
(49,606,c),
(89,606,o),
(122,609,o),
(148,614,c),
(174,619,o),
(196,629,o),
(213,644,c),
(213,722,l),
(184,698,o),
(128,686,o),
(45,686,c),
(-27,686,l),
(-27,620,l),
(-9,564,o),
(0,507,o),
(0,449,c),
(0,364,l),
(0,313,o),
(12,266,o),
(36,223,c),
(59,179,o),
(92,143,o),
(133,116,c),
(174,89,o),
(219,75,o),
(270,74,c)
);
}
);
width = 455;
}
);
},
{
export = 0;
glyphname = _L.init;
layers = (
{
layerId = "E14AE757-7134-4DB9-897C-AD248BACE90D";
shapes = (
{
closed = 1;
nodes = (
(226,74,l),
(292,74,l),
(302,219,l),
(305,293,o),
(324,337,o),
(361,351,c),
(381,360,o),
(409,364,o),
(445,364,c),
(522,364,l),
(522,444,l),
(444,444,l),
(360,444,o),
(307,416,o),
(285,361,c),
(281,361,l),
(278,445,l),
(276,500,o),
(270,543,o),
(259,573,c),
(265,634,o),
(292,699,o),
(339,766,c),
(339,832,l),
(219,832,l),
(177,832,o),
(142,834,o),
(114,839,c),
(85,843,o),
(60,853,o),
(39,868,c),
(39,790,l),
(57,775,o),
(80,765,o),
(108,760,c),
(135,755,o),
(172,752,o),
(219,752,c),
(247,752,l),
(228,723,o),
(212,686,o),
(200,642,c),
(181,649,o),
(161,653,o),
(139,653,c),
(100,653,o),
(57,643,o),
(10,623,c),
(10,550,l),
(51,567,o),
(87,575,o),
(118,575,c),
(147,575,o),
(168,564,o),
(179,541,c),
(190,518,o),
(197,484,o),
(200,437,c)
);
}
);
width = 492;
}
);
},
{
export = 0;
glyphname = _L.medi;
layers = (
{
layerId = "E14AE757-7134-4DB9-897C-AD248BACE90D";
shapes = (
{
closed = 1;
nodes = (
(85,96,l),
(104,364,l),
(314,364,l),
(314,444,l),
(86,444,l),
(88,512,o),
(109,582,o),
(148,653,c),
(148,719,l),
(28,719,l),
(-15,719,o),
(-50,721,o),
(-77,726,c),
(-104,730,o),
(-129,740,o),
(-152,755,c),
(-152,677,l),
(-134,662,o),
(-111,652,o),
(-84,647,c),
(-57,642,o),
(-19,639,o),
(28,639,c),
(62,639,l),
(35,581,o),
(19,516,o),
(16,444,c),
(0,444,l),
(0,364,l),
(19,96,l)
);
}
);
width = 284;
}
);
},
{
export = 0;
glyphname = _L.fina;
layers = (
{
layerId = "E14AE757-7134-4DB9-897C-AD248BACE90D";
shapes = (
{
closed = 1;
nodes = (
(244,157,l),
(244,250,o),
(251,337,o),
(266,418,c),
(281,499,o),
(305,578,o),
(338,653,c),
(338,714,l),
(162,714,l),
(113,714,o),
(78,716,o),
(55,721,c),
(28,727,o),
(4,737,o),
(-18,750,c),
(-18,672,l),
(0,657,o),
(21,647,o),
(46,642,c),
(71,637,o),
(110,634,o),
(162,634,c),
(240,634,l),
(190,503,o),
(165,345,o),
(165,159,c),
(104,194,o),
(68,249,o),
(57,324,c),
(51,361,o),
(48,401,o),
(48,444,c),
(-33,444,l),
(-33,364,l),
(-33,309,o),
(-21,257,o),
(3,210,c),
(27,162,o),
(60,123,o),
(103,93,c),
(145,63,o),
(192,47,o),
(244,45,c)
);
}
);
width = 383;
}
);
},
{
export = 0;
glyphname = _S.init;
layers = (
{
layerId = "E14AE757-7134-4DB9-897C-AD248BACE90D";
shapes = (
{
closed = 1;
nodes = (
(519,73,l),
(497,182,o),
(475,279,o),
(454,364,c),
(711,364,l),
(711,444,l),
(433,444,l),
(406,545,o),
(378,642,o),
(349,734,c),
(255,734,l),
(234,609,o),
(216,526,o),
(199,486,c),
(183,447,o),
(160,427,o),
(130,427,c),
(103,427,o),
(75,433,o),
(45,446,c),
(45,371,l),
(74,354,o),
(104,346,o),
(135,346,c),
(174,346,o),
(203,357,o),
(224,379,c),
(245,400,o),
(261,434,o),
(273,480,c),
(286,527,o),
(296,574,o),
(302,620,c),
(306,620,l),
(327,564,o),
(349,486,o),
(374,387,c),
(401,280,o),
(424,176,o),
(443,73,c)
);
}
);
width = 681;
}
);
},
{
export = 0;
glyphname = _S.medi;
layers = (
{
layerId = "E14AE757-7134-4DB9-897C-AD248BACE90D";
shapes = (
{
closed = 1;
nodes = (
(105,73,l),
(97,106,o),
(93,148,o),
(93,199,c),
(93,352,o),
(128,492,o),
(197,617,c),
(201,617,l),
(216,421,o),
(260,240,o),
(334,73,c),
(419,73,l),
(371,172,o),
(336,269,o),
(313,364,c),
(611,364,l),
(611,444,l),
(296,444,l),
(279,535,o),
(271,632,o),
(271,734,c),
(190,734,l),
(127,647,o),
(80,551,o),
(50,444,c),
(0,444,l),
(0,364,l),
(0,303,o),
(5,238,o),
(14,167,c),
(18,133,o),
(23,102,o),
(28,73,c)
);
}
);
width = 581;
}
);
},
{
export = 0;
glyphname = _S.fina;
layers = (
{
layerId = "E14AE757-7134-4DB9-897C-AD248BACE90D";
shapes = (
{
closed = 1;
nodes = (
(105,73,l),
(92,124,o),
(86,191,o),
(86,276,c),
(86,393,o),
(113,506,o),
(166,613,c),
(170,613,l),
(179,519,o),
(197,431,o),
(222,350,c),
(247,269,o),
(283,187,o),
(328,106,c),
(408,106,l),
(447,307,o),
(524,485,o),
(640,642,c),
(543,642,l),
(456,517,o),
(395,378,o),
(358,223,c),
(354,223,l),
(313,309,o),
(283,393,o),
(265,475,c),
(247,559,o),
(238,645,o),
(238,734,c),
(157,734,l),
(96,643,o),
(54,546,o),
(32,444,c),
(0,444,l),
(0,364,l),
(0,277,o),
(9,180,o),
(27,73,c)
);
}
);
width = 685;
}
);
},
{
export = 0;
glyphname = _Sz.fina;
layers = (
{
layerId = "E14AE757-7134-4DB9-897C-AD248BACE90D";
shapes = (
{
closed = 1;
nodes = (
(151,106,l),
(190,307,o),
(268,486,o),
(383,642,c),
(286,642,l),
(229,564,o),
(182,473,o),
(144,369,c),
(125,319,o),
(111,270,o),
(101,223,c),
(97,223,l),
(74,251,o),
(58,282,o),
(50,316,c),
(41,350,o),
(37,393,o),
(37,444,c),
(-33,444,l),
(-33,364,l),
(-33,307,o),
(-14,248,o),
(23,186,c),
(40,157,o),
(59,130,o),
(80,106,c)
);
}
);
width = 428;
}
);
},
{
export = 0;
glyphname = _Sh.init;
layers = (
{
layerId = "E14AE757-7134-4DB9-897C-AD248BACE90D";
shapes = (
{
closed = 1;
nodes = (
(417,777,l),
(452,813,o),
(498,852,o),
(556,893,c),
(495,962,l),
(456,923,o),
(415,874,o),
(374,816,c)
);
},
{
closed = 1;
nodes = (
(519,73,l),
(497,182,o),
(475,279,o),
(454,364,c),
(711,364,l),
(711,444,l),
(433,444,l),
(406,545,o),
(378,642,o),
(349,734,c),
(255,734,l),
(234,609,o),
(216,526,o),
(199,486,c),
(183,447,o),
(160,427,o),
(130,427,c),
(103,427,o),
(75,433,o),
(45,446,c),
(45,371,l),
(74,354,o),
(104,346,o),
(135,346,c),
(174,346,o),
(203,357,o),
(224,379,c),
(245,400,o),
(261,434,o),
(273,480,c),
(286,527,o),
(296,574,o),
(302,620,c),
(306,620,l),
(327,564,o),
(349,486,o),
(374,387,c),
(401,280,o),
(424,176,o),
(443,73,c)
);
},
{
closed = 1;
nodes = (
(210,777,l),
(245,813,o),
(291,852,o),
(349,893,c),
(288,962,l),
(249,923,o),
(208,874,o),
(167,816,c)
);
}
);
width = 681;
}
);
},
{
export = 0;
glyphname = _Sh.medi;
layers = (
{
layerId = "E14AE757-7134-4DB9-897C-AD248BACE90D";
shapes = (
{
closed = 1;
nodes = (
(347,777,l),
(382,813,o),
(428,852,o),
(486,893,c),
(425,962,l),
(386,923,o),
(345,874,o),
(304,816,c)
);
},
{
closed = 1;
nodes = (
(105,73,l),
(97,106,o),
(93,148,o),
(93,199,c),
(93,352,o),
(128,492,o),
(197,617,c),
(201,617,l),
(216,421,o),
(260,240,o),
(334,73,c),
(419,73,l),
(371,172,o),
(336,269,o),
(313,364,c),
(611,364,l),
(611,444,l),
(296,444,l),
(279,535,o),
(271,632,o),
(271,734,c),
(190,734,l),
(127,647,o),
(80,551,o),
(50,444,c),
(0,444,l),
(0,364,l),
(0,303,o),
(5,238,o),
(14,167,c),
(18,133,o),
(23,102,o),
(28,73,c)
);
},
{
closed = 1;
nodes = (
(140,777,l),
(175,813,o),
(221,852,o),
(279,893,c),
(218,962,l),
(179,923,o),
(138,874,o),
(97,816,c)
);
}
);
width = 581;
}
);
},
{
export = 0;
glyphname = _Sh.fina;
layers = (
{
layerId = "E14AE757-7134-4DB9-897C-AD248BACE90D";
shapes = (
{
closed = 1;
nodes = (
(315,777,l),
(350,813,o),
(396,852,o),
(454,893,c),
(393,962,l),
(354,923,o),
(313,874,o),
(272,816,c)
);
},
{
closed = 1;
nodes = (
(105,73,l),
(92,124,o),
(86,191,o),
(86,276,c),
(86,393,o),
(113,506,o),
(166,613,c),
(170,613,l),
(179,519,o),
(197,431,o),
(222,350,c),
(247,269,o),
(283,187,o),
(328,106,c),
(408,106,l),
(447,307,o),
(524,485,o),
(640,642,c),
(543,642,l),
(456,517,o),
(395,378,o),
(358,223,c),
(354,223,l),
(313,309,o),
(283,393,o),
(265,475,c),
(247,559,o),
(238,645,o),
(238,734,c),
(157,734,l),
(96,643,o),
(54,546,o),
(32,444,c),
(0,444,l),
(0,364,l),
(0,277,o),
(9,180,o),
(27,73,c)
);
},
{
closed = 1;
nodes = (
(108,777,l),
(143,813,o),
(189,852,o),
(247,893,c),
(186,962,l),
(147,923,o),
(106,874,o),
(65,816,c)
);
}
);
width = 685;
}
);
},
{
export = 0;
glyphname = _T.init;
layers = (
{
layerId = "E14AE757-7134-4DB9-897C-AD248BACE90D";
shapes = (
{
closed = 1;
nodes = (
(147,444,l),
(132,473,o),
(124,513,o),
(124,563,c),
(124,604,o),
(135,636,o),
(156,659,c),
(177,682,o),
(206,694,o),
(243,694,c),
(288,694,o),
(322,674,o),
(344,634,c),
(366,593,o),
(378,530,o),
(380,444,c)
);
},
{
closed = 1;
nodes = (
(471,96,l),
(490,364,l),
(700,364,l),
(700,444,l),
(460,444,l),
(453,601,o),
(421,700,o),
(362,743,c),
(332,766,o),
(292,777,o),
(243,777,c),
(164,777,o),
(107,742,o),
(70,673,c),
(53,641,o),
(45,604,o),
(45,563,c),
(45,496,o),
(60,430,o),
(91,364,c),
(386,364,l),
(405,96,l)
);
}
);
width = 670;
}
);
},
{
export = 0;
glyphname = _T.medi;
layers = (
{
layerId = "E14AE757-7134-4DB9-897C-AD248BACE90D";
shapes = (
{
closed = 1;
nodes = (
(101,444,l),
(86,471,o),
(78,511,o),
(78,563,c),
(83,650,o),
(122,694,o),
(197,694,c),
(260,694,o),
(301,653,o),
(320,571,c),
(328,533,o),
(333,491,o),
(334,444,c)
);
},
{
closed = 1;
nodes = (
(425,96,l),
(444,364,l),
(654,364,l),
(654,444,l),
(414,444,l),
(411,584,o),
(382,681,o),
(325,735,c),
(295,763,o),
(252,777,o),
(197,777,c),
(120,777,o),
(63,743,o),
(24,675,c),
(7,644,o),
(-1,606,o),
(-1,563,c),
(-1,521,o),
(7,481,o),
(24,444,c),
(0,444,l),
(0,364,l),
(340,364,l),
(359,96,l)
);
}
);
width = 624;
}
);
},
{
export = 0;
glyphname = _T.fina;
layers = (
{
layerId = "E14AE757-7134-4DB9-897C-AD248BACE90D";
shapes = (
{
closed = 1;
nodes = (
(101,444,l),
(86,471,o),
(78,511,o),
(78,563,c),
(83,650,o),
(122,694,o),
(197,694,c),
(260,694,o),
(301,653,o),
(320,571,c),
(328,533,o),
(333,491,o),
(334,444,c)
);
},
{
closed = 1;
nodes = (
(425,96,l),
(444,364,l),
(654,364,l),
(689,364,o),
(714,357,o),
(729,343,c),
(744,328,o),
(752,307,o),
(752,279,c),
(752,234,o),
(745,195,o),
(730,162,c),
(804,162,l),
(821,198,o),
(829,237,o),
(829,279,c),
(830,389,o),
(771,444,o),
(654,444,c),
(414,444,l),
(411,586,o),
(382,683,o),
(325,735,c),
(295,763,o),
(252,777,o),
(197,777,c),
(120,777,o),
(63,743,o),
(24,675,c),
(7,644,o),
(-1,606,o),
(-1,563,c),
(-1,521,o),
(7,481,o),
(24,444,c),
(0,444,l),
(0,364,l),
(340,364,l),
(359,96,l)
);
}
);
width = 874;
}
);
},
{
export = 0;
glyphname = _D.init;
layers = (
{
layerId = "E14AE757-7134-4DB9-897C-AD248BACE90D";
shapes = (
{
closed = 1;
nodes = (
(322,-77,o),
(273,-26,o),
(232,76,c),
(260,127,o),
(299,153,o),
(350,153,c),
(390,153,o),
(421,142,o),
(442,120,c),
(463,97,o),
(473,66,o),
(473,27,c),
(473,-5,o),
(465,-30,o),
(448,-49,c),
(431,-68,o),
(408,-77,o),
(379,-77,c)
);
},
{
closed = 1;
nodes = (
(430,-157,o),
(471,-140,o),
(503,-106,c),
(535,-73,o),
(551,-28,o),
(551,27,c),
(551,90,o),
(533,140,o),
(497,177,c),
(461,214,o),
(412,232,o),
(350,232,c),
(290,232,o),
(241,206,o),
(202,154,c),
(177,225,o),
(156,295,o),
(139,364,c),
(703,364,l),
(703,444,l),
(45,444,l),
(63,338,o),
(91,234,o),
(128,131,c),
(170,9,o),
(217,-74,o),
(270,-119,c),
(300,-144,o),
(336,-157,o),
(379,-157,c)
);
}
);
width = 673;
}
);
},
{
export = 0;
glyphname = _D.medi;
layers = (
{
layerId = "E14AE757-7134-4DB9-897C-AD248BACE90D";
shapes = (
{
closed = 1;
nodes = (
(262,-77,o),
(213,-26,o),
(172,76,c),
(200,127,o),
(239,153,o),
(290,153,c),
(330,153,o),
(361,142,o),
(382,120,c),
(403,97,o),
(413,66,o),
(413,27,c),
(413,-5,o),
(405,-30,o),
(388,-49,c),
(371,-68,o),
(348,-77,o),
(319,-77,c)
);
},
{
closed = 1;
nodes = (
(386,-157,o),
(436,-128,o),
(469,-70,c),
(484,-42,o),
(491,-10,o),
(491,27,c),
(491,90,o),
(473,140,o),
(437,177,c),
(401,214,o),
(352,232,o),
(290,232,c),
(230,232,o),
(181,206,o),
(142,154,c),
(117,225,o),
(96,295,o),
(79,364,c),
(643,364,l),
(643,444,l),
(0,444,l),
(0,364,l),
(23,267,o),
(51,175,o),
(84,88,c),
(125,-17,o),
(169,-88,o),
(218,-126,c),
(247,-147,o),
(280,-157,o),
(319,-157,c)
);
}
);
width = 613;
}
);
},
{
export = 0;
glyphname = _D.fina;
layers = (
{
layerId = "E14AE757-7134-4DB9-897C-AD248BACE90D";
shapes = (
{
closed = 1;
nodes = (
(262,-77,o),
(213,-26,o),
(172,76,c),
(200,127,o),
(239,153,o),
(290,153,c),
(330,153,o),
(361,142,o),
(382,120,c),
(403,97,o),
(413,66,o),
(413,27,c),
(413,-5,o),
(405,-30,o),
(388,-49,c),
(371,-68,o),
(348,-77,o),
(319,-77,c)
);
},
{
closed = 1;
nodes = (
(386,-157,o),
(436,-128,o),
(469,-70,c),
(484,-42,o),
(491,-10,o),
(491,27,c),
(491,90,o),
(473,140,o),
(437,177,c),
(401,214,o),
(352,232,o),
(290,232,c),
(230,232,o),
(181,206,o),
(142,154,c),
(117,225,o),
(96,295,o),
(79,364,c),
(643,364,l),
(678,364,o),
(703,357,o),
(718,343,c),
(733,328,o),
(741,307,o),
(741,279,c),
(741,235,o),
(734,196,o),
(719,162,c),
(793,162,l),
(810,196,o),
(818,235,o),
(818,279,c),
(819,389,o),
(760,444,o),
(643,444,c),
(0,444,l),
(0,364,l),
(23,267,o),
(51,175,o),
(84,88,c),
(125,-17,o),
(169,-88,o),
(218,-126,c),
(247,-147,o),
(280,-157,o),
(319,-157,c)
);
}
);
width = 863;
}
);
},
{
export = 0;
glyphname = _Dd.medi;
layers = (
{
layerId = "E14AE757-7134-4DB9-897C-AD248BACE90D";
shapes = (
{
closed = 1;
nodes = (
(118,124,o),
(79,166,o),
(79,251,c),
(79,294,o),
(86,332,o),
(99,364,c),
(296,364,l),
(309,332,o),
(316,294,o),
(316,251,c),
(316,209,o),
(306,177,o),
(285,156,c),
(264,134,o),
(235,123,o),
(197,123,c)
);
},
{
closed = 1;
nodes = (
(260,40,o),
(308,59,o),
(343,97,c),
(378,134,o),
(395,185,o),
(395,249,c),
(395,294,o),
(388,333,o),
(373,364,c),
(573,364,l),
(592,96,l),
(658,96,l),
(677,364,l),
(887,364,l),
(887,444,l),
(0,444,l),
(0,364,l),
(20,364,l),
(7,333,o),
(0,294,o),
(0,249,c),
(3,110,o),
(69,40,o),
(197,40,c)
);
}
);
width = 857;
}
);
},
{
export = 0;
glyphname = _Dd.fina;
layers = (
{
layerId = "E14AE757-7134-4DB9-897C-AD248BACE90D";
shapes = (
{
closed = 1;
nodes = (
(118,124,o),
(79,166,o),
(79,251,c),
(79,294,o),
(86,332,o),
(99,364,c),
(296,364,l),
(309,332,o),
(316,294,o),
(316,251,c),
(316,209,o),
(306,177,o),
(285,156,c),
(264,134,o),
(235,123,o),
(197,123,c)
);
},
{
closed = 1;
nodes = (
(260,40,o),
(308,59,o),
(343,97,c),
(378,134,o),
(395,185,o),
(395,249,c),
(395,294,o),
(388,333,o),
(373,364,c),
(540,364,l),
(540,311,o),
(551,262,o),
(572,217,c),
(593,171,o),
(623,133,o),
(662,103,c),
(701,73,o),
(748,56,o),
(801,53,c),
(801,156,l),
(801,325,o),
(827,486,o),
(880,639,c),
(908,714,o),
(945,779,o),
(990,836,c),
(898,836,l),
(839,759,o),
(795,657,o),
(765,528,c),
(738,410,o),
(724,286,o),
(724,156,c),
(665,191,o),
(631,246,o),
(622,321,c),
(617,358,o),
(614,399,o),
(614,444,c),
(0,444,l),
(0,364,l),
(20,364,l),
(7,333,o),
(0,294,o),
(0,249,c),
(3,110,o),
(69,40,o),
(197,40,c)
);
}
);
width = 1000;
}
);
},
{
export = 0;
glyphname = _Ch.init;
layers = (
{
layerId = "E14AE757-7134-4DB9-897C-AD248BACE90D";
shapes = (
{
closed = 1;
nodes = (
(162,16,l),
(193,35,o),
(226,48,o),
(262,54,c),
(297,60,o),
(342,63,o),
(397,63,c),
(518,63,l),
(518,129,l),
(491,205,o),
(477,283,o),
(477,364,c),
(722,364,l),
(722,444,l),
(63,444,l),
(45,364,l),
(403,364,l),
(403,281,o),
(413,208,o),
(433,143,c),
(397,143,l),
(341,143,o),
(295,140,o),
(259,135,c),
(222,130,o),
(190,118,o),
(162,101,c)
);
}
);
width = 692;
}
);
},
{
export = 0;
glyphname = _Ch.medi;
layers = (
{
layerId = "E14AE757-7134-4DB9-897C-AD248BACE90D";
shapes = (
{
closed = 1;
nodes = (
(0,16,l),
(31,35,o),
(64,48,o),
(100,54,c),
(135,60,o),
(180,63,o),
(235,63,c),
(356,63,l),
(356,129,l),
(329,205,o),
(315,283,o),
(315,364,c),
(560,364,l),
(560,444,l),
(0,444,l),
(0,364,l),
(241,364,l),
(241,280,o),
(251,206,o),
(271,143,c),
(235,143,l),
(178,143,o),
(131,140,o),
(95,135,c),
(59,130,o),
(27,118,o),
(0,101,c)
);
}
);
width = 530;
}
);
},
{
export = 0;
glyphname = _Ch.fina;
layers = (
{
layerId = "E14AE757-7134-4DB9-897C-AD248BACE90D";
shapes = (
{
closed = 1;
nodes = (
(0,16,l),
(31,35,o),
(64,48,o),
(100,54,c),
(135,60,o),
(180,63,o),
(235,63,c),
(356,63,l),
(356,129,l),
(329,205,o),
(315,283,o),
(315,364,c),
(560,364,l),
(595,364,o),
(620,357,o),
(635,343,c),
(650,328,o),
(658,307,o),
(658,279,c),
(658,235,o),
(651,196,o),
(636,162,c),
(710,162,l),
(727,196,o),
(735,235,o),
(735,279,c),
(736,389,o),
(677,444,o),
(560,444,c),
(0,444,l),
(0,364,l),
(241,364,l),
(241,280,o),
(251,206,o),
(271,143,c),
(235,143,l),
(178,143,o),
(131,140,o),
(95,135,c),
(59,130,o),
(27,118,o),
(0,101,c)
);
}
);
width = 780;
}
);
},
{
export = 0;
glyphname = _J.medi;
layers = (
{
layerId = "E14AE757-7134-4DB9-897C-AD248BACE90D";
shapes = (
{
closed = 1;
nodes = (
(0,5,l),
(43,44,o),
(89,77,o),
(137,103,c),
(245,161,l),
(316,196,o),
(351,263,o),
(351,364,c),
(560,364,l),
(560,444,l),
(0,444,l),
(0,364,l),
(274,364,l),
(274,328,o),
(268,299,o),
(256,278,c),
(244,256,o),
(224,237,o),
(196,222,c),
(114,178,l),
(62,150,o),
(24,124,o),
(0,100,c)
);
}
);
width = 530;
}
);
},
{
export = 0;
glyphname = _J.fina;
layers = (
{
layerId = "E14AE757-7134-4DB9-897C-AD248BACE90D";
shapes = (
{
closed = 1;
nodes = (
(0,5,l),
(43,44,o),
(89,77,o),
(137,103,c),
(245,161,l),
(316,196,o),
(351,263,o),
(351,364,c),
(560,364,l),
(595,364,o),
(620,357,o),
(635,343,c),
(650,328,o),
(658,307,o),
(658,279,c),
(658,235,o),
(651,196,o),
(636,162,c),
(710,162,l),
(727,196,o),
(735,235,o),
(735,279,c),
(736,389,o),
(677,444,o),
(560,444,c),
(0,444,l),
(0,364,l),
(274,364,l),
(274,328,o),
(268,299,o),
(256,278,c),
(244,256,o),
(224,237,o),
(196,222,c),
(114,178,l),
(61,149,o),
(23,123,o),
(0,100,c)
);
}
);
width = 780;
}
);
},
{
export = 0;
glyphname = _Y.init;
layers = (
{
layerId = "E14AE757-7134-4DB9-897C-AD248BACE90D";
shapes = (
{
closed = 1;
nodes = (
(125,-119,l),
(178,-79,o),
(234,-42,o),
(293,-7,c),
(226,124,o),
(174,247,o),
(138,364,c),
(451,364,l),
(451,444,l),
(45,444,l),
(60,355,o),
(87,260,o),
(127,161,c),
(146,113,o),
(165,68,o),
(186,25,c),
(151,-4,o),
(118,-36,o),
(87,-70,c)
);
}
);
width = 421;
}
);
},
{
export = 0;
glyphname = _Y.medi;
layers = (
{
layerId = "E14AE757-7134-4DB9-897C-AD248BACE90D";
shapes = (
{
closed = 1;
nodes = (
(65,-119,l),
(118,-79,o),
(174,-42,o),
(233,-7,c),
(166,124,o),
(114,247,o),
(78,364,c),
(391,364,l),
(391,444,l),
(0,444,l),
(0,364,l),
(29,252,o),
(71,139,o),
(126,25,c),
(91,-4,o),
(58,-36,o),
(27,-70,c)
);
}
);
width = 361;
}
);
},
{
export = 0;
glyphname = _R.init;
layers = (
{
layerId = "E14AE757-7134-4DB9-897C-AD248BACE90D";
shapes = (
{
closed = 1;
nodes = (
(196,6,o),
(214,-30,o),
(233,-67,c),
(306,-31,l),
(233,99,o),
(177,231,o),
(139,364,c),
(451,364,l),
(451,444,l),
(45,444,l),
(60,353,o),
(85,265,o),
(118,182,c),
(138,134,l),
(115,97,l),
(92,58,o),
(73,16,o),
(58,-28,c),
(112,-59,l),
(119,-47,o),
(135,-22,o),
(160,16,c),
(166,26,o),
(173,35,o),
(179,43,c)
);
}
);
width = 421;
}
);
},
{
export = 0;
glyphname = _R.medi;
layers = (
{
layerId = "E14AE757-7134-4DB9-897C-AD248BACE90D";
shapes = (
{
closed = 1;
nodes = (
(135,6,o),
(153,-30,o),
(173,-67,c),
(246,-31,l),
(173,99,o),
(117,231,o),
(79,364,c),
(391,364,l),
(391,444,l),
(0,444,l),
(0,364,l),
(20,288,o),
(46,211,o),
(78,134,c),
(55,97,l),
(32,58,o),
(13,16,o),
(-2,-28,c),
(52,-59,l),
(58,-47,o),
(74,-22,o),
(100,16,c),
(106,25,o),
(112,34,o),
(118,42,c)
);
}
);
width = 361;
}
);
},
{
export = 0;
glyphname = _R.fina;
layers = (
{
layerId = "E14AE757-7134-4DB9-897C-AD248BACE90D";
shapes = (
{
closed = 1;
nodes = (
(79,120,o),
(101,81,o),
(127,42,c),
(198,85,l),
(157,142,o),
(126,196,o),
(107,246,c),
(87,296,o),
(77,350,o),
(77,407,c),
(77,486,o),
(90,545,o),
(116,585,c),
(142,624,o),
(179,644,o),
(226,644,c),
(314,644,o),
(364,555,o),
(376,376,c),
(456,386,l),
(450,485,o),
(430,565,o),
(396,625,c),
(356,693,o),
(299,727,o),
(226,727,c),
(177,727,o),
(135,713,o),
(101,686,c),
(67,659,o),
(41,620,o),
(24,570,c),
(7,521,o),
(-2,467,o),
(-2,407,c),
(-2,357,o),
(6,306,o),
(23,253,c),
(-4,210,l),
(-27,171,o),
(-46,129,o),
(-61,85,c),
(-7,54,l),
(-1,66,o),
(15,91,o),
(41,129,c),
(48,139,o),
(54,149,o),
(60,157,c)
);
}
);
width = 501;
}
);
},
{
export = 0;
glyphname = _W.init;
layers = (
{
layerId = "E14AE757-7134-4DB9-897C-AD248BACE90D";
shapes = (
{
closed = 1;
nodes = (
(410,-119,o),
(438,-108,o),
(454,-85,c),
(454,6,l),
(436,-22,o),
(408,-36,o),
(371,-36,c),
(350,-36,o),
(331,-28,o),
(314,-12,c),
(297,4,o),
(280,27,o),
(264,58,c),
(249,87,o),
(233,118,o),
(218,152,c),
(188,220,o),
(162,291,o),
(141,364,c),
(550,364,l),
(550,444,l),
(45,444,l),
(70,311,o),
(116,176,o),
(181,41,c),
(206,-12,o),
(233,-52,o),
(262,-79,c),
(291,-106,o),
(328,-119,o),
(371,-119,c)
);
}
);
width = 520;
}
);
},
{
export = 0;
glyphname = _W.medi;
layers = (
{
layerId = "E14AE757-7134-4DB9-897C-AD248BACE90D";
shapes = (
{
closed = 1;
nodes = (
(348,-119,o),
(376,-108,o),
(392,-85,c),
(392,6,l),
(374,-22,o),
(346,-36,o),
(309,-36,c),
(288,-36,o),
(269,-28,o),
(252,-12,c),
(235,4,o),
(218,27,o),
(202,58,c),
(187,87,o),
(171,118,o),
(156,152,c),
(126,220,o),
(100,291,o),
(79,364,c),
(488,364,l),
(488,444,l),
(0,444,l),
(0,364,l),
(19,295,o),
(42,226,o),
(68,157,c),
(115,35,o),
(162,-45,o),
(207,-84,c),
(234,-107,o),
(268,-119,o),
(309,-119,c)
);
}
);
width = 458;
}
);
},
{
export = 0;
glyphname = _W.fina;
layers = (
{
layerId = "E14AE757-7134-4DB9-897C-AD248BACE90D";
shapes = (
{
closed = 1;
nodes = (
(348,-119,o),
(376,-108,o),
(392,-85,c),
(392,6,l),
(374,-22,o),
(346,-36,o),
(309,-36,c),
(288,-36,o),
(269,-28,o),
(252,-12,c),
(235,4,o),
(218,27,o),
(202,58,c),
(187,87,o),
(171,118,o),
(156,152,c),
(126,220,o),
(100,291,o),
(79,364,c),
(488,364,l),
(523,364,o),
(548,357,o),
(563,343,c),
(578,328,o),
(586,307,o),
(586,279,c),
(586,234,o),
(579,195,o),
(564,162,c),
(638,162,l),
(655,198,o),
(663,237,o),
(663,279,c),
(664,389,o),
(605,444,o),
(488,444,c),
(0,444,l),
(0,364,l),
(19,295,o),
(42,226,o),
(68,157,c),
(113,36,o),
(159,-45,o),
(206,-84,c),
(234,-107,o),
(268,-119,o),
(309,-119,c)
);
}
);
width = 708;
}
);
},
{
export = 0;
glyphname = _F.init;
layers = (
{
layerId = "E14AE757-7134-4DB9-897C-AD248BACE90D";
shapes = (
{
closed = 1;
nodes = (
(173,123,o),
(127,203,o),
(124,364,c),
(362,364,l),
(369,346,o),
(372,316,o),
(372,275,c),
(372,230,o),
(363,194,o),
(345,166,c),
(326,137,o),
(299,123,o),
(264,123,c)
);
},
{
closed = 1;
nodes = (
(289,-182,l),
(264,-147,o),
(251,-108,o),
(251,-63,c),
(251,-26,o),
(258,9,o),
(271,40,c),
(275,40,l),
(342,40,o),
(393,78,o),
(428,153,c),
(443,189,o),
(451,229,o),
(451,274,c),
(451,294,o),
(449,323,o),
(444,360,c),
(439,397,o),
(434,425,o),
(428,444,c),
(124,444,l),
(126,545,o),
(158,619,o),
(220,666,c),
(252,688,o),
(290,699,o),
(335,699,c),
(402,699,o),
(455,670,o),
(494,611,c),
(533,552,o),
(554,470,o),
(557,364,c),
(631,364,l),
(631,476,o),
(606,574,o),
(557,657,c),
(532,697,o),
(501,728,o),
(464,750,c),
(427,771,o),
(384,782,o),
(336,782,c),
(273,782,o),
(219,766,o),
(176,735,c),
(132,704,o),
(99,659,o),
(77,601,c),
(56,544,o),
(45,480,o),
(45,408,c),
(45,202,o),
(97,83,o),
(201,50,c),
(180,13,o),
(169,-25,o),
(169,-64,c),
(169,-113,o),
(179,-152,o),
(199,-182,c)
);
}
);
width = 557;
}
);
},
{
export = 0;
glyphname = _F.medi;
layers = (
{
layerId = "E14AE757-7134-4DB9-897C-AD248BACE90D";
shapes = (
{
closed = 1;
nodes = (
(127,123,o),
(81,203,o),
(78,364,c),
(316,364,l),
(323,346,o),
(326,316,o),
(326,275,c),
(326,230,o),
(317,194,o),
(299,166,c),
(280,137,o),
(253,123,o),
(218,123,c)
);
},
{
closed = 1;
nodes = (
(243,-182,l),
(218,-147,o),
(205,-108,o),
(205,-63,c),
(205,-26,o),
(212,9,o),
(225,40,c),
(229,40,l),
(296,40,o),
(347,78,o),
(382,153,c),
(397,189,o),
(405,229,o),
(405,274,c),
(405,294,o),
(403,323,o),
(398,360,c),
(393,397,o),
(388,425,o),
(382,444,c),
(78,444,l),
(80,545,o),
(112,619,o),
(174,666,c),
(206,688,o),
(244,699,o),
(289,699,c),
(356,699,o),
(409,670,o),
(448,611,c),
(487,552,o),
(508,470,o),
(511,364,c),
(585,364,l),
(585,476,o),
(560,574,o),
(511,657,c),
(486,697,o),
(455,728,o),
(418,750,c),
(381,771,o),
(338,782,o),
(290,782,c),
(227,782,o),
(173,766,o),
(130,735,c),
(86,704,o),
(53,659,o),
(31,601,c),
(10,544,o),
(-1,480,o),
(-1,408,c),
(-1,202,o),
(51,83,o),
(155,50,c),
(134,13,o),
(123,-25,o),
(123,-64,c),
(123,-113,o),
(133,-152,o),
(153,-182,c)
);
}
);
width = 511;
}
);
},
{
export = 0;
glyphname = _F.fina;
layers = (
{
layerId = "E14AE757-7134-4DB9-897C-AD248BACE90D";
shapes = (
{
closed = 1;
nodes = (
(127,123,o),
(81,203,o),
(78,364,c),
(316,364,l),
(323,344,o),
(326,314,o),
(326,275,c),
(326,230,o),
(317,194,o),
(299,166,c),
(280,137,o),
(253,123,o),
(218,123,c)
);
},
{
closed = 1;
nodes = (
(479,-264,l),
(465,-237,o),
(458,-212,o),
(458,-187,c),
(458,-143,o),
(469,-104,o),
(492,-71,c),
(503,-52,o),
(518,-31,o),
(536,-7,c),
(593,68,o),
(636,137,o),
(663,199,c),
(689,258,o),
(702,321,o),
(702,390,c),
(702,553,o),
(647,668,o),
(537,735,c),
(484,766,o),
(419,782,o),
(344,782,c),
(197,782,o),
(96,724,o),
(39,608,c),
(12,552,o),
(-1,485,o),
(-1,408,c),
(-1,202,o),
(51,83,o),
(155,50,c),
(134,13,o),
(123,-25,o),
(123,-64,c),
(123,-113,o),
(133,-152,o),
(153,-182,c),
(243,-182,l),
(218,-147,o),
(205,-108,o),
(205,-63,c),
(205,-26,o),
(212,9,o),
(225,40,c),
(228,40,l),
(296,40,o),
(347,78,o),
(382,154,c),
(397,190,o),
(405,230,o),
(405,275,c),
(405,296,o),
(403,325,o),
(398,362,c),
(393,398,o),
(388,425,o),
(382,444,c),
(78,444,l),
(81,525,o),
(105,588,o),
(152,633,c),
(199,677,o),
(263,699,o),
(344,699,c),
(433,699,o),
(501,672,o),
(550,617,c),
(599,562,o),
(623,486,o),
(623,388,c),
(623,331,o),
(613,279,o),
(594,230,c),
(575,183,o),
(539,123,o),
(484,50,c),
(447,3,o),
(421,-39,o),
(404,-74,c),
(387,-110,o),
(378,-148,o),
(378,-187,c),
(378,-214,o),
(384,-239,o),
(397,-264,c)
);
}
);
width = 747;
}
);
},
{
export = 0;
glyphname = _K.init;
layers = (
{
layerId = "E14AE757-7134-4DB9-897C-AD248BACE90D";
shapes = (
{
closed = 1;
nodes = (
(245,85,l),
(175,180,o),
(135,273,o),
(125,364,c),
(285,364,l),
(285,444,l),
(125,444,l),
(129,509,o),
(144,559,o),
(170,593,c),
(195,627,o),
(230,644,o),
(273,644,c),
(312,644,o),
(342,633,o),
(364,610,c),
(385,587,o),
(401,554,o),
(410,510,c),
(419,468,o),
(425,419,o),
(428,364,c),
(502,364,l),
(498,487,o),
(477,579,o),
(440,638,c),
(403,697,o),
(347,727,o),
(273,727,c),
(181,727,o),
(114,677,o),
(73,576,c),
(54,529,o),
(45,472,o),
(45,407,c),
(45,292,o),
(88,171,o),
(174,42,c)
);
}
);
width = 428;
}
);
},
{
export = 0;
glyphname = _K.medi;
layers = (
{
layerId = "E14AE757-7134-4DB9-897C-AD248BACE90D";
shapes = (
{
closed = 1;
nodes = (
(198,85,l),
(128,180,o),
(88,273,o),
(78,364,c),
(238,364,l),
(238,444,l),
(78,444,l),
(82,509,o),
(97,559,o),
(123,593,c),
(148,627,o),
(183,644,o),
(226,644,c),
(265,644,o),
(295,633,o),
(317,610,c),
(338,587,o),
(354,554,o),
(363,510,c),
(372,468,o),
(378,419,o),
(381,364,c),
(455,364,l),
(451,487,o),
(430,579,o),
(393,638,c),
(356,697,o),
(300,727,o),
(226,727,c),
(134,727,o),
(67,677,o),
(26,576,c),
(7,529,o),
(-2,472,o),
(-2,407,c),
(-2,292,o),
(41,171,o),
(127,42,c)
);
}
);
width = 381;
}
);
},
{
export = 0;
glyphname = _K.fina;
layers = (
{
layerId = "E14AE757-7134-4DB9-897C-AD248BACE90D";
shapes = (
{
closed = 1;
nodes = (
(341,-264,l),
(327,-237,o),
(320,-212,o),
(320,-187,c),
(320,-156,o),
(326,-127,o),
(339,-101,c),
(352,-76,o),
(373,-44,o),
(403,-7,c),
(452,54,o),
(490,111,o),
(518,163,c),
(556,229,o),
(575,304,o),
(575,388,c),
(575,523,o),
(532,622,o),
(445,684,c),
(402,713,o),
(348,727,o),
(284,727,c),
(165,727,o),
(81,677,o),
(32,576,c),
(9,529,o),
(-2,472,o),
(-2,407,c),
(-2,292,o),
(41,171,o),
(127,42,c),
(198,85,l),
(126,184,o),
(86,277,o),
(79,364,c),
(238,364,l),
(238,444,l),
(78,444,l),
(85,510,o),
(106,560,o),
(141,594,c),
(176,627,o),
(224,644,o),
(284,644,c),
(352,644,o),
(405,621,o),
(442,575,c),
(479,529,o),
(497,467,o),
(497,388,c),
(497,307,o),
(477,236,o),
(438,174,c),
(415,135,o),
(385,94,o),
(350,50,c),
(312,3,o),
(284,-37,o),
(267,-72,c),
(249,-107,o),
(240,-146,o),
(240,-187,c),
(240,-213,o),
(246,-239,o),
(259,-264,c)
);
}
);
width = 620;
}
);
},
{
export = 0;
glyphname = _K2.init;
layers = (
{
layerId = "E14AE757-7134-4DB9-897C-AD248BACE90D";
shapes = (
{
closed = 1;
nodes = (
(306,90,l),
(185,221,o),
(124,330,o),
(124,419,c),
(124,511,o),
(145,576,o),
(187,614,c),
(209,634,o),
(238,644,o),
(274,644,c),
(313,644,o),
(343,633,o),
(365,610,c),
(386,587,o),
(402,554,o),
(411,510,c),
(420,468,o),
(426,419,o),
(429,364,c),
(503,364,l),
(499,487,o),
(478,579,o),
(441,638,c),
(404,697,o),
(348,727,o),
(274,727,c),
(225,727,o),
(183,714,o),
(149,688,c),
(114,662,o),
(88,625,o),
(71,577,c),
(54,531,o),
(45,478,o),
(45,419,c),
(45,96,l),
(111,96,l),
(119,215,l),
(146,158,o),
(187,98,o),
(244,35,c)
);
}
);
width = 429;
}
);
},
{
export = 0;
glyphname = _K2.medi;
layers = (
{
layerId = "E14AE757-7134-4DB9-897C-AD248BACE90D";
shapes = (
{
closed = 1;
nodes = (
(261,90,l),
(140,221,o),
(79,330,o),
(79,419,c),
(79,511,o),
(100,576,o),
(142,614,c),
(164,634,o),
(193,644,o),
(229,644,c),
(268,644,o),
(298,633,o),
(320,610,c),
(341,587,o),
(357,554,o),
(366,510,c),
(375,468,o),
(381,419,o),
(384,364,c),
(458,364,l),
(454,487,o),
(433,579,o),
(396,638,c),
(359,697,o),
(303,727,o),
(229,727,c),
(180,727,o),
(138,714,o),
(104,688,c),
(69,662,o),
(43,625,o),
(26,577,c),
(9,531,o),
(0,478,o),
(0,419,c),
(0,96,l),
(66,96,l),
(74,215,l),
(101,158,o),
(142,98,o),
(199,35,c)
);
}
);
width = 384;
}
);
},
{
export = 0;
glyphname = _K2.fina;
layers = (
{
layerId = "E14AE757-7134-4DB9-897C-AD248BACE90D";
shapes = (
{
closed = 1;
nodes = (
(341,-264,l),
(327,-237,o),
(320,-212,o),
(320,-187,c),
(320,-156,o),
(326,-127,o),
(339,-101,c),
(352,-76,o),
(373,-44,o),
(403,-7,c),
(479,87,o),
(530,173,o),
(555,250,c),
(568,293,o),
(575,339,o),
(575,388,c),
(575,523,o),
(532,622,o),
(445,684,c),
(402,713,o),
(348,727,o),
(284,727,c),
(169,727,o),
(86,679,o),
(35,583,c),
(12,537,o),
(0,482,o),
(0,419,c),
(0,96,l),
(66,96,l),
(74,215,l),
(94,171,o),
(125,124,o),
(166,73,c),
(228,128,l),
(165,201,o),
(123,265,o),
(100,320,c),
(86,353,o),
(79,386,o),
(79,419,c),
(79,490,o),
(97,546,o),
(132,585,c),
(167,624,o),
(218,644,o),
(284,644,c),
(352,644,o),
(405,621,o),
(442,575,c),
(479,529,o),
(497,467,o),
(497,388,c),
(497,304,o),
(476,229,o),
(433,164,c),
(411,129,o),
(383,91,o),
(350,50,c),
(312,3,o),
(284,-37,o),
(267,-72,c),
(249,-107,o),
(240,-146,o),
(240,-187,c),
(240,-213,o),
(246,-239,o),
(259,-264,c)
);
}
);
width = 620;
}
);
},
{
export = 0;
glyphname = _C.init;
layers = (
{
layerId = "E14AE757-7134-4DB9-897C-AD248BACE90D";
shapes = (
{
closed = 1;
nodes = (
(569,-99,o),
(552,-90,o),
(539,-73,c),
(526,-56,o),
(517,-34,o),
(512,-8,c),
(528,22,o),
(552,37,o),
(585,37,c),
(607,37,o),
(624,31,o),
(637,18,c),
(650,5,o),
(656,-12,o),
(656,-32,c),
(653,-77,o),
(630,-99,o),
(589,-99,c)
);
},
{
closed = 1;
nodes = (
(627,-171,o),
(661,-159,o),
(687,-134,c),
(713,-109,o),
(726,-75,o),
(726,-32,c),
(726,6,o),
(714,38,o),
(691,63,c),
(667,88,o),
(635,100,o),
(595,100,c),
(558,100,o),
(528,87,o),
(504,62,c),
(501,63,l),
(499,93,l),
(497,125,l),
(497,212,o),
(508,292,o),
(531,364,c),
(847,364,l),
(847,444,l),
(63,444,l),
(45,364,l),
(456,364,l),
(437,291,o),
(428,217,o),
(428,143,c),
(397,143,l),
(341,143,o),
(295,140,o),
(259,135,c),
(222,130,o),
(190,118,o),
(162,101,c),
(162,16,l),
(193,35,o),
(226,48,o),
(262,54,c),
(297,60,o),
(342,63,o),
(397,63,c),
(429,63,l),
(434,-24,o),
(459,-91,o),
(502,-138,c),
(525,-160,o),
(552,-171,o),
(585,-171,c)
);
}
);
width = 817;
}
);
},
{
export = 0;
glyphname = _C.medi;
layers = (
{
layerId = "E14AE757-7134-4DB9-897C-AD248BACE90D";
shapes = (
{
closed = 1;
nodes = (
(407,-99,o),
(390,-90,o),
(377,-73,c),
(364,-56,o),
(355,-34,o),
(350,-8,c),
(366,22,o),
(390,37,o),
(423,37,c),
(445,37,o),
(462,31,o),
(475,18,c),
(488,5,o),
(494,-11,o),
(494,-32,c),
(491,-77,o),
(468,-99,o),
(427,-99,c)
);
},
{
closed = 1;
nodes = (
(465,-171,o),
(499,-158,o),
(525,-133,c),
(551,-108,o),
(564,-75,o),
(564,-32,c),
(564,6,o),
(552,38,o),
(529,63,c),
(505,88,o),
(473,100,o),
(433,100,c),
(396,100,o),
(366,87,o),
(342,62,c),
(339,63,l),
(336,82,o),
(335,102,o),
(335,125,c),
(335,212,o),
(346,292,o),
(369,364,c),
(685,364,l),
(685,444,l),
(0,444,l),
(0,364,l),
(294,364,l),
(275,298,o),
(266,224,o),
(266,143,c),
(235,143,l),
(178,143,o),
(131,140,o),
(95,135,c),
(59,130,o),
(27,118,o),
(0,101,c),
(0,16,l),
(31,35,o),
(64,48,o),
(100,54,c),
(135,60,o),
(180,63,o),
(235,63,c),
(267,63,l),
(272,-24,o),
(296,-91,o),
(340,-138,c),
(363,-160,o),
(390,-171,o),
(423,-171,c)
);
}
);
width = 655;
}
);
},
{
export = 0;
glyphname = _C.fina;
layers = (
{
layerId = "E14AE757-7134-4DB9-897C-AD248BACE90D";
shapes = (
{
closed = 1;
nodes = (
(407,-99,o),
(390,-90,o),
(377,-73,c),
(364,-56,o),
(355,-34,o),
(350,-8,c),
(366,22,o),
(390,37,o),
(423,37,c),
(445,37,o),
(462,31,o),
(475,18,c),
(488,5,o),
(494,-11,o),
(494,-32,c),
(491,-77,o),
(468,-99,o),
(427,-99,c)
);
},
{
closed = 1;
nodes = (
(465,-171,o),
(499,-158,o),
(525,-133,c),
(551,-108,o),
(564,-75,o),
(564,-32,c),
(564,6,o),
(552,38,o),
(529,63,c),
(505,88,o),
(473,100,o),
(433,100,c),
(396,100,o),
(366,87,o),
(342,62,c),
(339,63,l),
(336,82,o),
(335,102,o),
(335,125,c),
(335,212,o),
(346,292,o),
(369,364,c),
(685,364,l),
(720,364,o),
(745,357,o),
(760,343,c),
(775,328,o),
(783,307,o),
(783,279,c),
(783,235,o),
(776,196,o),
(761,162,c),
(835,162,l),
(852,196,o),
(860,235,o),
(860,279,c),
(861,389,o),
(802,444,o),
(685,444,c),
(0,444,l),
(0,364,l),
(294,364,l),
(275,298,o),
(266,224,o),
(266,143,c),
(235,143,l),
(178,143,o),
(131,140,o),
(95,135,c),
(59,130,o),
(27,118,o),
(0,101,c),
(0,16,l),
(31,35,o),
(64,48,o),
(100,54,c),
(135,60,o),
(180,63,o),
(235,63,c),
(267,63,l),
(272,-24,o),
(296,-91,o),
(340,-138,c),
(363,-160,o),
(390,-171,o),
(423,-171,c)
);
}
);
width = 905;
}
);
},
{
export = 0;
glyphname = _Z.init;
layers = (
{
layerId = "E14AE757-7134-4DB9-897C-AD248BACE90D";
shapes = (
{
closed = 1;
nodes = (
(651,-119,o),
(679,-108,o),
(696,-85,c),
(696,6,l),
(677,-22,o),
(649,-36,o),
(614,-36,c),
(562,-36,o),
(528,-6,o),
(512,55,c),
(505,83,o),
(501,115,o),
(501,151,c),
(501,216,o),
(511,287,o),
(531,364,c),
(770,364,l),
(770,444,l),
(63,444,l),
(45,364,l),
(456,364,l),
(437,291,o),
(428,217,o),
(428,143,c),
(397,143,l),
(341,143,o),
(295,140,o),
(259,135,c),
(222,130,o),
(190,118,o),
(162,101,c),
(162,16,l),
(193,35,o),
(226,48,o),
(262,54,c),
(297,60,o),
(342,63,o),
(397,63,c),
(432,63,l),
(440,6,o),
(459,-38,o),
(490,-70,c),
(521,-103,o),
(561,-119,o),
(611,-119,c)
);
}
);
width = 740;
}
);
},
{
export = 0;
glyphname = _Z.medi;
layers = (
{
layerId = "E14AE757-7134-4DB9-897C-AD248BACE90D";
shapes = (
{
closed = 1;
nodes = (
(489,-119,o),
(517,-108,o),
(534,-85,c),
(534,6,l),
(513,-22,o),
(486,-36,o),
(452,-36,c),
(400,-36,o),
(366,-6,o),
(350,55,c),
(343,83,o),
(339,115,o),
(339,151,c),
(339,217,o),
(349,288,o),
(369,364,c),
(608,364,l),
(608,444,l),
(0,444,l),
(0,364,l),
(294,364,l),
(275,298,o),
(266,224,o),
(266,143,c),
(235,143,l),
(178,143,o),
(131,140,o),
(95,135,c),
(59,130,o),
(27,118,o),
(0,101,c),
(0,16,l),
(31,35,o),
(64,48,o),
(100,54,c),
(135,60,o),
(180,63,o),
(235,63,c),
(270,63,l),
(291,-58,o),
(350,-119,o),
(449,-119,c)
);
}
);
width = 578;
}
);
},
{
export = 0;
glyphname = _Z.fina;
layers = (
{
layerId = "E14AE757-7134-4DB9-897C-AD248BACE90D";
shapes = (
{
closed = 1;
nodes = (
(489,-119,o),
(517,-108,o),
(534,-85,c),
(534,6,l),
(513,-22,o),
(486,-36,o),
(452,-36,c),
(400,-36,o),
(366,-6,o),
(350,55,c),
(343,83,o),
(339,115,o),
(339,151,c),
(339,217,o),
(349,288,o),
(369,364,c),
(608,364,l),
(643,364,o),
(668,357,o),
(683,343,c),
(698,328,o),
(706,307,o),
(706,279,c),
(706,235,o),
(699,196,o),
(684,162,c),
(758,162,l),
(775,197,o),
(783,236,o),
(783,279,c),
(784,389,o),
(725,444,o),
(608,444,c),
(0,444,l),
(0,364,l),
(294,364,l),
(275,298,o),
(266,224,o),
(266,143,c),
(235,143,l),
(178,143,o),
(131,140,o),
(95,135,c),
(59,130,o),
(27,118,o),
(0,101,c),
(0,16,l),
(31,35,o),
(64,48,o),
(100,54,c),
(135,60,o),
(180,63,o),
(235,63,c),
(270,63,l),
(291,-58,o),
(350,-119,o),
(449,-119,c)
);
}
);
width = 828;
}
);
},
{
export = 0;
glyphname = _Hr.medi;
layers = (
{
layerId = "E14AE757-7134-4DB9-897C-AD248BACE90D";
shapes = (
{
closed = 1;
nodes = (
(409,-57,l),
(335,78,o),
(297,219,o),
(295,364,c),
(551,364,l),
(551,444,l),
(219,444,l),
(219,366,l),
(219,221,o),
(247,94,o),
(303,-17,c),
(179,-72,l),
(110,54,o),
(75,199,o),
(75,364,c),
(75,444,l),
(0,444,l),
(0,364,l),
(0,168,o),
(47,-14,o),
(140,-182,c)
);
}
);
width = 521;
}
);
},
{
export = 0;
glyphname = _Hr.fina;
layers = (
{
layerId = "E14AE757-7134-4DB9-897C-AD248BACE90D";
shapes = (
{
closed = 1;
nodes = (
(409,-57,l),
(335,78,o),
(297,219,o),
(295,364,c),
(551,364,l),
(586,364,o),
(611,357,o),
(626,343,c),
(641,328,o),
(649,307,o),
(649,279,c),
(649,234,o),
(642,195,o),
(627,162,c),
(701,162,l),
(718,198,o),
(726,237,o),
(726,279,c),
(727,389,o),
(668,444,o),
(551,444,c),
(219,444,l),
(219,366,l),
(219,221,o),
(247,94,o),
(303,-17,c),
(179,-72,l),
(110,54,o),
(75,199,o),
(75,364,c),
(75,444,l),
(0,444,l),
(0,364,l),
(0,168,o),
(47,-14,o),
(140,-182,c)
);
}
);
width = 771;
}
);
},
{
export = 0;
glyphname = _Rh.init;
layers = (
{
layerId = "E14AE757-7134-4DB9-897C-AD248BACE90D";
shapes = (
{
closed = 1;
nodes = (
(454,-117,o),
(508,-83,o),
(545,-14,c),
(479,27,l),
(458,-14,o),
(425,-35,o),
(382,-35,c),
(303,-35,o),
(240,8,o),
(192,94,c),
(147,181,o),
(124,274,o),
(124,374,c),
(124,437,o),
(134,495,o),
(154,546,c),
(173,597,o),
(202,638,o),
(239,669,c),
(278,700,o),
(324,715,o),
(379,715,c),
(458,715,o),
(508,674,o),
(527,592,c),
(525,590,l),
(512,599,o),
(497,603,o),
(480,603,c),
(441,603,o),
(398,593,o),
(351,573,c),
(351,500,l),
(392,517,o),
(428,525,o),
(459,525,c),
(488,525,o),
(508,515,o),
(521,496,c),
(534,477,o),
(541,446,o),
(543,404,c),
(567,74,l),
(633,74,l),
(643,219,l),
(646,294,o),
(666,339,o),
(702,352,c),
(721,360,o),
(749,364,o),
(786,364,c),
(863,364,l),
(863,444,l),
(785,444,l),
(701,444,o),
(648,416,o),
(626,361,c),
(622,361,l),
(619,444,l),
(611,676,o),
(531,792,o),
(379,792,c),
(279,792,o),
(198,750,o),
(136,667,c),
(75,584,o),
(45,486,o),
(45,374,c),
(45,251,o),
(74,139,o),
(131,38,c),
(160,-12,o),
(196,-50,o),
(239,-77,c),
(281,-104,o),
(329,-117,o),
(382,-117,c)
);
}
);
width = 833;
}
);
},
{
export = 0;
glyphname = _Rh.medi;
layers = (
{
layerId = "E14AE757-7134-4DB9-897C-AD248BACE90D";
shapes = (
{
closed = 1;
nodes = (
(408,-117,o),
(462,-83,o),
(499,-14,c),
(433,27,l),
(412,-14,o),
(379,-35,o),
(336,-35,c),
(257,-35,o),
(194,8,o),
(146,94,c),
(101,181,o),
(78,274,o),
(78,374,c),
(78,437,o),
(88,495,o),
(108,546,c),
(127,597,o),
(156,638,o),
(193,669,c),
(232,700,o),
(278,715,o),
(333,715,c),
(412,715,o),
(462,674,o),
(481,592,c),
(479,590,l),
(466,599,o),
(451,603,o),
(434,603,c),
(395,603,o),
(352,593,o),
(305,573,c),
(305,500,l),
(346,517,o),
(382,525,o),
(413,525,c),
(442,525,o),
(462,515,o),
(475,496,c),
(488,477,o),
(495,446,o),
(497,404,c),
(521,74,l),
(587,74,l),
(597,219,l),
(600,294,o),
(620,339,o),
(656,352,c),
(675,360,o),
(703,364,o),
(740,364,c),
(817,364,l),
(817,444,l),
(739,444,l),
(655,444,o),
(602,416,o),
(580,361,c),
(576,361,l),
(573,444,l),
(565,676,o),
(485,792,o),
(333,792,c),
(233,792,o),
(152,750,o),
(90,667,c),
(29,584,o),
(-1,486,o),
(-1,374,c),
(-1,251,o),
(28,139,o),
(85,38,c),
(114,-12,o),
(150,-50,o),
(193,-77,c),
(235,-104,o),
(283,-117,o),
(336,-117,c)
);
}
);
width = 787;
}
);
},
{
export = 0;
glyphname = _Rh.fina;
layers = (
{
layerId = "E14AE757-7134-4DB9-897C-AD248BACE90D";
shapes = (
{
closed = 1;
nodes = (
(408,-117,o),
(462,-83,o),
(499,-14,c),
(433,27,l),
(412,-14,o),
(379,-35,o),
(336,-35,c),
(296,-35,o),
(260,-23,o),
(228,0,c),
(195,23,o),
(168,55,o),
(145,96,c),
(100,181,o),
(78,273,o),
(78,372,c),
(78,507,o),
(119,607,o),
(200,672,c),
(238,701,o),
(282,715,o),
(333,715,c),
(412,715,o),
(462,674,o),
(481,592,c),
(479,590,l),
(466,599,o),
(451,603,o),
(434,603,c),
(395,603,o),
(352,593,o),
(305,573,c),
(305,500,l),
(345,517,o),
(381,525,o),
(413,525,c),
(442,525,o),
(462,515,o),
(475,496,c),
(488,477,o),
(495,446,o),
(497,404,c),
(521,74,l),
(587,74,l),
(597,219,l),
(600,294,o),
(619,339,o),
(656,352,c),
(676,360,o),
(704,364,o),
(740,364,c),
(817,364,l),
(852,364,o),
(877,357,o),
(892,343,c),
(907,328,o),
(915,307,o),
(915,279,c),
(915,235,o),
(908,196,o),
(893,162,c),
(967,162,l),
(984,197,o),
(992,236,o),
(992,279,c),
(993,389,o),
(934,444,o),
(817,444,c),
(739,444,l),
(655,444,o),
(602,416,o),
(580,361,c),
(576,361,l),
(573,444,l),
(565,676,o),
(485,792,o),
(333,792,c),
(237,792,o),
(157,752,o),
(93,671,c),
(30,589,o),
(-1,490,o),
(-1,374,c),
(-1,247,o),
(28,134,o),
(86,35,c),
(116,-13,o),
(152,-50,o),
(194,-77,c),
(236,-104,o),
(283,-117,o),
(336,-117,c)
);
}
);
width = 1037;
}
);
},
{
export = 0;
glyphname = _Zr.init;
layers = (
{
layerId = "E14AE757-7134-4DB9-897C-AD248BACE90D";
shapes = (
{
closed = 1;
nodes = (
(454,-57,l),
(380,78,o),
(342,219,o),
(340,364,c),
(596,364,l),
(596,444,l),
(264,444,l),
(264,366,l),
(264,221,o),
(292,94,o),
(348,-17,c),
(224,-72,l),
(155,54,o),
(120,199,o),
(120,364,c),
(120,444,l),
(45,444,l),
(45,364,l),
(45,168,o),
(92,-14,o),
(185,-182,c)
);
}
);
width = 566;
}
);
},
{
export = 0;
glyphname = _Cr.init;
layers = (
{
layerId = "E14AE757-7134-4DB9-897C-AD248BACE90D";
shapes = (
{
closed = 1;
nodes = (
(647,124,o),
(608,166,o),
(608,251,c),
(608,294,o),
(615,332,o),
(628,364,c),
(825,364,l),
(838,332,o),
(845,294,o),
(845,251,c),
(845,209,o),
(835,177,o),
(814,156,c),
(793,134,o),
(763,123,o),
(726,123,c)
);
},
{
closed = 1;
nodes = (
(163,123,o),
(124,169,o),
(124,262,c),
(124,301,o),
(131,335,o),
(144,364,c),
(341,364,l),
(354,332,o),
(361,294,o),
(361,251,c),
(361,209,o),
(351,177,o),
(330,156,c),
(309,134,o),
(279,123,o),
(242,123,c)
);
},
{
closed = 1;
nodes = (
(305,40,o),
(353,59,o),
(388,97,c),
(423,134,o),
(440,185,o),
(440,249,c),
(440,294,o),
(433,333,o),
(420,364,c),
(549,364,l),
(536,331,o),
(529,292,o),
(529,249,c),
(532,110,o),
(598,40,o),
(726,40,c),
(789,40,o),
(837,59,o),
(872,97,c),
(907,134,o),
(924,185,o),
(924,249,c),
(924,296,o),
(917,335,o),
(902,364,c),
(1132,364,l),
(1132,444,l),
(90,444,l),
(60,397,o),
(45,336,o),
(45,260,c),
(45,190,o),
(62,136,o),
(95,98,c),
(128,59,o),
(177,40,o),
(242,40,c)
);
}
);
width = 1102;
}
);
},
{
export = 0;
glyphname = _GA.init;
layers = (
{
layerId = "E14AE757-7134-4DB9-897C-AD248BACE90D";
shapes = (
{
closed = 1;
nodes = (
(245,85,l),
(204,144,o),
(173,200,o),
(154,251,c),
(134,302,o),
(124,358,o),
(124,417,c),
(124,492,o),
(137,549,o),
(164,587,c),
(191,625,o),
(228,644,o),
(275,644,c),
(314,644,o),
(344,633,o),
(365,610,c),
(386,587,o),
(402,554,o),
(411,510,c),
(420,467,o),
(426,418,o),
(430,363,c),
(449,96,l),
(515,96,l),
(534,364,l),
(744,364,l),
(744,444,l),
(503,444,l),
(489,565,o),
(453,648,o),
(396,692,c),
(365,715,o),
(324,727,o),
(274,727,c),
(182,727,o),
(115,679,o),
(74,582,c),
(55,535,o),
(45,480,o),
(45,417,c),
(45,299,o),
(88,174,o),
(174,42,c)
);
}
);
width = 714;
}
);
},
{
export = 0;
glyphname = _GA.medi;
layers = (
{
layerId = "E14AE757-7134-4DB9-897C-AD248BACE90D";
shapes = (
{
closed = 1;
nodes = (
(197,85,l),
(156,144,o),
(125,200,o),
(106,251,c),
(86,302,o),
(76,358,o),
(76,417,c),
(76,492,o),
(89,549,o),
(116,587,c),
(143,625,o),
(180,644,o),
(227,644,c),
(266,644,o),
(296,633,o),
(317,610,c),
(338,587,o),
(354,554,o),
(363,510,c),
(372,467,o),
(378,418,o),
(382,363,c),
(401,96,l),
(467,96,l),
(486,364,l),
(696,364,l),
(696,444,l),
(455,444,l),
(441,565,o),
(405,648,o),
(348,692,c),
(317,715,o),
(276,727,o),
(226,727,c),
(134,727,o),
(67,679,o),
(26,582,c),
(7,535,o),
(-3,480,o),
(-3,417,c),
(-3,299,o),
(40,174,o),
(126,42,c)
);
}
);
width = 666;
}
);
},
{
export = 0;
glyphname = _GAa.isol;
layers = (
{
layerId = "E14AE757-7134-4DB9-897C-AD248BACE90D";
shapes = (
{
closed = 1;
nodes = (
(797,-264,l),
(783,-237,o),
(776,-212,o),
(776,-187,c),
(776,-158,o),
(781,-133,o),
(792,-110,c),
(802,-88,o),
(819,-62,o),
(843,-31,c),
(886,22,o),
(919,71,o),
(942,116,c),
(965,161,o),
(976,204,o),
(976,245,c),
(974,378,o),
(897,444,o),
(745,444,c),
(503,444,l),
(489,565,o),
(453,648,o),
(396,692,c),
(365,715,o),
(324,727,o),
(274,727,c),
(182,727,o),
(115,678,o),
(73,581,c),
(54,536,o),
(45,481,o),
(45,418,c),
(45,299,o),
(88,174,o),
(174,42,c),
(245,85,l),
(204,144,o),
(173,200,o),
(154,251,c),
(134,302,o),
(124,358,o),
(124,417,c),
(124,492,o),
(137,549,o),
(164,587,c),
(190,625,o),
(227,644,o),
(274,644,c),
(313,644,o),
(343,633,o),
(365,610,c),
(386,587,o),
(402,554,o),
(411,510,c),
(420,467,o),
(426,418,o),
(430,361,c),
(449,96,l),
(515,96,l),
(534,364,l),
(744,364,l),
(847,365,o),
(898,325,o),
(898,244,c),
(898,212,o),
(890,180,o),
(873,148,c),
(856,115,o),
(829,75,o),
(791,28,c),
(760,-13,o),
(736,-50,o),
(720,-83,c),
(704,-116,o),
(696,-151,o),
(696,-187,c),
(696,-217,o),
(702,-243,o),
(715,-264,c)
);
}
);
width = 1021;
}
);
},
{
export = 0;
glyphname = _GAa.fina;
layers = (
{
layerId = "E14AE757-7134-4DB9-897C-AD248BACE90D";
shapes = (
{
closed = 1;
nodes = (
(749,-264,l),
(735,-237,o),
(728,-212,o),
(728,-187,c),
(728,-158,o),
(733,-133,o),
(744,-110,c),
(754,-88,o),
(771,-62,o),
(795,-31,c),
(838,22,o),
(871,71,o),
(894,116,c),
(917,161,o),
(928,204,o),
(928,245,c),
(926,378,o),
(849,444,o),
(697,444,c),
(455,444,l),
(441,565,o),
(405,648,o),
(348,692,c),
(317,715,o),
(276,727,o),
(226,727,c),
(134,727,o),
(67,678,o),
(25,581,c),
(6,536,o),
(-3,481,o),
(-3,418,c),
(-3,299,o),
(40,174,o),
(126,42,c),
(197,85,l),
(156,144,o),
(125,200,o),
(106,251,c),
(86,302,o),
(76,358,o),
(76,417,c),
(76,492,o),
(89,549,o),
(116,587,c),
(142,625,o),
(179,644,o),
(226,644,c),
(265,644,o),
(295,633,o),
(317,610,c),
(338,587,o),
(354,554,o),
(363,510,c),
(372,467,o),
(378,418,o),
(382,361,c),
(401,96,l),
(467,96,l),
(486,364,l),
(696,364,l),
(799,365,o),
(850,325,o),
(850,244,c),
(850,212,o),
(842,180,o),
(825,148,c),
(808,115,o),
(781,75,o),
(743,28,c),
(712,-13,o),
(688,-50,o),
(672,-83,c),
(656,-116,o),
(648,-151,o),
(648,-187,c),
(648,-217,o),
(654,-243,o),
(667,-264,c)
);
}
);
width = 973;
}
);
},
{
export = 0;
glyphname = _GxA.init;
layers = (
{
layerId = "E14AE757-7134-4DB9-897C-AD248BACE90D";
shapes = (
{
closed = 1;
nodes = (
(399,-196,l),
(434,-160,o),
(480,-121,o),
(538,-80,c),
(477,-11,l),
(438,-50,o),
(397,-99,o),
(356,-157,c)
);
},
{
closed = 1;
nodes = (
(245,85,l),
(204,144,o),
(173,200,o),
(154,251,c),
(134,302,o),
(124,358,o),
(124,417,c),
(124,492,o),
(137,549,o),
(164,587,c),
(191,625,o),
(228,644,o),
(275,644,c),
(314,644,o),
(344,633,o),
(365,610,c),
(386,587,o),
(402,554,o),
(411,510,c),
(420,467,o),
(426,418,o),
(430,363,c),
(449,96,l),
(515,96,l),
(534,364,l),
(744,364,l),
(744,444,l),
(503,444,l),
(489,565,o),
(453,648,o),
(396,692,c),
(365,715,o),
(324,727,o),
(274,727,c),
(182,727,o),
(115,679,o),
(74,582,c),
(55,535,o),
(45,480,o),
(45,417,c),
(45,299,o),
(88,174,o),
(174,42,c)
);
},
{
closed = 1;
nodes = (
(184,-196,l),
(219,-160,o),
(265,-121,o),
(323,-80,c),
(262,-11,l),
(223,-50,o),
(182,-99,o),
(141,-157,c)
);
}
);
width = 714;
}
);
},
{
export = 0;
glyphname = _GxA.medi;
layers = (
{
layerId = "E14AE757-7134-4DB9-897C-AD248BACE90D";
shapes = (
{
closed = 1;
nodes = (
(350,-196,l),
(385,-160,o),
(431,-121,o),
(489,-80,c),
(428,-11,l),
(389,-50,o),
(348,-99,o),
(307,-157,c)
);
},
{
closed = 1;
nodes = (
(197,85,l),
(156,144,o),
(125,200,o),
(106,251,c),
(86,302,o),
(76,358,o),
(76,417,c),
(76,492,o),
(89,549,o),
(116,587,c),
(143,625,o),
(180,644,o),
(227,644,c),
(266,644,o),
(296,633,o),
(317,610,c),
(338,587,o),
(354,554,o),
(363,510,c),
(372,467,o),
(378,418,o),
(382,363,c),
(401,96,l),
(467,96,l),
(486,364,l),
(696,364,l),
(696,444,l),
(455,444,l),
(441,565,o),
(405,648,o),
(348,692,c),
(317,715,o),
(276,727,o),
(226,727,c),
(134,727,o),
(67,679,o),
(26,582,c),
(7,535,o),
(-3,480,o),
(-3,417,c),
(-3,299,o),
(40,174,o),
(126,42,c)
);
},
{
closed = 1;
nodes = (
(136,-196,l),
(171,-160,o),
(217,-121,o),
(275,-80,c),
(214,-11,l),
(175,-50,o),
(134,-99,o),
(93,-157,c)
);
}
);
width = 666;
}
);
},
{
export = 0;
glyphname = _GxAa.isol;
layers = (
{
layerId = "E14AE757-7134-4DB9-897C-AD248BACE90D";
shapes = (
{
closed = 1;
nodes = (
(399,-196,l),
(434,-160,o),
(480,-121,o),
(538,-80,c),
(477,-11,l),
(438,-50,o),
(397,-99,o),
(356,-157,c)
);
},
{
closed = 1;
nodes = (
(797,-264,l),
(783,-237,o),
(776,-212,o),
(776,-187,c),
(776,-158,o),
(781,-133,o),
(792,-110,c),
(802,-88,o),
(819,-62,o),
(843,-31,c),
(886,22,o),
(919,71,o),
(942,116,c),
(965,161,o),
(976,204,o),
(976,245,c),
(974,378,o),
(897,444,o),
(745,444,c),
(503,444,l),
(489,565,o),
(453,648,o),
(396,692,c),
(365,715,o),
(324,727,o),
(274,727,c),
(182,727,o),
(115,678,o),
(73,581,c),
(54,536,o),
(45,481,o),
(45,418,c),
(45,299,o),
(88,174,o),
(174,42,c),
(245,85,l),
(204,144,o),
(173,200,o),
(154,251,c),
(134,302,o),
(124,358,o),
(124,417,c),
(124,492,o),
(137,549,o),
(164,587,c),
(190,625,o),
(227,644,o),
(274,644,c),
(313,644,o),
(343,633,o),
(365,610,c),
(386,587,o),
(402,554,o),
(411,510,c),
(420,467,o),
(426,418,o),
(430,361,c),
(449,96,l),
(515,96,l),
(534,364,l),
(744,364,l),
(847,365,o),
(898,325,o),
(898,244,c),
(898,212,o),
(890,180,o),
(873,148,c),
(856,115,o),
(829,75,o),
(791,28,c),
(760,-13,o),
(736,-50,o),
(720,-83,c),
(704,-116,o),
(696,-151,o),
(696,-187,c),
(696,-217,o),
(702,-243,o),
(715,-264,c)
);
},
{
closed = 1;
nodes = (
(184,-196,l),
(219,-160,o),
(265,-121,o),
(323,-80,c),
(262,-11,l),
(223,-50,o),
(182,-99,o),
(141,-157,c)
);
}
);
width = 1021;
}
);
},
{
export = 0;
glyphname = _GxAa.fina;
layers = (
{
layerId = "E14AE757-7134-4DB9-897C-AD248BACE90D";
shapes = (
{
closed = 1;
nodes = (
(351,-196,l),
(386,-160,o),
(432,-121,o),
(490,-80,c),
(429,-11,l),
(390,-50,o),
(349,-99,o),
(308,-157,c)
);
},
{
closed = 1;
nodes = (
(749,-264,l),
(735,-237,o),
(728,-212,o),
(728,-187,c),
(728,-158,o),
(733,-133,o),
(744,-110,c),
(754,-88,o),
(771,-62,o),
(795,-31,c),
(838,22,o),
(871,71,o),
(894,116,c),
(917,161,o),
(928,204,o),
(928,245,c),
(926,378,o),
(849,444,o),
(697,444,c),
(455,444,l),
(441,565,o),
(405,648,o),
(348,692,c),
(317,715,o),
(276,727,o),
(226,727,c),
(134,727,o),
(67,678,o),
(25,581,c),
(6,536,o),
(-3,481,o),
(-3,418,c),
(-3,299,o),
(40,174,o),
(126,42,c),
(197,85,l),
(156,144,o),
(125,200,o),
(106,251,c),
(86,302,o),
(76,358,o),
(76,417,c),
(76,492,o),
(89,549,o),
(116,587,c),
(142,625,o),
(179,644,o),
(226,644,c),
(265,644,o),
(295,633,o),
(317,610,c),
(338,587,o),
(354,554,o),
(363,510,c),
(372,467,o),
(378,418,o),
(382,361,c),
(401,96,l),
(467,96,l),
(486,364,l),
(696,364,l),
(799,365,o),
(850,325,o),
(850,244,c),
(850,212,o),
(842,180,o),
(825,148,c),
(808,115,o),
(781,75,o),
(743,28,c),
(712,-13,o),
(688,-50,o),
(672,-83,c),
(656,-116,o),
(648,-151,o),
(648,-187,c),
(648,-217,o),
(654,-243,o),
(667,-264,c)
);
},
{
closed = 1;
nodes = (
(136,-196,l),
(171,-160,o),
(217,-121,o),
(275,-80,c),
(214,-11,l),
(175,-50,o),
(134,-99,o),
(93,-157,c)
);
}
);
width = 973;
}
);
},
{
export = 0;
glyphname = _GI.init;
layers = (
{
layerId = "E14AE757-7134-4DB9-897C-AD248BACE90D";
shapes = (
{
closed = 1;
nodes = (
(695,-31,l),
(613,98,o),
(559,230,o),
(533,364,c),
(840,364,l),
(840,444,l),
(523,444,l),
(509,575,o),
(472,667,o),
(413,720,c),
(381,747,o),
(339,760,o),
(287,760,c),
(235,760,o),
(191,745,o),
(155,716,c),
(118,686,o),
(91,644,o),
(72,590,c),
(54,538,o),
(45,480,o),
(45,417,c),
(45,299,o),
(88,174,o),
(174,42,c),
(245,85,l),
(204,144,o),
(173,200,o),
(154,251,c),
(134,302,o),
(124,358,o),
(124,417,c),
(124,466,o),
(130,509,o),
(141,548,c),
(152,586,o),
(170,617,o),
(193,641,c),
(217,665,o),
(248,677,o),
(287,677,c),
(320,677,o),
(347,669,o),
(368,652,c),
(388,635,o),
(404,608,o),
(416,572,c),
(427,542,o),
(437,491,o),
(447,418,c),
(459,333,o),
(478,252,o),
(505,176,c),
(533,96,o),
(572,15,o),
(622,-67,c)
);
}
);
width = 810;
}
);
},
{
export = 0;
glyphname = _GI.medi;
layers = (
{
layerId = "E14AE757-7134-4DB9-897C-AD248BACE90D";
shapes = (
{
closed = 1;
nodes = (
(647,-31,l),
(565,98,o),
(511,230,o),
(485,364,c),
(792,364,l),
(792,444,l),
(475,444,l),
(461,575,o),
(424,667,o),
(365,720,c),
(333,747,o),
(291,760,o),
(239,760,c),
(187,760,o),
(143,745,o),
(107,716,c),
(70,686,o),
(43,644,o),
(24,590,c),
(6,538,o),
(-3,480,o),
(-3,417,c),
(-3,299,o),
(40,174,o),
(126,42,c),
(197,85,l),
(156,144,o),
(125,200,o),
(106,251,c),
(86,302,o),
(76,358,o),
(76,417,c),
(76,466,o),
(82,509,o),
(93,548,c),
(104,586,o),
(122,617,o),
(145,641,c),
(169,665,o),
(200,677,o),
(239,677,c),
(272,677,o),
(299,669,o),
(320,652,c),
(340,635,o),
(356,608,o),
(368,572,c),
(379,542,o),
(389,491,o),
(399,418,c),
(411,333,o),
(430,252,o),
(457,176,c),
(485,96,o),
(524,15,o),
(574,-67,c)
);
}
);
width = 762;
}
);
},
{
export = 0;
glyphname = _GI.isol;
layers = (
{
layerId = "E14AE757-7134-4DB9-897C-AD248BACE90D";
shapes = (
{
closed = 1;
nodes = (
(695,-31,l),
(613,98,o),
(559,230,o),
(533,364,c),
(840,364,l),
(875,364,o),
(900,357,o),
(915,343,c),
(930,328,o),
(938,307,o),
(938,279,c),
(938,235,o),
(931,196,o),
(916,162,c),
(990,162,l),
(1007,198,o),
(1015,237,o),
(1015,279,c),
(1016,389,o),
(957,444,o),
(840,444,c),
(523,444,l),
(509,575,o),
(472,667,o),
(413,720,c),
(381,747,o),
(339,760,o),
(287,760,c),
(235,760,o),
(191,745,o),
(155,716,c),
(118,686,o),
(91,644,o),
(72,591,c),
(54,539,o),
(45,481,o),
(45,417,c),
(45,299,o),
(88,174,o),
(174,42,c),
(245,85,l),
(204,144,o),
(173,200,o),
(154,251,c),
(134,302,o),
(124,358,o),
(124,417,c),
(124,466,o),
(130,509,o),
(141,548,c),
(152,586,o),
(170,617,o),
(193,641,c),
(217,665,o),
(248,677,o),
(287,677,c),
(324,677,o),
(352,667,o),
(373,647,c),
(394,627,o),
(410,597,o),
(421,556,c),
(432,517,o),
(440,471,o),
(447,418,c),
(471,246,o),
(529,84,o),
(622,-67,c)
);
}
);
width = 1060;
}
);
},
{
export = 0;
glyphname = _GI.fina;
layers = (
{
layerId = "E14AE757-7134-4DB9-897C-AD248BACE90D";
shapes = (
{
closed = 1;
nodes = (
(647,-31,l),
(565,98,o),
(511,230,o),
(485,364,c),
(792,364,l),
(827,364,o),
(852,357,o),
(867,343,c),
(882,328,o),
(890,307,o),
(890,279,c),
(890,235,o),
(883,196,o),
(868,162,c),
(942,162,l),
(959,198,o),
(967,237,o),
(967,279,c),
(968,389,o),
(909,444,o),
(792,444,c),
(475,444,l),
(461,575,o),
(424,667,o),
(365,720,c),
(333,747,o),
(291,760,o),
(239,760,c),
(187,760,o),
(143,745,o),
(107,716,c),
(70,686,o),
(43,644,o),
(24,591,c),
(6,539,o),
(-3,481,o),
(-3,417,c),
(-3,299,o),
(40,174,o),
(126,42,c),
(197,85,l),
(156,144,o),
(125,200,o),
(106,251,c),
(86,302,o),
(76,358,o),
(76,417,c),
(76,466,o),
(82,509,o),
(93,548,c),
(104,586,o),
(122,617,o),
(145,641,c),
(169,665,o),
(200,677,o),
(239,677,c),
(276,677,o),
(304,667,o),
(325,647,c),
(346,627,o),
(362,597,o),
(373,556,c),
(384,517,o),
(392,471,o),
(399,418,c),
(423,246,o),
(481,84,o),
(574,-67,c)
);
}
);
width = 1012;
}
);
},
{
export = 0;
glyphname = _GxI.init;
layers = (
{
layerId = "E14AE757-7134-4DB9-897C-AD248BACE90D";
shapes = (
{
closed = 1;
nodes = (
(377,-196,l),
(412,-160,o),
(458,-121,o),
(516,-80,c),
(455,-11,l),
(416,-50,o),
(375,-99,o),
(334,-157,c)
);
},
{
closed = 1;
nodes = (
(695,-31,l),
(613,98,o),
(559,230,o),
(533,364,c),
(840,364,l),
(840,444,l),
(523,444,l),
(509,575,o),
(472,667,o),
(413,720,c),
(381,747,o),
(339,760,o),
(287,760,c),
(235,760,o),
(191,745,o),
(155,716,c),
(118,686,o),
(91,644,o),
(72,590,c),
(54,538,o),
(45,480,o),
(45,417,c),
(45,299,o),
(88,174,o),
(174,42,c),
(245,85,l),
(204,144,o),
(173,200,o),
(154,251,c),
(134,302,o),
(124,358,o),
(124,417,c),
(124,466,o),
(130,509,o),
(141,548,c),
(152,586,o),
(170,617,o),
(193,641,c),
(217,665,o),
(248,677,o),
(287,677,c),
(320,677,o),
(347,669,o),
(368,652,c),
(388,635,o),
(404,608,o),
(416,572,c),
(427,542,o),
(437,491,o),
(447,418,c),
(459,333,o),
(478,252,o),
(505,176,c),
(533,96,o),
(572,15,o),
(622,-67,c)
);
},
{
closed = 1;
nodes = (
(162,-196,l),
(197,-160,o),
(243,-121,o),
(301,-80,c),
(240,-11,l),
(201,-50,o),
(160,-99,o),
(119,-157,c)
);
}
);
width = 810;
}
);
},
{
export = 0;
glyphname = _GxI.medi;
layers = (
{
layerId = "E14AE757-7134-4DB9-897C-AD248BACE90D";
shapes = (
{
closed = 1;
nodes = (
(329,-196,l),
(364,-160,o),
(410,-121,o),
(468,-80,c),
(407,-11,l),
(368,-50,o),
(327,-99,o),
(286,-157,c)
);
},
{
closed = 1;
nodes = (
(647,-31,l),
(565,98,o),
(511,230,o),
(485,364,c),
(792,364,l),
(792,444,l),
(475,444,l),
(461,575,o),
(424,667,o),
(365,720,c),
(333,747,o),
(291,760,o),
(239,760,c),
(187,760,o),
(143,745,o),
(107,716,c),
(70,686,o),
(43,644,o),
(24,590,c),
(6,538,o),
(-3,480,o),
(-3,417,c),
(-3,299,o),
(40,174,o),
(126,42,c),
(197,85,l),
(156,144,o),
(125,200,o),
(106,251,c),
(86,302,o),
(76,358,o),
(76,417,c),
(76,466,o),
(82,509,o),
(93,548,c),
(104,586,o),
(122,617,o),
(145,641,c),
(169,665,o),
(200,677,o),
(239,677,c),
(272,677,o),
(299,669,o),
(320,652,c),
(340,635,o),
(356,608,o),
(368,572,c),
(379,542,o),
(389,491,o),
(399,418,c),
(411,333,o),
(430,252,o),
(457,176,c),
(485,96,o),
(524,15,o),
(574,-67,c)
);
},
{
closed = 1;
nodes = (
(114,-196,l),
(149,-160,o),
(195,-121,o),
(253,-80,c),
(192,-11,l),
(153,-50,o),
(112,-99,o),
(71,-157,c)
);
}
);
width = 762;
}
);
},
{
export = 0;
glyphname = _GxI.isol;
layers = (
{
layerId = "E14AE757-7134-4DB9-897C-AD248BACE90D";
shapes = (
{
closed = 1;
nodes = (
(399,-196,l),
(434,-160,o),
(480,-121,o),
(538,-80,c),
(477,-11,l),
(438,-50,o),
(397,-99,o),
(356,-157,c)
);
},
{
closed = 1;
nodes = (
(695,-31,l),
(613,98,o),
(559,230,o),
(533,364,c),
(840,364,l),
(875,364,o),
(900,357,o),
(915,343,c),
(930,328,o),
(938,307,o),
(938,279,c),
(938,235,o),
(931,196,o),
(916,162,c),
(990,162,l),
(1007,198,o),
(1015,237,o),
(1015,279,c),
(1016,389,o),
(957,444,o),
(840,444,c),
(523,444,l),
(509,575,o),
(472,667,o),
(413,720,c),
(381,747,o),
(339,760,o),
(287,760,c),
(235,760,o),
(191,745,o),
(155,716,c),
(118,686,o),
(91,644,o),
(72,591,c),
(54,539,o),
(45,481,o),
(45,417,c),
(45,299,o),
(88,174,o),
(174,42,c),
(245,85,l),
(204,144,o),
(173,200,o),
(154,251,c),
(134,302,o),
(124,358,o),
(124,417,c),
(124,466,o),
(130,509,o),
(141,548,c),
(152,586,o),
(170,617,o),
(193,641,c),
(217,665,o),
(248,677,o),
(287,677,c),
(324,677,o),
(352,667,o),
(373,647,c),
(394,627,o),
(410,597,o),
(421,556,c),
(432,517,o),
(440,471,o),
(447,418,c),
(471,246,o),
(529,84,o),
(622,-67,c)
);
},
{
closed = 1;
nodes = (
(184,-196,l),
(219,-160,o),
(265,-121,o),
(323,-80,c),
(262,-11,l),
(223,-50,o),
(182,-99,o),
(141,-157,c)
);
}
);
width = 1060;
}
);
},
{
export = 0;
glyphname = _GxI.fina;
layers = (
{
layerId = "E14AE757-7134-4DB9-897C-AD248BACE90D";
shapes = (
{
closed = 1;
nodes = (
(329,-196,l),
(364,-160,o),
(410,-121,o),
(468,-80,c),
(407,-11,l),
(368,-50,o),
(327,-99,o),
(286,-157,c)
);
},
{
closed = 1;
nodes = (
(647,-31,l),
(565,98,o),
(511,230,o),
(485,364,c),
(792,364,l),
(827,364,o),
(852,357,o),
(867,343,c),
(882,328,o),
(890,307,o),
(890,279,c),
(890,235,o),
(883,196,o),
(868,162,c),
(942,162,l),
(959,198,o),
(967,237,o),
(967,279,c),
(968,389,o),
(909,444,o),
(792,444,c),
(475,444,l),
(461,575,o),
(424,667,o),
(365,720,c),
(333,747,o),
(291,760,o),
(239,760,c),
(187,760,o),
(143,745,o),
(107,716,c),
(70,686,o),
(43,644,o),
(24,591,c),
(6,539,o),
(-3,481,o),
(-3,417,c),
(-3,299,o),
(40,174,o),
(126,42,c),
(197,85,l),
(156,144,o),
(125,200,o),
(106,251,c),
(86,302,o),
(76,358,o),
(76,417,c),
(76,466,o),
(82,509,o),
(93,548,c),
(104,586,o),
(122,617,o),
(145,641,c),
(169,665,o),
(200,677,o),
(239,677,c),
(276,677,o),
(304,667,o),
(325,647,c),
(346,627,o),
(362,597,o),
(373,556,c),
(384,517,o),
(392,471,o),
(399,418,c),
(423,246,o),
(481,84,o),
(574,-67,c)
);
},
{
closed = 1;
nodes = (
(114,-196,l),
(149,-160,o),
(195,-121,o),
(253,-80,c),
(192,-11,l),
(153,-50,o),
(112,-99,o),
(71,-157,c)
);
}
);
width = 1012;
}
);
},
{
export = 0;
glyphname = _GOI.init;
layers = (
{
layerId = "E14AE757-7134-4DB9-897C-AD248BACE90D";
shapes = (
{
closed = 1;
nodes = (
(426,124,o),
(388,174,o),
(388,275,c),
(388,308,o),
(393,338,o),
(404,364,c),
(623,364,l),
(624,354,o),
(625,344,o),
(625,334,c),
(625,303,l),
(625,236,o),
(607,185,o),
(571,148,c),
(553,131,o),
(530,123,o),
(502,123,c)
);
},
{
closed = 1;
nodes = (
(1065,-31,l),
(992,98,o),
(937,229,o),
(898,364,c),
(1210,364,l),
(1210,444,l),
(693,444,l),
(654,655,o),
(545,760,o),
(365,760,c),
(237,760,o),
(144,704,o),
(85,592,c),
(58,539,o),
(45,477,o),
(45,408,c),
(45,293,o),
(79,171,o),
(146,42,c),
(219,73,l),
(156,198,o),
(124,309,o),
(124,405,c),
(124,459,o),
(133,507,o),
(152,548,c),
(171,589,o),
(198,620,o),
(234,643,c),
(271,666,o),
(314,677,o),
(365,677,c),
(503,677,o),
(586,599,o),
(614,444,c),
(347,444,l),
(335,421,o),
(326,394,o),
(319,363,c),
(312,332,o),
(309,303,o),
(309,275,c),
(309,202,o),
(326,144,o),
(360,103,c),
(394,61,o),
(444,40,o),
(509,40,c),
(582,40,o),
(639,81,o),
(678,162,c),
(695,201,o),
(704,246,o),
(704,298,c),
(704,332,l),
(704,343,o),
(703,354,o),
(702,364,c),
(819,364,l),
(858,219,o),
(915,75,o),
(992,-67,c)
);
}
);
width = 1180;
}
);
},
{
export = 0;
glyphname = _GOI.medi;
layers = (
{
layerId = "E14AE757-7134-4DB9-897C-AD248BACE90D";
shapes = (
{
closed = 1;
nodes = (
(379,124,o),
(341,174,o),
(341,275,c),
(341,308,o),
(346,338,o),
(357,364,c),
(576,364,l),
(577,354,o),
(578,344,o),
(578,334,c),
(578,303,l),
(578,236,o),
(560,185,o),
(524,148,c),
(506,131,o),
(483,123,o),
(455,123,c)
);
},
{
closed = 1;
nodes = (
(1018,-31,l),
(945,98,o),
(890,229,o),
(851,364,c),
(1163,364,l),
(1163,444,l),
(646,444,l),
(607,655,o),
(498,760,o),
(318,760,c),
(190,760,o),
(97,704,o),
(38,592,c),
(11,539,o),
(-2,477,o),
(-2,408,c),
(-2,293,o),
(32,171,o),
(99,42,c),
(172,73,l),
(109,198,o),
(77,309,o),
(77,405,c),
(77,459,o),
(86,507,o),
(105,548,c),
(124,589,o),
(151,620,o),
(187,643,c),
(224,666,o),
(267,677,o),
(318,677,c),
(456,677,o),
(539,599,o),
(567,444,c),
(300,444,l),
(288,421,o),
(279,394,o),
(272,363,c),
(265,332,o),
(262,303,o),
(262,275,c),
(262,202,o),
(279,144,o),
(313,103,c),
(347,61,o),
(397,40,o),
(462,40,c),
(535,40,o),
(592,81,o),
(631,162,c),
(648,201,o),
(657,246,o),
(657,298,c),
(657,332,l),
(657,343,o),
(656,354,o),
(655,364,c),
(772,364,l),
(811,219,o),
(868,75,o),
(945,-67,c)
);
}
);
width = 1133;
}
);
},
{
export = 0;
glyphname = _GUe.isol;
layers = (
{
layerId = "E14AE757-7134-4DB9-897C-AD248BACE90D";
shapes = (
{
closed = 1;
nodes = (
(426,124,o),
(388,174,o),
(388,275,c),
(388,308,o),
(393,338,o),
(404,364,c),
(623,364,l),
(624,354,o),
(625,344,o),
(625,334,c),
(625,303,l),
(625,236,o),
(607,185,o),
(571,148,c),
(553,131,o),
(530,123,o),
(502,123,c)
);
},
{
closed = 1;
nodes = (
(585,40,o),
(642,82,o),
(679,165,c),
(696,204,o),
(704,250,o),
(704,303,c),
(704,334,l),
(704,344,o),
(703,354,o),
(702,364,c),
(915,364,l),
(950,364,o),
(975,357,o),
(990,343,c),
(1005,328,o),
(1013,307,o),
(1013,279,c),
(1013,235,o),
(1006,196,o),
(991,162,c),
(1065,162,l),
(1082,196,o),
(1090,235,o),
(1090,279,c),
(1091,389,o),
(1032,444,o),
(915,444,c),
(693,444,l),
(654,655,o),
(545,760,o),
(365,760,c),
(237,760,o),
(144,704,o),
(85,592,c),
(58,539,o),
(45,477,o),
(45,408,c),
(45,293,o),
(79,171,o),
(146,42,c),
(219,73,l),
(156,198,o),
(124,309,o),
(124,405,c),
(124,459,o),
(133,507,o),
(152,548,c),
(171,589,o),
(198,620,o),
(234,643,c),
(271,666,o),
(314,677,o),
(365,677,c),
(503,677,o),
(586,599,o),
(614,444,c),
(347,444,l),
(335,421,o),
(326,394,o),
(319,363,c),
(312,332,o),
(309,303,o),
(309,275,c),
(309,202,o),
(326,144,o),
(361,103,c),
(395,61,o),
(445,40,o),
(510,40,c)
);
}
);
width = 1135;
}
);
},
{
export = 0;
glyphname = _GUe.fina;
layers = (
{
layerId = "E14AE757-7134-4DB9-897C-AD248BACE90D";
shapes = (
{
closed = 1;
nodes = (
(379,124,o),
(341,174,o),
(341,275,c),
(341,308,o),
(346,338,o),
(357,364,c),
(576,364,l),
(577,354,o),
(578,344,o),
(578,334,c),
(578,303,l),
(578,236,o),
(560,185,o),
(524,148,c),
(506,131,o),
(483,123,o),
(455,123,c)
);
},
{
closed = 1;
nodes = (
(538,40,o),
(595,82,o),
(632,165,c),
(649,204,o),
(657,250,o),
(657,303,c),
(657,334,l),
(657,344,o),
(656,354,o),
(655,364,c),
(868,364,l),
(903,364,o),
(928,357,o),
(943,343,c),
(958,328,o),
(966,307,o),
(966,279,c),
(966,235,o),
(959,196,o),
(944,162,c),
(1018,162,l),
(1035,196,o),
(1043,235,o),
(1043,279,c),
(1044,389,o),
(985,444,o),
(868,444,c),
(646,444,l),
(607,655,o),
(498,760,o),
(318,760,c),
(190,760,o),
(97,704,o),
(38,592,c),
(11,539,o),
(-2,477,o),
(-2,408,c),
(-2,293,o),
(32,171,o),
(99,42,c),
(172,73,l),
(109,198,o),
(77,309,o),
(77,405,c),
(77,459,o),
(86,507,o),
(105,548,c),
(124,589,o),
(151,620,o),
(187,643,c),
(224,666,o),
(267,677,o),
(318,677,c),
(456,677,o),
(539,599,o),
(567,444,c),
(300,444,l),
(288,421,o),
(279,394,o),
(272,363,c),
(265,332,o),
(262,303,o),
(262,275,c),
(262,202,o),
(279,144,o),
(314,103,c),
(348,61,o),
(398,40,o),
(463,40,c)
);
}
);
width = 1088;
}
);
},
{
export = 0;
glyphname = _GO.init;
layers = (
{
layerId = "E14AE757-7134-4DB9-897C-AD248BACE90D";
shapes = (
{
closed = 1;
nodes = (
(426,124,o),
(388,174,o),
(388,275,c),
(388,308,o),
(393,338,o),
(404,364,c),
(623,364,l),
(624,354,o),
(625,344,o),
(625,334,c),
(625,303,l),
(625,236,o),
(607,185,o),
(571,148,c),
(553,131,o),
(530,123,o),
(502,123,c)
);
},
{
closed = 1;
nodes = (
(585,40,o),
(642,82,o),
(679,165,c),
(696,204,o),
(704,250,o),
(704,302,c),
(704,334,l),
(704,344,o),
(703,354,o),
(702,364,c),
(915,364,l),
(915,444,l),
(693,444,l),
(654,655,o),
(545,760,o),
(365,760,c),
(237,760,o),
(144,704,o),
(85,592,c),
(58,539,o),
(45,477,o),
(45,408,c),
(45,293,o),
(79,171,o),
(146,42,c),
(219,73,l),
(156,198,o),
(124,309,o),
(124,405,c),
(124,459,o),
(133,507,o),
(152,548,c),
(171,589,o),
(198,620,o),
(234,643,c),
(271,666,o),
(314,677,o),
(365,677,c),
(503,677,o),
(586,599,o),
(614,444,c),
(347,444,l),
(335,421,o),
(326,394,o),
(319,363,c),
(312,332,o),
(309,303,o),
(309,275,c),
(309,202,o),
(326,144,o),
(360,103,c),
(394,61,o),
(444,40,o),
(509,40,c)
);
}
);
width = 885;
}
);
},
{
export = 0;
glyphname = _GO.medi;
layers = (
{
layerId = "E14AE757-7134-4DB9-897C-AD248BACE90D";
shapes = (
{
closed = 1;
nodes = (
(379,124,o),
(341,174,o),
(341,275,c),
(341,308,o),
(346,338,o),
(357,364,c),
(576,364,l),
(577,354,o),
(578,344,o),
(578,334,c),
(578,303,l),
(578,236,o),
(560,185,o),
(524,148,c),
(506,131,o),
(483,123,o),
(455,123,c)
);
},
{
closed = 1;
nodes = (
(538,40,o),
(595,82,o),
(632,165,c),
(649,204,o),
(657,250,o),
(657,302,c),
(657,334,l),
(657,344,o),
(656,354,o),
(655,364,c),
(868,364,l),
(868,444,l),
(646,444,l),
(607,655,o),
(498,760,o),
(318,760,c),
(190,760,o),
(97,704,o),
(38,592,c),
(11,539,o),
(-2,477,o),
(-2,408,c),
(-2,293,o),
(32,171,o),
(99,42,c),
(172,73,l),
(109,198,o),
(77,309,o),
(77,405,c),
(77,459,o),
(86,507,o),
(105,548,c),
(124,589,o),
(151,620,o),
(187,643,c),
(224,666,o),
(267,677,o),
(318,677,c),
(456,677,o),
(539,599,o),
(567,444,c),
(300,444,l),
(288,421,o),
(279,394,o),
(272,363,c),
(265,332,o),
(262,303,o),
(262,275,c),
(262,202,o),
(279,144,o),
(313,103,c),
(347,61,o),
(397,40,o),
(462,40,c)
);
}
);
width = 838;
}
);
},
{
export = 0;
glyphname = _GO.isol;
layers = (
{
layerId = "E14AE757-7134-4DB9-897C-AD248BACE90D";
shapes = (
{
closed = 1;
nodes = (
(426,124,o),
(388,174,o),
(388,275,c),
(388,308,o),
(393,338,o),
(404,364,c),
(623,364,l),
(624,355,o),
(625,344,o),
(625,333,c),
(625,301,l),
(625,234,o),
(607,183,o),
(571,147,c),
(553,131,o),
(530,123,o),
(502,123,c)
);
},
{
closed = 1;
nodes = (
(585,40,o),
(642,82,o),
(679,165,c),
(696,204,o),
(704,250,o),
(704,302,c),
(704,437,o),
(678,546,o),
(626,627,c),
(569,716,o),
(482,760,o),
(365,760,c),
(237,760,o),
(144,704,o),
(85,592,c),
(58,539,o),
(45,477,o),
(45,408,c),
(45,293,o),
(79,171,o),
(146,42,c),
(219,73,l),
(156,198,o),
(124,309,o),
(124,405,c),
(124,459,o),
(133,507,o),
(152,548,c),
(171,589,o),
(198,620,o),
(234,643,c),
(271,666,o),
(314,677,o),
(365,677,c),
(503,677,o),
(586,599,o),
(614,444,c),
(347,444,l),
(335,421,o),
(326,394,o),
(319,363,c),
(312,332,o),
(309,303,o),
(309,275,c),
(309,202,o),
(326,144,o),
(360,103,c),
(394,61,o),
(444,40,o),
(509,40,c)
);
}
);
width = 749;
}
);
},
{
export = 0;
glyphname = _GO.fina;
layers = (
{
layerId = "E14AE757-7134-4DB9-897C-AD248BACE90D";
shapes = (
{
closed = 1;
nodes = (
(379,124,o),
(341,174,o),
(341,275,c),
(341,308,o),
(346,338,o),
(357,364,c),
(576,364,l),
(577,355,o),
(578,344,o),
(578,333,c),
(578,301,l),
(578,234,o),
(560,183,o),
(524,147,c),
(506,131,o),
(483,123,o),
(455,123,c)
);
},
{
closed = 1;
nodes = (
(538,40,o),
(595,82,o),
(632,165,c),
(649,204,o),
(657,250,o),
(657,302,c),
(657,437,o),
(631,546,o),
(579,627,c),
(522,716,o),
(435,760,o),
(318,760,c),
(190,760,o),
(97,704,o),
(38,592,c),
(11,539,o),
(-2,477,o),
(-2,408,c),
(-2,293,o),
(32,171,o),
(99,42,c),
(172,73,l),
(109,198,o),
(77,309,o),
(77,405,c),
(77,459,o),
(86,507,o),
(105,548,c),
(124,589,o),
(151,620,o),
(187,643,c),
(224,666,o),
(267,677,o),
(318,677,c),
(456,677,o),
(539,599,o),
(567,444,c),
(300,444,l),
(288,421,o),
(279,394,o),
(272,363,c),
(265,332,o),
(262,303,o),
(262,275,c),
(262,202,o),
(279,144,o),
(313,103,c),
(347,61,o),
(397,40,o),
(462,40,c)
);
}
);
width = 702;
}
);
},
{
export = 0;
glyphname = _GxOI.init;
layers = (
{
layerId = "E14AE757-7134-4DB9-897C-AD248BACE90D";
shapes = (
{
closed = 1;
nodes = (
(426,124,o),
(388,174,o),
(388,275,c),
(388,308,o),
(393,338,o),
(404,364,c),
(623,364,l),
(624,354,o),
(625,344,o),
(625,334,c),
(625,303,l),
(625,236,o),
(607,185,o),
(571,148,c),
(553,131,o),
(530,123,o),
(502,123,c)
);
},
{
closed = 1;
nodes = (
(443,-196,l),
(478,-160,o),
(524,-121,o),
(582,-80,c),
(521,-11,l),
(482,-50,o),
(441,-99,o),
(400,-157,c)
);
},
{
closed = 1;
nodes = (
(1065,-31,l),
(992,98,o),
(937,229,o),
(898,364,c),
(1210,364,l),
(1210,444,l),
(693,444,l),
(654,655,o),
(545,760,o),
(365,760,c),
(237,760,o),
(144,704,o),
(85,592,c),
(58,539,o),
(45,477,o),
(45,408,c),
(45,293,o),
(79,171,o),
(146,42,c),
(219,73,l),
(156,198,o),
(124,309,o),
(124,405,c),
(124,459,o),
(133,507,o),
(152,548,c),
(171,589,o),
(198,620,o),
(234,643,c),
(271,666,o),
(314,677,o),
(365,677,c),
(503,677,o),
(586,599,o),
(614,444,c),
(347,444,l),
(335,421,o),
(326,394,o),
(319,363,c),
(312,332,o),
(309,303,o),
(309,275,c),
(309,202,o),
(326,144,o),
(360,103,c),
(394,61,o),
(444,40,o),
(509,40,c),
(582,40,o),
(639,81,o),
(678,162,c),
(695,201,o),
(704,246,o),
(704,298,c),
(704,332,l),
(704,343,o),
(703,354,o),
(702,364,c),
(819,364,l),
(858,219,o),
(915,75,o),
(992,-67,c)
);
},
{
closed = 1;
nodes = (
(184,-196,l),
(219,-160,o),
(265,-121,o),
(323,-80,c),
(262,-11,l),
(223,-50,o),
(182,-99,o),
(141,-157,c)
);
}
);
width = 1180;
}
);
},
{
export = 0;
glyphname = _GxOI.medi;
layers = (
{
layerId = "E14AE757-7134-4DB9-897C-AD248BACE90D";
shapes = (
{
closed = 1;
nodes = (
(379,124,o),
(341,174,o),
(341,275,c),
(341,308,o),
(346,338,o),
(357,364,c),
(576,364,l),
(577,354,o),
(578,344,o),
(578,334,c),
(578,303,l),
(578,236,o),
(560,185,o),
(524,148,c),
(506,131,o),
(483,123,o),
(455,123,c)
);
},
{
closed = 1;
nodes = (
(396,-196,l),
(431,-160,o),
(477,-121,o),
(535,-80,c),
(474,-11,l),
(435,-50,o),
(394,-99,o),
(353,-157,c)
);
},
{
closed = 1;
nodes = (
(1018,-31,l),
(945,98,o),
(890,229,o),
(851,364,c),
(1163,364,l),
(1163,444,l),
(646,444,l),
(607,655,o),
(498,760,o),
(318,760,c),
(190,760,o),
(97,704,o),
(38,592,c),
(11,539,o),
(-2,477,o),
(-2,408,c),
(-2,293,o),
(32,171,o),
(99,42,c),
(172,73,l),
(109,198,o),
(77,309,o),
(77,405,c),
(77,459,o),
(86,507,o),
(105,548,c),
(124,589,o),
(151,620,o),
(187,643,c),
(224,666,o),
(267,677,o),
(318,677,c),
(456,677,o),
(539,599,o),
(567,444,c),
(300,444,l),
(288,421,o),
(279,394,o),
(272,363,c),
(265,332,o),
(262,303,o),
(262,275,c),
(262,202,o),
(279,144,o),
(313,103,c),
(347,61,o),
(397,40,o),
(462,40,c),
(535,40,o),
(592,81,o),
(631,162,c),
(648,201,o),
(657,246,o),
(657,298,c),
(657,332,l),
(657,343,o),
(656,354,o),
(655,364,c),
(772,364,l),
(811,219,o),
(868,75,o),
(945,-67,c)
);
},
{
closed = 1;
nodes = (
(137,-196,l),
(172,-160,o),
(218,-121,o),
(276,-80,c),
(215,-11,l),
(176,-50,o),
(135,-99,o),
(94,-157,c)
);
}
);
width = 1133;
}
);
},
{
export = 0;
glyphname = _GxUe.isol;
layers = (
{
layerId = "E14AE757-7134-4DB9-897C-AD248BACE90D";
shapes = (
{
closed = 1;
nodes = (
(426,124,o),
(388,174,o),
(388,275,c),
(388,308,o),
(393,338,o),
(404,364,c),
(623,364,l),
(624,354,o),
(625,344,o),
(625,334,c),
(625,303,l),
(625,236,o),
(607,185,o),
(571,148,c),
(553,131,o),
(530,123,o),
(502,123,c)
);
},
{
closed = 1;
nodes = (
(443,-196,l),
(478,-160,o),
(524,-121,o),
(582,-80,c),
(521,-11,l),
(482,-50,o),
(441,-99,o),
(400,-157,c)
);
},
{
closed = 1;
nodes = (
(585,40,o),
(642,82,o),
(679,165,c),
(696,204,o),
(704,250,o),
(704,303,c),
(704,334,l),
(704,344,o),
(703,354,o),
(702,364,c),
(915,364,l),
(950,364,o),
(975,357,o),
(990,343,c),
(1005,328,o),
(1013,307,o),
(1013,279,c),
(1013,235,o),
(1006,196,o),
(991,162,c),
(1065,162,l),
(1082,196,o),
(1090,235,o),
(1090,279,c),
(1091,389,o),
(1032,444,o),
(915,444,c),
(693,444,l),
(654,655,o),
(545,760,o),
(365,760,c),
(237,760,o),
(144,704,o),
(85,592,c),
(58,539,o),
(45,477,o),
(45,408,c),
(45,293,o),
(79,171,o),
(146,42,c),
(219,73,l),
(156,198,o),
(124,309,o),
(124,405,c),
(124,459,o),
(133,507,o),
(152,548,c),
(171,589,o),
(198,620,o),
(234,643,c),
(271,666,o),
(314,677,o),
(365,677,c),
(503,677,o),
(586,599,o),
(614,444,c),
(347,444,l),
(335,421,o),
(326,394,o),
(319,363,c),
(312,332,o),
(309,303,o),
(309,275,c),
(309,202,o),
(326,144,o),
(361,103,c),
(395,61,o),
(445,40,o),
(510,40,c)
);
},
{
closed = 1;
nodes = (
(184,-196,l),
(219,-160,o),
(265,-121,o),
(323,-80,c),
(262,-11,l),
(223,-50,o),
(182,-99,o),
(141,-157,c)
);
}
);
width = 1135;
}
);
},
{
export = 0;
glyphname = _GxUe.fina;
layers = (
{
layerId = "E14AE757-7134-4DB9-897C-AD248BACE90D";
shapes = (
{
closed = 1;
nodes = (
(379,124,o),
(341,174,o),
(341,275,c),
(341,308,o),
(346,338,o),
(357,364,c),
(576,364,l),
(577,354,o),
(578,344,o),
(578,334,c),
(578,303,l),
(578,236,o),
(560,185,o),
(524,148,c),
(506,131,o),
(483,123,o),
(455,123,c)
);
},
{
closed = 1;
nodes = (
(396,-196,l),
(431,-160,o),
(477,-121,o),
(535,-80,c),
(474,-11,l),
(435,-50,o),
(394,-99,o),
(353,-157,c)
);
},
{
closed = 1;
nodes = (
(538,40,o),
(595,82,o),
(632,165,c),
(649,204,o),
(657,250,o),
(657,303,c),
(657,334,l),
(657,344,o),
(656,354,o),
(655,364,c),
(868,364,l),
(903,364,o),
(928,357,o),
(943,343,c),
(958,328,o),
(966,307,o),
(966,279,c),
(966,235,o),
(959,196,o),
(944,162,c),
(1018,162,l),
(1035,196,o),
(1043,235,o),
(1043,279,c),
(1044,389,o),
(985,444,o),
(868,444,c),
(646,444,l),
(607,655,o),
(498,760,o),
(318,760,c),
(190,760,o),
(97,704,o),
(38,592,c),
(11,539,o),
(-2,477,o),
(-2,408,c),
(-2,293,o),
(32,171,o),
(99,42,c),
(172,73,l),
(109,198,o),
(77,309,o),
(77,405,c),
(77,459,o),
(86,507,o),
(105,548,c),
(124,589,o),
(151,620,o),
(187,643,c),
(224,666,o),
(267,677,o),
(318,677,c),
(456,677,o),
(539,599,o),
(567,444,c),
(300,444,l),
(288,421,o),
(279,394,o),
(272,363,c),
(265,332,o),
(262,303,o),
(262,275,c),
(262,202,o),
(279,144,o),
(314,103,c),
(348,61,o),
(398,40,o),
(463,40,c)
);
},
{
closed = 1;
nodes = (
(137,-196,l),
(172,-160,o),
(218,-121,o),
(276,-80,c),
(215,-11,l),
(176,-50,o),
(135,-99,o),
(94,-157,c)
);
}
);
width = 1088;
}
);
},
{
export = 0;
glyphname = _GxO.init;
layers = (
{
layerId = "E14AE757-7134-4DB9-897C-AD248BACE90D";
shapes = (
{
closed = 1;
nodes = (
(426,124,o),
(388,174,o),
(388,275,c),
(388,308,o),
(393,338,o),
(404,364,c),
(623,364,l),
(624,354,o),
(625,344,o),
(625,334,c),
(625,303,l),
(625,236,o),
(607,185,o),
(571,148,c),
(553,131,o),
(530,123,o),
(502,123,c)
);
},
{
closed = 1;
nodes = (
(443,-196,l),
(478,-160,o),
(524,-121,o),
(582,-80,c),
(521,-11,l),
(482,-50,o),
(441,-99,o),
(400,-157,c)
);
},
{
closed = 1;
nodes = (
(585,40,o),
(642,82,o),
(679,165,c),
(696,204,o),
(704,250,o),
(704,302,c),
(704,334,l),
(704,344,o),
(703,354,o),
(702,364,c),
(915,364,l),
(915,444,l),
(693,444,l),
(654,655,o),
(545,760,o),
(365,760,c),
(237,760,o),
(144,704,o),
(85,592,c),
(58,539,o),
(45,477,o),
(45,408,c),
(45,293,o),
(79,171,o),
(146,42,c),
(219,73,l),
(156,198,o),
(124,309,o),
(124,405,c),
(124,459,o),
(133,507,o),
(152,548,c),
(171,589,o),
(198,620,o),
(234,643,c),
(271,666,o),
(314,677,o),
(365,677,c),
(503,677,o),
(586,599,o),
(614,444,c),
(347,444,l),
(335,421,o),
(326,394,o),
(319,363,c),
(312,332,o),
(309,303,o),
(309,275,c),
(309,202,o),
(326,144,o),
(360,103,c),
(394,61,o),
(444,40,o),
(509,40,c)
);
},
{
closed = 1;
nodes = (
(184,-196,l),
(219,-160,o),
(265,-121,o),
(323,-80,c),
(262,-11,l),
(223,-50,o),
(182,-99,o),
(141,-157,c)
);
}
);
width = 885;
}
);
},
{
export = 0;
glyphname = _GxO.medi;
layers = (
{
layerId = "E14AE757-7134-4DB9-897C-AD248BACE90D";
shapes = (
{
closed = 1;
nodes = (
(379,124,o),
(341,174,o),
(341,275,c),
(341,308,o),
(346,338,o),
(357,364,c),
(576,364,l),
(577,354,o),
(578,344,o),
(578,334,c),
(578,303,l),
(578,236,o),
(560,185,o),
(524,148,c),
(506,131,o),
(483,123,o),
(455,123,c)
);
},
{
closed = 1;
nodes = (
(396,-196,l),
(431,-160,o),
(477,-121,o),
(535,-80,c),
(474,-11,l),
(435,-50,o),
(394,-99,o),
(353,-157,c)
);
},
{
closed = 1;
nodes = (
(538,40,o),
(595,82,o),
(632,165,c),
(649,204,o),
(657,250,o),
(657,302,c),
(657,334,l),
(657,344,o),
(656,354,o),
(655,364,c),
(868,364,l),
(868,444,l),
(646,444,l),
(607,655,o),
(498,760,o),
(318,760,c),
(190,760,o),
(97,704,o),
(38,592,c),
(11,539,o),
(-2,477,o),
(-2,408,c),
(-2,293,o),
(32,171,o),
(99,42,c),
(172,73,l),
(109,198,o),
(77,309,o),
(77,405,c),
(77,459,o),
(86,507,o),
(105,548,c),
(124,589,o),
(151,620,o),
(187,643,c),
(224,666,o),
(267,677,o),
(318,677,c),
(456,677,o),
(539,599,o),
(567,444,c),
(300,444,l),
(288,421,o),
(279,394,o),
(272,363,c),
(265,332,o),
(262,303,o),
(262,275,c),
(262,202,o),
(279,144,o),
(313,103,c),
(347,61,o),
(397,40,o),
(462,40,c)
);
},
{
closed = 1;
nodes = (
(137,-196,l),
(172,-160,o),
(218,-121,o),
(276,-80,c),
(215,-11,l),
(176,-50,o),
(135,-99,o),
(94,-157,c)
);
}
);
width = 838;
}
);
},
{
export = 0;
glyphname = _GxO.isol;
layers = (
{
layerId = "E14AE757-7134-4DB9-897C-AD248BACE90D";
shapes = (
{
closed = 1;
nodes = (
(426,124,o),
(388,174,o),
(388,275,c),
(388,308,o),
(393,338,o),
(404,364,c),
(623,364,l),
(624,355,o),
(625,344,o),
(625,333,c),
(625,301,l),
(625,234,o),
(607,183,o),
(571,147,c),
(553,131,o),
(530,123,o),
(502,123,c)
);
},
{
closed = 1;
nodes = (
(442,-196,l),
(477,-160,o),
(523,-121,o),
(581,-80,c),
(520,-11,l),
(481,-50,o),
(440,-99,o),
(399,-157,c)
);
},
{
closed = 1;
nodes = (
(585,40,o),
(642,82,o),
(679,165,c),
(696,204,o),
(704,250,o),
(704,302,c),
(704,437,o),
(678,546,o),
(626,627,c),
(569,716,o),
(482,760,o),
(365,760,c),
(237,760,o),
(144,704,o),
(85,592,c),
(58,539,o),
(45,477,o),
(45,408,c),
(45,293,o),
(79,171,o),
(146,42,c),
(219,73,l),
(156,198,o),
(124,309,o),
(124,405,c),
(124,459,o),
(133,507,o),
(152,548,c),
(171,589,o),
(198,620,o),
(234,643,c),
(271,666,o),
(314,677,o),
(365,677,c),
(503,677,o),
(586,599,o),
(614,444,c),
(347,444,l),
(335,421,o),
(326,394,o),
(319,363,c),
(312,332,o),
(309,303,o),
(309,275,c),
(309,202,o),
(326,144,o),
(360,103,c),
(394,61,o),
(444,40,o),
(509,40,c)
);
},
{
closed = 1;
nodes = (
(184,-196,l),
(219,-160,o),
(265,-121,o),
(323,-80,c),
(262,-11,l),
(223,-50,o),
(182,-99,o),
(141,-157,c)
);
}
);
width = 749;
}
);
},
{
export = 0;
glyphname = _GxO.fina;
layers = (
{
layerId = "E14AE757-7134-4DB9-897C-AD248BACE90D";
shapes = (
{
closed = 1;
nodes = (
(379,124,o),
(341,174,o),
(341,275,c),
(341,308,o),
(346,338,o),
(357,364,c),
(576,364,l),
(577,355,o),
(578,344,o),
(578,333,c),
(578,301,l),
(578,234,o),
(560,183,o),
(524,147,c),
(506,131,o),
(483,123,o),
(455,123,c)
);
},
{
closed = 1;
nodes = (
(395,-196,l),
(430,-160,o),
(476,-121,o),
(534,-80,c),
(473,-11,l),
(434,-50,o),
(393,-99,o),
(352,-157,c)
);
},
{
closed = 1;
nodes = (
(538,40,o),
(595,82,o),
(632,165,c),
(649,204,o),
(657,250,o),
(657,302,c),
(657,437,o),
(631,546,o),
(579,627,c),
(522,716,o),
(435,760,o),
(318,760,c),
(190,760,o),
(97,704,o),
(38,592,c),
(11,539,o),
(-2,477,o),
(-2,408,c),
(-2,293,o),
(32,171,o),
(99,42,c),
(172,73,l),
(109,198,o),
(77,309,o),
(77,405,c),
(77,459,o),
(86,507,o),
(105,548,c),
(124,589,o),
(151,620,o),
(187,643,c),
(224,666,o),
(267,677,o),
(318,677,c),
(456,677,o),
(539,599,o),
(567,444,c),
(300,444,l),
(288,421,o),
(279,394,o),
(272,363,c),
(265,332,o),
(262,303,o),
(262,275,c),
(262,202,o),
(279,144,o),
(313,103,c),
(347,61,o),
(397,40,o),
(462,40,c)
);
},
{
closed = 1;
nodes = (
(137,-196,l),
(172,-160,o),
(218,-121,o),
(276,-80,c),
(215,-11,l),
(176,-50,o),
(135,-99,o),
(94,-157,c)
);
}
);
width = 702;
}
);
},
{
export = 0;
glyphname = _GW.init;
layers = (
{
layerId = "E14AE757-7134-4DB9-897C-AD248BACE90D";
shapes = (
{
closed = 1;
nodes = (
(776,-119,o),
(804,-108,o),
(819,-85,c),
(819,6,l),
(802,-22,o),
(774,-36,o),
(737,-36,c),
(702,-36,o),
(670,-10,o),
(639,41,c),
(625,64,o),
(612,89,o),
(599,117,c),
(564,193,o),
(541,275,o),
(530,364,c),
(915,364,l),
(915,444,l),
(521,444,l),
(507,575,o),
(471,667,o),
(413,719,c),
(381,746,o),
(339,760,o),
(287,760,c),
(235,760,o),
(191,745,o),
(155,716,c),
(118,686,o),
(91,644,o),
(72,590,c),
(54,538,o),
(45,480,o),
(45,417,c),
(45,299,o),
(88,174,o),
(174,42,c),
(245,85,l),
(204,144,o),
(173,200,o),
(154,251,c),
(134,302,o),
(124,358,o),
(124,417,c),
(124,466,o),
(130,509,o),
(141,548,c),
(152,586,o),
(170,617,o),
(193,641,c),
(217,665,o),
(248,677,o),
(287,677,c),
(323,677,o),
(352,667,o),
(373,646,c),
(394,625,o),
(410,594,o),
(421,553,c),
(432,514,o),
(440,469,o),
(445,418,c),
(460,280,o),
(494,154,o),
(547,41,c),
(572,-13,o),
(599,-53,o),
(628,-79,c),
(657,-106,o),
(693,-119,o),
(737,-119,c)
);
}
);
width = 885;
}
);
},
{
export = 0;
glyphname = _GW.medi;
layers = (
{
layerId = "E14AE757-7134-4DB9-897C-AD248BACE90D";
shapes = (
{
closed = 1;
nodes = (
(728,-119,o),
(756,-108,o),
(771,-85,c),
(771,6,l),
(754,-22,o),
(726,-36,o),
(689,-36,c),
(654,-36,o),
(622,-10,o),
(591,41,c),
(577,64,o),
(564,89,o),
(551,117,c),
(516,193,o),
(493,275,o),
(482,364,c),
(867,364,l),
(867,444,l),
(473,444,l),
(459,575,o),
(423,667,o),
(365,719,c),
(333,746,o),
(291,760,o),
(239,760,c),
(187,760,o),
(143,745,o),
(107,716,c),
(70,686,o),
(43,644,o),
(24,590,c),
(6,538,o),
(-3,480,o),
(-3,417,c),
(-3,299,o),
(40,174,o),
(126,42,c),
(197,85,l),
(156,144,o),
(125,200,o),
(106,251,c),
(86,302,o),
(76,358,o),
(76,417,c),
(76,466,o),
(82,509,o),
(93,548,c),
(104,586,o),
(122,617,o),
(145,641,c),
(169,665,o),
(200,677,o),
(239,677,c),
(275,677,o),
(304,667,o),
(325,646,c),
(346,625,o),
(362,594,o),
(373,553,c),
(384,514,o),
(392,469,o),
(397,418,c),
(412,280,o),
(446,154,o),
(499,41,c),
(524,-13,o),
(551,-53,o),
(580,-79,c),
(609,-106,o),
(645,-119,o),
(689,-119,c)
);
}
);
width = 837;
}
);
},
{
export = 0;
glyphname = _GW.isol;
layers = (
{
layerId = "E14AE757-7134-4DB9-897C-AD248BACE90D";
shapes = (
{
closed = 1;
nodes = (
(776,-119,o),
(804,-108,o),
(819,-85,c),
(819,6,l),
(802,-22,o),
(774,-36,o),
(737,-36,c),
(702,-36,o),
(670,-10,o),
(639,41,c),
(625,64,o),
(612,89,o),
(599,117,c),
(564,193,o),
(541,275,o),
(530,364,c),
(915,364,l),
(950,364,o),
(975,357,o),
(990,343,c),
(1005,328,o),
(1013,307,o),
(1013,279,c),
(1013,235,o),
(1006,196,o),
(991,162,c),
(1065,162,l),
(1082,196,o),
(1090,235,o),
(1090,279,c),
(1091,389,o),
(1032,444,o),
(915,444,c),
(521,444,l),
(507,575,o),
(471,667,o),
(413,719,c),
(381,746,o),
(339,760,o),
(287,760,c),
(235,760,o),
(191,745,o),
(155,716,c),
(118,686,o),
(91,644,o),
(72,590,c),
(54,538,o),
(45,480,o),
(45,417,c),
(45,299,o),
(88,174,o),
(174,42,c),
(245,85,l),
(204,144,o),
(173,200,o),
(154,251,c),
(134,302,o),
(124,358,o),
(124,417,c),
(124,466,o),
(130,509,o),
(141,548,c),
(152,586,o),
(170,617,o),
(193,641,c),
(217,665,o),
(248,677,o),
(287,677,c),
(336,677,o),
(372,657,o),
(395,616,c),
(418,575,o),
(435,509,o),
(445,418,c),
(460,280,o),
(494,154,o),
(547,41,c),
(572,-13,o),
(599,-53,o),
(628,-79,c),
(657,-106,o),
(693,-119,o),
(737,-119,c)
);
}
);
width = 1135;
}
);
},
{
export = 0;
glyphname = _GW.fina;
layers = (
{
layerId = "E14AE757-7134-4DB9-897C-AD248BACE90D";
shapes = (
{
closed = 1;
nodes = (
(728,-119,o),
(756,-108,o),
(771,-85,c),
(771,6,l),
(754,-22,o),
(726,-36,o),
(689,-36,c),
(654,-36,o),
(622,-10,o),
(591,41,c),
(577,64,o),
(564,89,o),
(551,117,c),
(516,193,o),
(493,275,o),
(482,364,c),
(867,364,l),
(902,364,o),
(927,357,o),
(942,343,c),
(957,328,o),
(965,307,o),
(965,279,c),
(965,235,o),
(958,196,o),
(943,162,c),
(1017,162,l),
(1034,196,o),
(1042,235,o),
(1042,279,c),
(1043,389,o),
(984,444,o),
(867,444,c),
(473,444,l),
(459,575,o),
(423,667,o),
(365,719,c),
(333,746,o),
(291,760,o),
(239,760,c),
(187,760,o),
(143,745,o),
(107,716,c),
(70,686,o),
(43,644,o),
(24,590,c),
(6,538,o),
(-3,480,o),
(-3,417,c),
(-3,299,o),
(40,174,o),
(126,42,c),
(197,85,l),
(156,144,o),
(125,200,o),
(106,251,c),
(86,302,o),
(76,358,o),
(76,417,c),
(76,466,o),
(82,509,o),
(93,548,c),
(104,586,o),
(122,617,o),
(145,641,c),
(169,665,o),
(200,677,o),
(239,677,c),
(288,677,o),
(324,657,o),
(347,616,c),
(370,575,o),
(387,509,o),
(397,418,c),
(412,280,o),
(446,154,o),
(499,41,c),
(524,-13,o),
(551,-53,o),
(580,-79,c),
(609,-106,o),
(645,-119,o),
(689,-119,c)
);
}
);
width = 1087;
}
);
},
{
export = 0;
glyphname = _GxW.init;
layers = (
{
layerId = "E14AE757-7134-4DB9-897C-AD248BACE90D";
shapes = (
{
closed = 1;
nodes = (
(377,-196,l),
(412,-160,o),
(458,-121,o),
(516,-80,c),
(455,-11,l),
(416,-50,o),
(375,-99,o),
(334,-157,c)
);
},
{
closed = 1;
nodes = (
(776,-119,o),
(804,-108,o),
(819,-85,c),
(819,6,l),
(802,-22,o),
(774,-36,o),
(737,-36,c),
(702,-36,o),
(670,-10,o),
(639,41,c),
(625,64,o),
(612,89,o),
(599,117,c),
(564,193,o),
(541,275,o),
(530,364,c),
(915,364,l),
(915,444,l),
(521,444,l),
(507,575,o),
(471,667,o),
(413,719,c),
(381,746,o),
(339,760,o),
(287,760,c),
(235,760,o),
(191,745,o),
(155,716,c),
(118,686,o),
(91,644,o),
(72,590,c),
(54,538,o),
(45,480,o),
(45,417,c),
(45,299,o),
(88,174,o),
(174,42,c),
(245,85,l),
(204,144,o),
(173,200,o),
(154,251,c),
(134,302,o),
(124,358,o),
(124,417,c),
(124,466,o),
(130,509,o),
(141,548,c),
(152,586,o),
(170,617,o),
(193,641,c),
(217,665,o),
(248,677,o),
(287,677,c),
(323,677,o),
(352,667,o),
(373,646,c),
(394,625,o),
(410,594,o),
(421,553,c),
(432,514,o),
(440,469,o),
(445,418,c),
(460,280,o),
(494,154,o),
(547,41,c),
(572,-13,o),
(599,-53,o),
(628,-79,c),
(657,-106,o),
(693,-119,o),
(737,-119,c)
);
},
{
closed = 1;
nodes = (
(162,-196,l),
(197,-160,o),
(243,-121,o),
(301,-80,c),
(240,-11,l),
(201,-50,o),
(160,-99,o),
(119,-157,c)
);
}
);
width = 885;
}
);
},
{
export = 0;
glyphname = _GxW.medi;
layers = (
{
layerId = "E14AE757-7134-4DB9-897C-AD248BACE90D";
shapes = (
{
closed = 1;
nodes = (
(328,-196,l),
(363,-160,o),
(409,-121,o),
(467,-80,c),
(406,-11,l),
(367,-50,o),
(326,-99,o),
(285,-157,c)
);
},
{
closed = 1;
nodes = (
(728,-119,o),
(756,-108,o),
(771,-85,c),
(771,6,l),
(754,-22,o),
(726,-36,o),
(689,-36,c),
(654,-36,o),
(622,-10,o),
(591,41,c),
(577,64,o),
(564,89,o),
(551,117,c),
(516,193,o),
(493,275,o),
(482,364,c),
(867,364,l),
(867,444,l),
(473,444,l),
(459,575,o),
(423,667,o),
(365,719,c),
(333,746,o),
(291,760,o),
(239,760,c),
(187,760,o),
(143,745,o),
(107,716,c),
(70,686,o),
(43,644,o),
(24,590,c),
(6,538,o),
(-3,480,o),
(-3,417,c),
(-3,299,o),
(40,174,o),
(126,42,c),
(197,85,l),
(156,144,o),
(125,200,o),
(106,251,c),
(86,302,o),
(76,358,o),
(76,417,c),
(76,466,o),
(82,509,o),
(93,548,c),
(104,586,o),
(122,617,o),
(145,641,c),
(169,665,o),
(200,677,o),
(239,677,c),
(275,677,o),
(304,667,o),
(325,646,c),
(346,625,o),
(362,594,o),
(373,553,c),
(384,514,o),
(392,469,o),
(397,418,c),
(412,280,o),
(446,154,o),
(499,41,c),
(524,-13,o),
(551,-53,o),
(580,-79,c),
(609,-106,o),
(645,-119,o),
(689,-119,c)
);
},
{
closed = 1;
nodes = (
(114,-196,l),
(149,-160,o),
(195,-121,o),
(253,-80,c),
(192,-11,l),
(153,-50,o),
(112,-99,o),
(71,-157,c)
);
}
);
width = 837;
}
);
},
{
export = 0;
glyphname = _GxW.isol;
layers = (
{
layerId = "E14AE757-7134-4DB9-897C-AD248BACE90D";
shapes = (
{
closed = 1;
nodes = (
(376,-196,l),
(411,-160,o),
(457,-121,o),
(515,-80,c),
(454,-11,l),
(415,-50,o),
(374,-99,o),
(333,-157,c)
);
},
{
closed = 1;
nodes = (
(776,-119,o),
(804,-108,o),
(819,-85,c),
(819,6,l),
(802,-22,o),
(774,-36,o),
(737,-36,c),
(702,-36,o),
(670,-10,o),
(639,41,c),
(625,64,o),
(612,89,o),
(599,117,c),
(564,193,o),
(541,275,o),
(530,364,c),
(915,364,l),
(950,364,o),
(975,357,o),
(990,343,c),
(1005,328,o),
(1013,307,o),
(1013,279,c),
(1013,235,o),
(1006,196,o),
(991,162,c),
(1065,162,l),
(1082,196,o),
(1090,235,o),
(1090,279,c),
(1091,389,o),
(1032,444,o),
(915,444,c),
(521,444,l),
(507,575,o),
(471,667,o),
(413,719,c),
(381,746,o),
(339,760,o),
(287,760,c),
(235,760,o),
(191,745,o),
(155,716,c),
(118,686,o),
(91,644,o),
(72,590,c),
(54,538,o),
(45,480,o),
(45,417,c),
(45,299,o),
(88,174,o),
(174,42,c),
(245,85,l),
(204,144,o),
(173,200,o),
(154,251,c),
(134,302,o),
(124,358,o),
(124,417,c),
(124,466,o),
(130,509,o),
(141,548,c),
(152,586,o),
(170,617,o),
(193,641,c),
(217,665,o),
(248,677,o),
(287,677,c),
(336,677,o),
(372,657,o),
(395,616,c),
(418,575,o),
(435,509,o),
(445,418,c),
(460,280,o),
(494,154,o),
(547,41,c),
(572,-13,o),
(599,-53,o),
(628,-79,c),
(657,-106,o),
(693,-119,o),
(737,-119,c)
);
},
{
closed = 1;
nodes = (
(162,-196,l),
(197,-160,o),
(243,-121,o),
(301,-80,c),
(240,-11,l),
(201,-50,o),
(160,-99,o),
(119,-157,c)
);
}
);
width = 1135;
}
);
},
{
export = 0;
glyphname = _GxW.fina;
layers = (
{
layerId = "E14AE757-7134-4DB9-897C-AD248BACE90D";
shapes = (
{
closed = 1;
nodes = (
(328,-196,l),
(363,-160,o),
(409,-121,o),
(467,-80,c),
(406,-11,l),
(367,-50,o),
(326,-99,o),
(285,-157,c)
);
},
{
closed = 1;
nodes = (
(728,-119,o),
(756,-108,o),
(771,-85,c),
(771,6,l),
(754,-22,o),
(726,-36,o),
(689,-36,c),
(654,-36,o),
(622,-10,o),
(591,41,c),
(577,64,o),
(564,89,o),
(551,117,c),
(516,193,o),
(493,275,o),
(482,364,c),
(867,364,l),
(902,364,o),
(927,357,o),
(942,343,c),
(957,328,o),
(965,307,o),
(965,279,c),
(965,235,o),
(958,196,o),
(943,162,c),
(1017,162,l),
(1034,196,o),
(1042,235,o),
(1042,279,c),
(1043,389,o),
(984,444,o),
(867,444,c),
(473,444,l),
(459,575,o),
(423,667,o),
(365,719,c),
(333,746,o),
(291,760,o),
(239,760,c),
(187,760,o),
(143,745,o),
(107,716,c),
(70,686,o),
(43,644,o),
(24,590,c),
(6,538,o),
(-3,480,o),
(-3,417,c),
(-3,299,o),
(40,174,o),
(126,42,c),
(197,85,l),
(156,144,o),
(125,200,o),
(106,251,c),
(86,302,o),
(76,358,o),
(76,417,c),
(76,466,o),
(82,509,o),
(93,548,c),
(104,586,o),
(122,617,o),
(145,641,c),
(169,665,o),
(200,677,o),
(239,677,c),
(288,677,o),
(324,657,o),
(347,616,c),
(370,575,o),
(387,509,o),
(397,418,c),
(412,280,o),
(446,154,o),
(499,41,c),
(524,-13,o),
(551,-53,o),
(580,-79,c),
(609,-106,o),
(645,-119,o),
(689,-119,c)
);
},
{
closed = 1;
nodes = (
(114,-196,l),
(149,-160,o),
(195,-121,o),
(253,-80,c),
(192,-11,l),
(153,-50,o),
(112,-99,o),
(71,-157,c)
);
}
);
width = 1087;
}
);
},
{
export = 0;
glyphname = _BA.init;
layers = (
{
layerId = "E14AE757-7134-4DB9-897C-AD248BACE90D";
shapes = (
{
closed = 1;
nodes = (
(173,123,o),
(127,203,o),
(124,364,c),
(362,364,l),
(369,346,o),
(372,316,o),
(372,275,c),
(372,230,o),
(363,194,o),
(345,166,c),
(326,137,o),
(299,123,o),
(264,123,c)
);
},
{
closed = 1;
nodes = (
(340,40,o),
(393,77,o),
(428,152,c),
(443,187,o),
(451,228,o),
(451,275,c),
(451,295,o),
(449,324,o),
(444,361,c),
(439,398,o),
(434,425,o),
(428,444,c),
(124,444,l),
(126,546,o),
(161,620,o),
(228,666,c),
(262,688,o),
(303,699,o),
(352,699,c),
(422,699,o),
(475,671,o),
(512,616,c),
(549,561,o),
(571,477,o),
(579,364,c),
(598,96,l),
(664,96,l),
(683,364,l),
(893,364,l),
(893,444,l),
(652,444,l),
(635,579,o),
(586,677,o),
(506,738,c),
(465,767,o),
(413,782,o),
(352,782,c),
(220,782,o),
(129,722,o),
(80,603,c),
(57,547,o),
(45,482,o),
(45,408,c),
(45,163,o),
(120,40,o),
(271,40,c)
);
}
);
width = 863;
}
);
},
{
export = 0;
glyphname = _BA.medi;
layers = (
{
layerId = "E14AE757-7134-4DB9-897C-AD248BACE90D";
shapes = (
{
closed = 1;
nodes = (
(127,123,o),
(81,203,o),
(78,364,c),
(316,364,l),
(323,346,o),
(326,316,o),
(326,275,c),
(326,230,o),
(317,194,o),
(299,166,c),
(280,137,o),
(253,123,o),
(218,123,c)
);
},
{
closed = 1;
nodes = (
(294,40,o),
(347,77,o),
(382,152,c),
(397,187,o),
(405,228,o),
(405,275,c),
(405,295,o),
(403,324,o),
(398,361,c),
(393,398,o),
(388,425,o),
(382,444,c),
(78,444,l),
(80,546,o),
(115,620,o),
(182,666,c),
(216,688,o),
(257,699,o),
(306,699,c),
(376,699,o),
(429,671,o),
(466,616,c),
(503,561,o),
(525,477,o),
(533,364,c),
(552,96,l),
(618,96,l),
(637,364,l),
(847,364,l),
(847,444,l),
(606,444,l),
(589,579,o),
(540,677,o),
(460,738,c),
(419,767,o),
(367,782,o),
(306,782,c),
(174,782,o),
(83,722,o),
(34,603,c),
(11,547,o),
(-1,482,o),
(-1,408,c),
(-1,163,o),
(74,40,o),
(225,40,c)
);
}
);
width = 817;
}
);
},
{
export = 0;
glyphname = _BAa.isol;
layers = (
{
layerId = "E14AE757-7134-4DB9-897C-AD248BACE90D";
shapes = (
{
closed = 1;
nodes = (
(173,123,o),
(127,203,o),
(124,364,c),
(362,364,l),
(369,346,o),
(372,316,o),
(372,275,c),
(372,230,o),
(363,194,o),
(345,166,c),
(326,137,o),
(299,123,o),
(264,123,c)
);
},
{
closed = 1;
nodes = (
(946,-264,l),
(932,-237,o),
(925,-212,o),
(925,-187,c),
(925,-157,o),
(930,-132,o),
(940,-111,c),
(949,-90,o),
(967,-64,o),
(992,-31,c),
(1035,25,o),
(1068,75,o),
(1091,119,c),
(1114,162,o),
(1125,204,o),
(1125,245,c),
(1123,378,o),
(1046,444,o),
(894,444,c),
(652,444,l),
(635,579,o),
(586,677,o),
(506,738,c),
(465,767,o),
(413,782,o),
(352,782,c),
(220,782,o),
(129,722,o),
(80,603,c),
(57,547,o),
(45,482,o),
(45,408,c),
(45,163,o),
(120,40,o),
(270,40,c),
(341,40,o),
(394,78,o),
(428,153,c),
(443,188,o),
(451,229,o),
(451,275,c),
(451,295,o),
(449,324,o),
(444,361,c),
(439,398,o),
(434,425,o),
(428,444,c),
(124,444,l),
(126,546,o),
(161,620,o),
(228,666,c),
(262,688,o),
(303,699,o),
(352,699,c),
(422,699,o),
(475,671,o),
(512,616,c),
(549,561,o),
(571,477,o),
(579,364,c),
(598,96,l),
(664,96,l),
(683,364,l),
(893,364,l),
(996,365,o),
(1047,325,o),
(1047,245,c),
(1047,213,o),
(1039,181,o),
(1022,148,c),
(1005,115,o),
(977,75,o),
(940,28,c),
(909,-13,o),
(885,-50,o),
(869,-83,c),
(853,-116,o),
(845,-151,o),
(845,-187,c),
(845,-214,o),
(851,-239,o),
(864,-264,c)
);
}
);
width = 1170;
}
);
},
{
export = 0;
glyphname = _BAa.fina;
layers = (
{
layerId = "E14AE757-7134-4DB9-897C-AD248BACE90D";
shapes = (
{
closed = 1;
nodes = (
(127,123,o),
(81,203,o),
(78,364,c),
(316,364,l),
(323,346,o),
(326,316,o),
(326,275,c),
(326,230,o),
(317,194,o),
(299,166,c),
(280,137,o),
(253,123,o),
(218,123,c)
);
},
{
closed = 1;
nodes = (
(900,-264,l),
(886,-237,o),
(879,-212,o),
(879,-187,c),
(879,-157,o),
(884,-132,o),
(894,-111,c),
(903,-90,o),
(921,-64,o),
(946,-31,c),
(989,25,o),
(1022,75,o),
(1045,119,c),
(1068,162,o),
(1079,204,o),
(1079,245,c),
(1077,378,o),
(1000,444,o),
(848,444,c),
(606,444,l),
(589,579,o),
(540,677,o),
(460,738,c),
(419,767,o),
(367,782,o),
(306,782,c),
(174,782,o),
(83,722,o),
(34,603,c),
(11,547,o),
(-1,482,o),
(-1,408,c),
(-1,163,o),
(74,40,o),
(224,40,c),
(295,40,o),
(348,78,o),
(382,153,c),
(397,188,o),
(405,229,o),
(405,275,c),
(405,295,o),
(403,324,o),
(398,361,c),
(393,398,o),
(388,425,o),
(382,444,c),
(78,444,l),
(80,546,o),
(115,620,o),
(182,666,c),
(216,688,o),
(257,699,o),
(306,699,c),
(376,699,o),
(429,671,o),
(466,616,c),
(503,561,o),
(525,477,o),
(533,364,c),
(552,96,l),
(618,96,l),
(637,364,l),
(847,364,l),
(950,365,o),
(1001,325,o),
(1001,245,c),
(1001,213,o),
(993,181,o),
(976,148,c),
(959,115,o),
(931,75,o),
(894,28,c),
(863,-13,o),
(839,-50,o),
(823,-83,c),
(807,-116,o),
(799,-151,o),
(799,-187,c),
(799,-214,o),
(805,-239,o),
(818,-264,c)
);
}
);
width = 1124;
}
);
},
{
export = 0;
glyphname = _BI.init;
layers = (
{
layerId = "E14AE757-7134-4DB9-897C-AD248BACE90D";
shapes = (
{
closed = 1;
nodes = (
(173,123,o),
(127,203,o),
(124,364,c),
(362,364,l),
(369,345,o),
(372,314,o),
(372,271,c),
(372,227,o),
(363,191,o),
(344,164,c),
(325,137,o),
(298,123,o),
(264,123,c)
);
},
{
closed = 1;
nodes = (
(802,-31,l),
(721,113,o),
(667,245,o),
(642,364,c),
(947,364,l),
(947,444,l),
(627,444,l),
(602,589,o),
(554,688,o),
(481,741,c),
(442,768,o),
(391,782,o),
(330,782,c),
(242,782,o),
(172,749,o),
(121,683,c),
(70,618,o),
(45,526,o),
(45,408,c),
(44,163,o),
(119,40,o),
(272,40,c),
(343,40,o),
(396,78,o),
(429,154,c),
(444,190,o),
(451,230,o),
(451,275,c),
(451,295,o),
(449,324,o),
(444,361,c),
(439,398,o),
(434,425,o),
(428,444,c),
(124,444,l),
(125,545,o),
(156,619,o),
(217,666,c),
(248,688,o),
(285,699,o),
(330,699,c),
(375,699,o),
(413,688,o),
(442,666,c),
(471,643,o),
(495,610,o),
(513,567,c),
(530,525,o),
(543,475,o),
(552,418,c),
(569,324,o),
(588,249,o),
(609,192,c),
(634,126,o),
(674,40,o),
(729,-67,c)
);
}
);
width = 917;
}
);
},
{
export = 0;
glyphname = _BI.medi;
layers = (
{
layerId = "E14AE757-7134-4DB9-897C-AD248BACE90D";
shapes = (
{
closed = 1;
nodes = (
(127,123,o),
(81,203,o),
(78,364,c),
(316,364,l),
(323,345,o),
(326,314,o),
(326,271,c),
(326,227,o),
(317,191,o),
(298,164,c),
(279,137,o),
(252,123,o),
(218,123,c)
);
},
{
closed = 1;
nodes = (
(756,-31,l),
(675,113,o),
(621,245,o),
(596,364,c),
(901,364,l),
(901,444,l),
(581,444,l),
(556,589,o),
(508,688,o),
(435,741,c),
(396,768,o),
(345,782,o),
(284,782,c),
(196,782,o),
(126,749,o),
(75,683,c),
(24,618,o),
(-1,526,o),
(-1,408,c),
(-2,163,o),
(73,40,o),
(226,40,c),
(297,40,o),
(350,78,o),
(383,154,c),
(398,190,o),
(405,230,o),
(405,275,c),
(405,295,o),
(403,324,o),
(398,361,c),
(393,398,o),
(388,425,o),
(382,444,c),
(78,444,l),
(79,545,o),
(110,619,o),
(171,666,c),
(202,688,o),
(239,699,o),
(284,699,c),
(329,699,o),
(367,688,o),
(396,666,c),
(425,643,o),
(449,610,o),
(467,567,c),
(484,525,o),
(497,475,o),
(506,418,c),
(523,324,o),
(542,249,o),
(563,192,c),
(588,126,o),
(628,40,o),
(683,-67,c)
);
}
);
width = 871;
}
);
},
{
export = 0;
glyphname = _BI.isol;
layers = (
{
layerId = "E14AE757-7134-4DB9-897C-AD248BACE90D";
shapes = (
{
closed = 1;
nodes = (
(173,123,o),
(127,203,o),
(124,364,c),
(362,364,l),
(369,346,o),
(372,316,o),
(372,275,c),
(372,230,o),
(363,194,o),
(345,166,c),
(326,137,o),
(299,123,o),
(264,123,c)
);
},
{
closed = 1;
nodes = (
(802,-31,l),
(721,113,o),
(667,245,o),
(642,364,c),
(947,364,l),
(982,364,o),
(1007,357,o),
(1022,343,c),
(1037,328,o),
(1045,307,o),
(1045,279,c),
(1045,234,o),
(1038,195,o),
(1023,162,c),
(1097,162,l),
(1114,198,o),
(1122,237,o),
(1122,279,c),
(1123,389,o),
(1064,444,o),
(947,444,c),
(627,444,l),
(602,589,o),
(554,688,o),
(481,741,c),
(442,768,o),
(391,782,o),
(330,782,c),
(267,782,o),
(215,766,o),
(172,735,c),
(129,704,o),
(97,659,o),
(76,601,c),
(55,544,o),
(45,480,o),
(45,408,c),
(45,163,o),
(120,40,o),
(270,40,c),
(339,40,o),
(392,78,o),
(428,153,c),
(443,188,o),
(451,229,o),
(451,275,c),
(451,295,o),
(449,324,o),
(444,361,c),
(439,398,o),
(434,425,o),
(428,444,c),
(124,444,l),
(125,545,o),
(156,619,o),
(217,666,c),
(248,688,o),
(285,699,o),
(330,699,c),
(375,699,o),
(413,688,o),
(442,666,c),
(471,643,o),
(495,610,o),
(513,567,c),
(530,525,o),
(543,475,o),
(552,418,c),
(566,335,o),
(585,259,o),
(609,192,c),
(629,136,o),
(669,50,o),
(729,-67,c)
);
}
);
width = 1167;
}
);
},
{
export = 0;
glyphname = _BI.fina;
layers = (
{
layerId = "E14AE757-7134-4DB9-897C-AD248BACE90D";
shapes = (
{
closed = 1;
nodes = (
(127,123,o),
(81,203,o),
(78,364,c),
(316,364,l),
(323,346,o),
(326,316,o),
(326,275,c),
(326,230,o),
(317,194,o),
(299,166,c),
(280,137,o),
(253,123,o),
(218,123,c)
);
},
{
closed = 1;
nodes = (
(756,-31,l),
(675,113,o),
(621,245,o),
(596,364,c),
(901,364,l),
(936,364,o),
(961,357,o),
(976,343,c),
(991,328,o),
(999,307,o),
(999,279,c),
(999,234,o),
(992,195,o),
(977,162,c),
(1051,162,l),
(1068,198,o),
(1076,237,o),
(1076,279,c),
(1077,389,o),
(1018,444,o),
(901,444,c),
(581,444,l),
(556,589,o),
(508,688,o),
(435,741,c),
(396,768,o),
(345,782,o),
(284,782,c),
(221,782,o),
(169,766,o),
(126,735,c),
(83,704,o),
(51,659,o),
(30,601,c),
(9,544,o),
(-1,480,o),
(-1,408,c),
(-1,163,o),
(74,40,o),
(224,40,c),
(293,40,o),
(346,78,o),
(382,153,c),
(397,188,o),
(405,229,o),
(405,275,c),
(405,295,o),
(403,324,o),
(398,361,c),
(393,398,o),
(388,425,o),
(382,444,c),
(78,444,l),
(79,545,o),
(110,619,o),
(171,666,c),
(202,688,o),
(239,699,o),
(284,699,c),
(329,699,o),
(367,688,o),
(396,666,c),
(425,643,o),
(449,610,o),
(467,567,c),
(484,525,o),
(497,475,o),
(506,418,c),
(520,335,o),
(539,259,o),
(563,192,c),
(583,136,o),
(623,50,o),
(683,-67,c)
);
}
);
width = 1121;
}
);
},
{
export = 0;
glyphname = _BO.init;
layers = (
{
layerId = "E14AE757-7134-4DB9-897C-AD248BACE90D";
shapes = (
{
closed = 1;
nodes = (
(127,444,l),
(136,527,o),
(164,590,o),
(211,634,c),
(257,677,o),
(322,699,o),
(405,699,c),
(505,699,o),
(578,659,o),
(625,578,c),
(647,539,o),
(661,495,o),
(668,444,c)
);
},
{
closed = 1;
nodes = (
(216,123,o),
(190,133,o),
(171,153,c),
(152,172,o),
(140,201,o),
(134,239,c),
(127,276,o),
(124,317,o),
(124,364,c),
(359,364,l),
(359,286,l),
(359,238,o),
(350,199,o),
(331,169,c),
(312,138,o),
(285,123,o),
(249,123,c)
);
},
{
closed = 1;
nodes = (
(471,123,o),
(438,177,o),
(438,286,c),
(438,364,l),
(673,364,l),
(672,247,o),
(653,175,o),
(617,147,c),
(598,131,o),
(571,123,o),
(538,123,c)
);
},
{
closed = 1;
nodes = (
(282,40,o),
(311,48,o),
(338,65,c),
(364,81,o),
(383,104,o),
(396,135,c),
(426,72,o),
(473,40,o),
(538,40,c),
(681,40,o),
(753,148,o),
(752,364,c),
(963,364,l),
(963,444,l),
(748,444,l),
(731,585,o),
(673,684,o),
(574,741,c),
(525,768,o),
(469,782,o),
(405,782,c),
(330,782,o),
(266,765,o),
(213,732,c),
(159,698,o),
(117,650,o),
(88,588,c),
(59,527,o),
(45,456,o),
(45,375,c),
(45,264,o),
(62,180,o),
(95,124,c),
(128,68,o),
(179,40,o),
(249,40,c)
);
}
);
width = 933;
}
);
},
{
export = 0;
glyphname = _BO.medi;
layers = (
{
layerId = "E14AE757-7134-4DB9-897C-AD248BACE90D";
shapes = (
{
closed = 1;
nodes = (
(81,444,l),
(90,527,o),
(118,590,o),
(165,634,c),
(211,677,o),
(276,699,o),
(359,699,c),
(459,699,o),
(532,659,o),
(579,578,c),
(601,539,o),
(615,495,o),
(622,444,c)
);
},
{
closed = 1;
nodes = (
(170,123,o),
(144,133,o),
(125,153,c),
(106,172,o),
(94,201,o),
(88,239,c),
(81,276,o),
(78,317,o),
(78,364,c),
(313,364,l),
(313,286,l),
(313,238,o),
(304,199,o),
(285,169,c),
(266,138,o),
(239,123,o),
(203,123,c)
);
},
{
closed = 1;
nodes = (
(425,123,o),
(392,177,o),
(392,286,c),
(392,364,l),
(627,364,l),
(626,247,o),
(607,175,o),
(571,147,c),
(552,131,o),
(525,123,o),
(492,123,c)
);
},
{
closed = 1;
nodes = (
(236,40,o),
(265,48,o),
(292,65,c),
(318,81,o),
(337,104,o),
(350,135,c),
(380,72,o),
(427,40,o),
(492,40,c),
(635,40,o),
(707,148,o),
(706,364,c),
(917,364,l),
(917,444,l),
(702,444,l),
(685,585,o),
(627,684,o),
(528,741,c),
(479,768,o),
(423,782,o),
(359,782,c),
(284,782,o),
(220,765,o),
(167,732,c),
(113,698,o),
(71,650,o),
(42,588,c),
(13,527,o),
(-1,456,o),
(-1,375,c),
(-1,264,o),
(16,180,o),
(49,124,c),
(82,68,o),
(133,40,o),
(203,40,c)
);
}
);
width = 883;
}
);
},
{
export = 0;
glyphname = _BO.isol;
layers = (
{
layerId = "E14AE757-7134-4DB9-897C-AD248BACE90D";
shapes = (
{
closed = 1;
nodes = (
(127,444,l),
(136,527,o),
(164,590,o),
(211,634,c),
(257,677,o),
(322,699,o),
(405,699,c),
(505,699,o),
(578,659,o),
(625,578,c),
(647,539,o),
(661,495,o),
(668,444,c)
);
},
{
closed = 1;
nodes = (
(216,123,o),
(190,133,o),
(171,153,c),
(152,172,o),
(140,201,o),
(134,239,c),
(127,276,o),
(124,317,o),
(124,364,c),
(359,364,l),
(359,286,l),
(359,238,o),
(350,199,o),
(331,169,c),
(312,138,o),
(285,123,o),
(249,123,c)
);
},
{
closed = 1;
nodes = (
(471,123,o),
(438,177,o),
(438,286,c),
(438,364,l),
(673,364,l),
(672,247,o),
(653,175,o),
(617,147,c),
(598,131,o),
(571,123,o),
(538,123,c)
);
},
{
closed = 1;
nodes = (
(282,40,o),
(311,48,o),
(338,65,c),
(364,81,o),
(383,104,o),
(396,135,c),
(426,72,o),
(473,40,o),
(538,40,c),
(611,40,o),
(665,67,o),
(700,122,c),
(735,176,o),
(752,260,o),
(752,375,c),
(752,453,o),
(739,523,o),
(712,584,c),
(685,645,o),
(647,694,o),
(596,729,c),
(545,764,o),
(481,782,o),
(405,782,c),
(330,782,o),
(266,765,o),
(213,732,c),
(159,698,o),
(117,650,o),
(88,588,c),
(59,527,o),
(45,456,o),
(45,375,c),
(45,264,o),
(62,180,o),
(95,124,c),
(128,68,o),
(179,40,o),
(249,40,c)
);
}
);
width = 797;
}
);
},
{
export = 0;
glyphname = _BO.fina;
layers = (
{
layerId = "E14AE757-7134-4DB9-897C-AD248BACE90D";
shapes = (
{
closed = 1;
nodes = (
(81,444,l),
(90,527,o),
(118,590,o),
(165,634,c),
(211,677,o),
(276,699,o),
(359,699,c),
(459,699,o),
(532,659,o),
(579,578,c),
(601,539,o),
(615,495,o),
(622,444,c)
);
},
{
closed = 1;
nodes = (
(170,123,o),
(144,133,o),
(125,153,c),
(106,172,o),
(94,201,o),
(88,239,c),
(81,276,o),
(78,317,o),
(78,364,c),
(313,364,l),
(313,286,l),
(313,238,o),
(304,199,o),
(285,169,c),
(266,138,o),
(239,123,o),
(203,123,c)
);
},
{
closed = 1;
nodes = (
(425,123,o),
(392,177,o),
(392,286,c),
(392,364,l),
(627,364,l),
(626,247,o),
(607,175,o),
(571,147,c),
(552,131,o),
(525,123,o),
(492,123,c)
);
},
{
closed = 1;
nodes = (
(236,40,o),
(265,48,o),
(292,65,c),
(318,81,o),
(337,104,o),
(350,135,c),
(380,72,o),
(427,40,o),
(492,40,c),
(565,40,o),
(619,67,o),
(654,122,c),
(689,176,o),
(706,260,o),
(706,375,c),
(706,453,o),
(693,523,o),
(666,584,c),
(639,645,o),
(601,694,o),
(550,729,c),
(499,764,o),
(435,782,o),
(359,782,c),
(284,782,o),
(220,765,o),
(167,732,c),
(113,698,o),
(71,650,o),
(42,588,c),
(13,527,o),
(-1,456,o),
(-1,375,c),
(-1,264,o),
(16,180,o),
(49,124,c),
(82,68,o),
(133,40,o),
(203,40,c)
);
}
);
width = 751;
}
);
},
{
export = 0;
glyphname = _BOI.init;
layers = (
{
layerId = "E14AE757-7134-4DB9-897C-AD248BACE90D";
shapes = (
{
closed = 1;
nodes = (
(127,444,l),
(150,614,o),
(242,699,o),
(405,699,c),
(505,699,o),
(578,659,o),
(625,578,c),
(647,539,o),
(661,495,o),
(668,444,c)
);
},
{
closed = 1;
nodes = (
(214,123,o),
(188,133,o),
(170,153,c),
(151,173,o),
(139,202,o),
(133,241,c),
(127,278,o),
(124,319,o),
(124,364,c),
(359,364,l),
(359,281,l),
(359,234,o),
(349,196,o),
(330,167,c),
(310,138,o),
(283,123,o),
(248,123,c)
);
},
{
closed = 1;
nodes = (
(471,123,o),
(438,177,o),
(438,286,c),
(438,364,l),
(673,364,l),
(672,247,o),
(653,175,o),
(617,147,c),
(598,131,o),
(571,123,o),
(538,123,c)
);
},
{
closed = 1;
nodes = (
(1109,-31,l),
(1036,98,o),
(981,229,o),
(942,364,c),
(1254,364,l),
(1254,444,l),
(748,444,l),
(731,585,o),
(674,684,o),
(575,741,c),
(527,768,o),
(470,782,o),
(405,782,c),
(331,782,o),
(267,765,o),
(213,731,c),
(159,697,o),
(117,649,o),
(88,587,c),
(59,526,o),
(45,455,o),
(45,375,c),
(45,264,o),
(62,180,o),
(95,124,c),
(128,68,o),
(179,40,o),
(249,40,c),
(282,40,o),
(311,48,o),
(338,65,c),
(364,81,o),
(383,104,o),
(396,135,c),
(426,72,o),
(473,40,o),
(538,40,c),
(681,40,o),
(753,148,o),
(752,364,c),
(863,364,l),
(902,219,o),
(959,75,o),
(1036,-67,c)
);
}
);
width = 1224;
}
);
},
{
export = 0;
glyphname = _BOI.medi;
layers = (
{
layerId = "E14AE757-7134-4DB9-897C-AD248BACE90D";
shapes = (
{
closed = 1;
nodes = (
(81,444,l),
(104,614,o),
(196,699,o),
(359,699,c),
(459,699,o),
(532,659,o),
(579,578,c),
(601,539,o),
(615,495,o),
(622,444,c)
);
},
{
closed = 1;
nodes = (
(168,123,o),
(142,133,o),
(124,153,c),
(105,173,o),
(93,202,o),
(87,241,c),
(81,278,o),
(78,319,o),
(78,364,c),
(313,364,l),
(313,281,l),
(313,234,o),
(303,196,o),
(284,167,c),
(264,138,o),
(237,123,o),
(202,123,c)
);
},
{
closed = 1;
nodes = (
(425,123,o),
(392,177,o),
(392,286,c),
(392,364,l),
(627,364,l),
(626,247,o),
(607,175,o),
(571,147,c),
(552,131,o),
(525,123,o),
(492,123,c)
);
},
{
closed = 1;
nodes = (
(1063,-31,l),
(990,98,o),
(935,229,o),
(896,364,c),
(1208,364,l),
(1208,444,l),
(702,444,l),
(685,585,o),
(628,684,o),
(529,741,c),
(481,768,o),
(424,782,o),
(359,782,c),
(285,782,o),
(221,765,o),
(167,731,c),
(113,697,o),
(71,649,o),
(42,587,c),
(13,526,o),
(-1,455,o),
(-1,375,c),
(-1,264,o),
(16,180,o),
(49,124,c),
(82,68,o),
(133,40,o),
(203,40,c),
(236,40,o),
(265,48,o),
(292,65,c),
(318,81,o),
(337,104,o),
(350,135,c),
(380,72,o),
(427,40,o),
(492,40,c),
(635,40,o),
(707,148,o),
(706,364,c),
(817,364,l),
(856,219,o),
(913,75,o),
(990,-67,c)
);
}
);
width = 1178;
}
);
},
{
export = 0;
glyphname = _BUe.isol;
layers = (
{
layerId = "E14AE757-7134-4DB9-897C-AD248BACE90D";
shapes = (
{
closed = 1;
nodes = (
(127,444,l),
(136,527,o),
(164,590,o),
(211,634,c),
(257,677,o),
(322,699,o),
(405,699,c),
(505,699,o),
(578,659,o),
(625,578,c),
(647,539,o),
(661,495,o),
(668,444,c)
);
},
{
closed = 1;
nodes = (
(215,123,o),
(189,133,o),
(171,153,c),
(152,172,o),
(140,201,o),
(134,239,c),
(127,276,o),
(124,317,o),
(124,364,c),
(359,364,l),
(359,282,l),
(359,235,o),
(350,196,o),
(331,167,c),
(312,138,o),
(284,123,o),
(248,123,c)
);
},
{
closed = 1;
nodes = (
(471,123,o),
(438,177,o),
(438,286,c),
(438,364,l),
(673,364,l),
(672,247,o),
(653,175,o),
(617,147,c),
(598,131,o),
(571,123,o),
(538,123,c)
);
},
{
closed = 1;
nodes = (
(282,40,o),
(311,48,o),
(338,65,c),
(364,81,o),
(383,104,o),
(396,135,c),
(426,72,o),
(473,40,o),
(538,40,c),
(681,40,o),
(753,148,o),
(752,364,c),
(963,364,l),
(998,364,o),
(1023,357,o),
(1038,343,c),
(1053,328,o),
(1061,307,o),
(1061,279,c),
(1061,235,o),
(1054,196,o),
(1039,162,c),
(1113,162,l),
(1130,197,o),
(1138,236,o),
(1138,279,c),
(1139,389,o),
(1080,444,o),
(963,444,c),
(748,444,l),
(731,585,o),
(674,684,o),
(575,741,c),
(527,768,o),
(470,782,o),
(405,782,c),
(330,782,o),
(266,765,o),
(213,732,c),
(159,698,o),
(117,650,o),
(88,588,c),
(59,527,o),
(45,456,o),
(45,375,c),
(45,264,o),
(62,180,o),
(95,124,c),
(128,68,o),
(179,40,o),
(249,40,c)
);
}
);
width = 1183;
}
);
},
{
export = 0;
glyphname = _BUe.fina;
layers = (
{
layerId = "E14AE757-7134-4DB9-897C-AD248BACE90D";
shapes = (
{
closed = 1;
nodes = (
(81,444,l),
(90,527,o),
(118,590,o),
(165,634,c),
(211,677,o),
(276,699,o),
(359,699,c),
(459,699,o),
(532,659,o),
(579,578,c),
(601,539,o),
(615,495,o),
(622,444,c)
);
},
{
closed = 1;
nodes = (
(169,123,o),
(143,133,o),
(125,153,c),
(106,172,o),
(94,201,o),
(88,239,c),
(81,276,o),
(78,317,o),
(78,364,c),
(313,364,l),
(313,282,l),
(313,235,o),
(304,196,o),
(285,167,c),
(266,138,o),
(238,123,o),
(202,123,c)
);
},
{
closed = 1;
nodes = (
(425,123,o),
(392,177,o),
(392,286,c),
(392,364,l),
(627,364,l),
(626,247,o),
(607,175,o),
(571,147,c),
(552,131,o),
(525,123,o),
(492,123,c)
);
},
{
closed = 1;
nodes = (
(236,40,o),
(265,48,o),
(292,65,c),
(318,81,o),
(337,104,o),
(350,135,c),
(380,72,o),
(427,40,o),
(492,40,c),
(635,40,o),
(707,148,o),
(706,364,c),
(917,364,l),
(952,364,o),
(977,357,o),
(992,343,c),
(1007,328,o),
(1015,307,o),
(1015,279,c),
(1015,235,o),
(1008,196,o),
(993,162,c),
(1067,162,l),
(1084,197,o),
(1092,236,o),
(1092,279,c),
(1093,389,o),
(1034,444,o),
(917,444,c),
(702,444,l),
(685,585,o),
(628,684,o),
(529,741,c),
(481,768,o),
(424,782,o),
(359,782,c),
(284,782,o),
(220,765,o),
(167,732,c),
(113,698,o),
(71,650,o),
(42,588,c),
(13,527,o),
(-1,456,o),
(-1,375,c),
(-1,264,o),
(16,180,o),
(49,124,c),
(82,68,o),
(133,40,o),
(203,40,c)
);
}
);
width = 1137;
}
);
},
{
export = 0;
glyphname = _BW.init;
layers = (
{
layerId = "E14AE757-7134-4DB9-897C-AD248BACE90D";
shapes = (
{
closed = 1;
nodes = (
(173,123,o),
(127,203,o),
(124,364,c),
(362,364,l),
(369,346,o),
(372,316,o),
(372,275,c),
(372,230,o),
(363,194,o),
(345,166,c),
(326,137,o),
(299,123,o),
(264,123,c)
);
},
{
closed = 1;
nodes = (
(897,-119,o),
(925,-108,o),
(940,-85,c),
(940,6,l),
(921,-22,o),
(893,-36,o),
(855,-36,c),
(820,-36,o),
(784,-3,o),
(747,63,c),
(730,92,o),
(715,125,o),
(701,161,c),
(672,234,o),
(652,301,o),
(641,364,c),
(1036,364,l),
(1036,444,l),
(626,444,l),
(603,588,o),
(554,687,o),
(480,740,c),
(441,768,o),
(391,782,o),
(330,782,c),
(267,782,o),
(215,766,o),
(172,735,c),
(129,704,o),
(97,659,o),
(76,601,c),
(55,544,o),
(45,480,o),
(45,408,c),
(45,163,o),
(120,40,o),
(271,40,c),
(342,40,o),
(395,78,o),
(429,154,c),
(444,190,o),
(451,230,o),
(451,275,c),
(451,295,o),
(449,324,o),
(444,361,c),
(439,398,o),
(434,425,o),
(428,444,c),
(124,444,l),
(125,545,o),
(156,619,o),
(217,666,c),
(248,688,o),
(285,699,o),
(330,699,c),
(375,699,o),
(413,688,o),
(442,666,c),
(471,643,o),
(495,610,o),
(513,567,c),
(530,525,o),
(543,475,o),
(552,418,c),
(577,276,o),
(615,150,o),
(667,41,c),
(692,-12,o),
(719,-52,o),
(748,-79,c),
(777,-106,o),
(814,-119,o),
(858,-119,c)
);
}
);
width = 1006;
}
);
},
{
export = 0;
glyphname = _BW.medi;
layers = (
{
layerId = "E14AE757-7134-4DB9-897C-AD248BACE90D";
shapes = (
{
closed = 1;
nodes = (
(127,123,o),
(81,203,o),
(78,364,c),
(316,364,l),
(323,346,o),
(326,316,o),
(326,275,c),
(326,230,o),
(317,194,o),
(299,166,c),
(280,137,o),
(253,123,o),
(218,123,c)
);
},
{
closed = 1;
nodes = (
(851,-119,o),
(879,-108,o),
(894,-85,c),
(894,6,l),
(875,-22,o),
(847,-36,o),
(809,-36,c),
(774,-36,o),
(738,-3,o),
(701,63,c),
(684,92,o),
(669,125,o),
(655,161,c),
(626,234,o),
(606,301,o),
(595,364,c),
(990,364,l),
(990,444,l),
(580,444,l),
(557,588,o),
(508,687,o),
(434,740,c),
(395,768,o),
(345,782,o),
(284,782,c),
(221,782,o),
(169,766,o),
(126,735,c),
(83,704,o),
(51,659,o),
(30,601,c),
(9,544,o),
(-1,480,o),
(-1,408,c),
(-1,163,o),
(74,40,o),
(225,40,c),
(296,40,o),
(349,78,o),
(383,154,c),
(398,190,o),
(405,230,o),
(405,275,c),
(405,295,o),
(403,324,o),
(398,361,c),
(393,398,o),
(388,425,o),
(382,444,c),
(78,444,l),
(79,545,o),
(110,619,o),
(171,666,c),
(202,688,o),
(239,699,o),
(284,699,c),
(329,699,o),
(367,688,o),
(396,666,c),
(425,643,o),
(449,610,o),
(467,567,c),
(484,525,o),
(497,475,o),
(506,418,c),
(531,276,o),
(569,150,o),
(621,41,c),
(646,-12,o),
(673,-52,o),
(702,-79,c),
(731,-106,o),
(768,-119,o),
(812,-119,c)
);
}
);
width = 960;
}
);
},
{
export = 0;
glyphname = _BW.isol;
layers = (
{
layerId = "E14AE757-7134-4DB9-897C-AD248BACE90D";
shapes = (
{
closed = 1;
nodes = (
(173,123,o),
(127,203,o),
(124,364,c),
(362,364,l),
(369,346,o),
(372,316,o),
(372,275,c),
(372,230,o),
(363,194,o),
(345,166,c),
(326,137,o),
(299,123,o),
(264,123,c)
);
},
{
closed = 1;
nodes = (
(897,-119,o),
(925,-108,o),
(940,-85,c),
(940,6,l),
(921,-22,o),
(894,-36,o),
(858,-36,c),
(834,-36,o),
(811,-24,o),
(790,-1,c),
(769,22,o),
(747,57,o),
(725,106,c),
(686,189,o),
(658,275,o),
(641,364,c),
(1036,364,l),
(1071,364,o),
(1096,357,o),
(1111,343,c),
(1126,328,o),
(1134,307,o),
(1134,279,c),
(1134,236,o),
(1127,197,o),
(1112,162,c),
(1186,162,l),
(1203,196,o),
(1211,235,o),
(1211,279,c),
(1212,389,o),
(1153,444,o),
(1036,444,c),
(626,444,l),
(600,590,o),
(551,689,o),
(480,740,c),
(441,768,o),
(391,782,o),
(330,782,c),
(267,782,o),
(215,766,o),
(172,735,c),
(129,704,o),
(97,659,o),
(76,601,c),
(55,544,o),
(45,480,o),
(45,408,c),
(45,163,o),
(120,40,o),
(271,40,c),
(340,40,o),
(393,78,o),
(428,153,c),
(443,188,o),
(451,229,o),
(451,275,c),
(451,295,o),
(449,324,o),
(444,361,c),
(439,398,o),
(434,425,o),
(428,444,c),
(124,444,l),
(125,545,o),
(156,619,o),
(217,666,c),
(248,688,o),
(285,699,o),
(330,699,c),
(375,699,o),
(413,688,o),
(442,666,c),
(471,643,o),
(495,610,o),
(512,567,c),
(529,525,o),
(542,475,o),
(552,418,c),
(577,276,o),
(615,150,o),
(667,41,c),
(692,-12,o),
(719,-52,o),
(748,-79,c),
(777,-106,o),
(814,-119,o),
(858,-119,c)
);
}
);
width = 1256;
}
);
},
{
export = 0;
glyphname = _BW.fina;
layers = (
{
layerId = "E14AE757-7134-4DB9-897C-AD248BACE90D";
shapes = (
{
closed = 1;
nodes = (
(127,123,o),
(81,203,o),
(78,364,c),
(316,364,l),
(323,346,o),
(326,316,o),
(326,275,c),
(326,230,o),
(317,194,o),
(299,166,c),
(280,137,o),
(253,123,o),
(218,123,c)
);
},
{
closed = 1;
nodes = (
(851,-119,o),
(879,-108,o),
(894,-85,c),
(894,6,l),
(875,-22,o),
(848,-36,o),
(812,-36,c),
(788,-36,o),
(765,-24,o),
(744,-1,c),
(723,22,o),
(701,57,o),
(679,106,c),
(640,189,o),
(612,275,o),
(595,364,c),
(990,364,l),
(1025,364,o),
(1050,357,o),
(1065,343,c),
(1080,328,o),
(1088,307,o),
(1088,279,c),
(1088,236,o),
(1081,197,o),
(1066,162,c),
(1140,162,l),
(1157,196,o),
(1165,235,o),
(1165,279,c),
(1166,389,o),
(1107,444,o),
(990,444,c),
(580,444,l),
(554,590,o),
(505,689,o),
(434,740,c),
(395,768,o),
(345,782,o),
(284,782,c),
(221,782,o),
(169,766,o),
(126,735,c),
(83,704,o),
(51,659,o),
(30,601,c),
(9,544,o),
(-1,480,o),
(-1,408,c),
(-1,163,o),
(74,40,o),
(225,40,c),
(294,40,o),
(347,78,o),
(382,153,c),
(397,188,o),
(405,229,o),
(405,275,c),
(405,295,o),
(403,324,o),
(398,361,c),
(393,398,o),
(388,425,o),
(382,444,c),
(78,444,l),
(79,545,o),
(110,619,o),
(171,666,c),
(202,688,o),
(239,699,o),
(284,699,c),
(329,699,o),
(367,688,o),
(396,666,c),
(425,643,o),
(449,610,o),
(466,567,c),
(483,525,o),
(496,475,o),
(506,418,c),
(531,276,o),
(569,150,o),
(621,41,c),
(646,-12,o),
(673,-52,o),
(702,-79,c),
(731,-106,o),
(768,-119,o),
(812,-119,c)
);
}
);
width = 1210;
}
);
},
{
export = 0;
glyphname = _PA.init;
layers = (
{
layerId = "E14AE757-7134-4DB9-897C-AD248BACE90D";
shapes = (
{
closed = 1;
nodes = (
(62,42,l),
(83,54,o),
(107,62,o),
(134,67,c),
(160,71,o),
(192,73,o),
(231,73,c),
(307,73,o),
(362,106,o),
(395,171,c),
(410,202,o),
(418,236,o),
(418,275,c),
(418,332,o),
(411,389,o),
(397,444,c),
(124,444,l),
(125,545,o),
(156,619,o),
(217,666,c),
(248,688,o),
(285,699,o),
(330,699,c),
(459,699,o),
(531,587,o),
(546,364,c),
(565,96,l),
(631,96,l),
(650,364,l),
(860,364,l),
(860,444,l),
(618,444,l),
(585,669,o),
(489,782,o),
(330,782,c),
(267,782,o),
(215,766,o),
(172,735,c),
(129,704,o),
(97,659,o),
(76,601,c),
(55,544,o),
(45,480,o),
(45,408,c),
(45,364,l),
(329,364,l),
(336,345,o),
(339,314,o),
(339,273,c),
(339,237,o),
(329,208,o),
(310,186,c),
(291,164,o),
(264,153,o),
(231,153,c),
(192,153,o),
(159,151,o),
(132,147,c),
(105,142,o),
(81,134,o),
(62,122,c)
);
}
);
width = 830;
}
);
},
{
export = 0;
glyphname = _PA.medi;
layers = (
{
layerId = "E14AE757-7134-4DB9-897C-AD248BACE90D";
shapes = (
{
closed = 1;
nodes = (
(17,42,l),
(38,54,o),
(62,62,o),
(89,67,c),
(115,71,o),
(147,73,o),
(186,73,c),
(262,73,o),
(317,106,o),
(350,171,c),
(365,202,o),
(373,236,o),
(373,275,c),
(373,332,o),
(366,389,o),
(352,444,c),
(79,444,l),
(80,545,o),
(111,619,o),
(172,666,c),
(203,688,o),
(240,699,o),
(285,699,c),
(414,699,o),
(486,587,o),
(501,364,c),
(520,96,l),
(586,96,l),
(605,364,l),
(815,364,l),
(815,444,l),
(573,444,l),
(540,669,o),
(444,782,o),
(285,782,c),
(222,782,o),
(170,766,o),
(127,735,c),
(84,704,o),
(52,659,o),
(31,601,c),
(10,544,o),
(0,480,o),
(0,408,c),
(0,364,l),
(284,364,l),
(291,345,o),
(294,314,o),
(294,273,c),
(294,237,o),
(284,208,o),
(265,186,c),
(246,164,o),
(219,153,o),
(186,153,c),
(147,153,o),
(114,151,o),
(87,147,c),
(60,142,o),
(36,134,o),
(17,122,c)
);
}
);
width = 785;
}
);
},
{
export = 0;
glyphname = _PAa.isol;
layers = (
{
layerId = "E14AE757-7134-4DB9-897C-AD248BACE90D";
shapes = (
{
closed = 1;
nodes = (
(913,-264,l),
(899,-239,o),
(892,-214,o),
(892,-187,c),
(892,-158,o),
(897,-133,o),
(908,-110,c),
(918,-88,o),
(935,-62,o),
(959,-31,c),
(1003,24,o),
(1036,74,o),
(1059,117,c),
(1081,160,o),
(1092,203,o),
(1092,245,c),
(1091,378,o),
(1014,444,o),
(861,444,c),
(618,444,l),
(585,669,o),
(489,782,o),
(330,782,c),
(267,782,o),
(215,766,o),
(172,735,c),
(129,704,o),
(97,659,o),
(76,601,c),
(55,544,o),
(45,480,o),
(45,408,c),
(45,364,l),
(329,364,l),
(336,344,o),
(339,314,o),
(339,275,c),
(339,238,o),
(329,209,o),
(310,187,c),
(291,164,o),
(264,153,o),
(231,153,c),
(192,153,o),
(159,151,o),
(132,147,c),
(105,142,o),
(81,134,o),
(62,122,c),
(62,42,l),
(83,54,o),
(107,62,o),
(134,67,c),
(160,71,o),
(192,73,o),
(231,73,c),
(307,73,o),
(362,106,o),
(395,171,c),
(410,202,o),
(418,236,o),
(418,275,c),
(418,332,o),
(411,389,o),
(397,444,c),
(124,444,l),
(125,545,o),
(156,619,o),
(217,666,c),
(248,688,o),
(285,699,o),
(330,699,c),
(459,699,o),
(531,587,o),
(546,364,c),
(565,96,l),
(631,96,l),
(650,364,l),
(860,364,l),
(963,365,o),
(1014,325,o),
(1014,245,c),
(1014,213,o),
(1005,181,o),
(988,148,c),
(971,115,o),
(944,75,o),
(907,28,c),
(875,-15,o),
(851,-52,o),
(836,-84,c),
(820,-117,o),
(812,-151,o),
(812,-187,c),
(812,-218,o),
(818,-243,o),
(831,-264,c)
);
}
);
width = 1137;
}
);
},
{
export = 0;
glyphname = _PAa.fina;
layers = (
{
layerId = "E14AE757-7134-4DB9-897C-AD248BACE90D";
shapes = (
{
closed = 1;
nodes = (
(868,-264,l),
(854,-239,o),
(847,-214,o),
(847,-187,c),
(847,-158,o),
(852,-133,o),
(863,-110,c),
(873,-88,o),
(890,-62,o),
(914,-31,c),
(958,24,o),
(991,74,o),
(1014,117,c),
(1036,160,o),
(1047,203,o),
(1047,245,c),
(1046,378,o),
(969,444,o),
(816,444,c),
(573,444,l),
(540,669,o),
(444,782,o),
(285,782,c),
(222,782,o),
(170,766,o),
(127,735,c),
(84,704,o),
(52,659,o),
(31,601,c),
(10,544,o),
(0,480,o),
(0,408,c),
(0,364,l),
(284,364,l),
(291,344,o),
(294,314,o),
(294,275,c),
(294,238,o),
(284,209,o),
(265,187,c),
(246,164,o),
(219,153,o),
(186,153,c),
(147,153,o),
(114,151,o),
(87,147,c),
(60,142,o),
(36,134,o),
(17,122,c),
(17,42,l),
(38,54,o),
(62,62,o),
(89,67,c),
(115,71,o),
(147,73,o),
(186,73,c),
(262,73,o),
(317,106,o),
(350,171,c),
(365,202,o),
(373,236,o),
(373,275,c),
(373,332,o),
(366,389,o),
(352,444,c),
(79,444,l),
(80,545,o),
(111,619,o),
(172,666,c),
(203,688,o),
(240,699,o),
(285,699,c),
(414,699,o),
(486,587,o),
(501,364,c),
(520,96,l),
(586,96,l),
(605,364,l),
(815,364,l),
(918,365,o),
(969,325,o),
(969,245,c),
(969,213,o),
(960,181,o),
(943,148,c),
(926,115,o),
(899,75,o),
(862,28,c),
(830,-15,o),
(806,-52,o),
(791,-84,c),
(775,-117,o),
(767,-151,o),
(767,-187,c),
(767,-218,o),
(773,-243,o),
(786,-264,c)
);
}
);
width = 1092;
}
);
},
{
export = 0;
glyphname = _PI.init;
layers = (
{
layerId = "E14AE757-7134-4DB9-897C-AD248BACE90D";
shapes = (
{
closed = 1;
nodes = (
(780,-31,l),
(696,121,o),
(643,253,o),
(620,364,c),
(925,364,l),
(925,444,l),
(605,444,l),
(583,586,o),
(536,685,o),
(465,740,c),
(427,768,o),
(378,782,o),
(319,782,c),
(258,782,o),
(208,766,o),
(167,735,c),
(126,703,o),
(95,658,o),
(75,600,c),
(55,543,o),
(45,479,o),
(45,408,c),
(45,364,l),
(329,364,l),
(336,344,o),
(339,314,o),
(339,275,c),
(339,238,o),
(329,209,o),
(310,187,c),
(291,164,o),
(264,153,o),
(231,153,c),
(192,153,o),
(159,151,o),
(132,147,c),
(105,142,o),
(81,134,o),
(62,122,c),
(62,42,l),
(83,54,o),
(107,62,o),
(134,67,c),
(160,71,o),
(192,73,o),
(231,73,c),
(307,73,o),
(362,106,o),
(395,171,c),
(410,202,o),
(418,236,o),
(418,275,c),
(418,332,o),
(411,389,o),
(397,444,c),
(124,444,l),
(125,544,o),
(154,618,o),
(211,665,c),
(240,688,o),
(276,699,o),
(319,699,c),
(376,699,o),
(421,676,o),
(456,629,c),
(490,582,o),
(515,512,o),
(530,418,c),
(546,325,o),
(567,244,o),
(593,176,c),
(616,115,o),
(654,34,o),
(707,-67,c)
);
}
);
width = 895;
}
);
},
{
export = 0;
glyphname = _PI.medi;
layers = (
{
layerId = "E14AE757-7134-4DB9-897C-AD248BACE90D";
shapes = (
{
closed = 1;
nodes = (
(735,-31,l),
(651,121,o),
(598,253,o),
(575,364,c),
(880,364,l),
(880,444,l),
(560,444,l),
(538,586,o),
(491,685,o),
(420,740,c),
(382,768,o),
(333,782,o),
(274,782,c),
(213,782,o),
(163,766,o),
(122,735,c),
(81,703,o),
(50,658,o),
(30,600,c),
(10,543,o),
(0,479,o),
(0,408,c),
(0,364,l),
(284,364,l),
(291,344,o),
(294,314,o),
(294,275,c),
(294,238,o),
(284,209,o),
(265,187,c),
(246,164,o),
(219,153,o),
(186,153,c),
(147,153,o),
(114,151,o),
(87,147,c),
(60,142,o),
(36,134,o),
(17,122,c),
(17,42,l),
(38,54,o),
(62,62,o),
(89,67,c),
(115,71,o),
(147,73,o),
(186,73,c),
(262,73,o),
(317,106,o),
(350,171,c),
(365,202,o),
(373,236,o),
(373,275,c),
(373,332,o),
(366,389,o),
(352,444,c),
(79,444,l),
(80,544,o),
(109,618,o),
(166,665,c),
(195,688,o),
(231,699,o),
(274,699,c),
(331,699,o),
(376,676,o),
(411,629,c),
(445,582,o),
(470,512,o),
(485,418,c),
(501,325,o),
(522,244,o),
(548,176,c),
(571,115,o),
(609,34,o),
(662,-67,c)
);
}
);
width = 850;
}
);
},
{
export = 0;
glyphname = _PI.isol;
layers = (
{
layerId = "E14AE757-7134-4DB9-897C-AD248BACE90D";
shapes = (
{
closed = 1;
nodes = (
(780,-31,l),
(696,121,o),
(643,253,o),
(620,364,c),
(925,364,l),
(960,364,o),
(985,357,o),
(1000,343,c),
(1015,328,o),
(1023,307,o),
(1023,279,c),
(1023,234,o),
(1016,195,o),
(1001,162,c),
(1075,162,l),
(1092,198,o),
(1100,237,o),
(1100,279,c),
(1101,389,o),
(1042,444,o),
(925,444,c),
(605,444,l),
(583,586,o),
(536,685,o),
(465,740,c),
(427,768,o),
(378,782,o),
(319,782,c),
(258,782,o),
(208,766,o),
(167,735,c),
(126,703,o),
(95,658,o),
(75,600,c),
(55,543,o),
(45,479,o),
(45,408,c),
(45,364,l),
(329,364,l),
(336,344,o),
(339,314,o),
(339,275,c),
(339,238,o),
(329,209,o),
(310,187,c),
(291,164,o),
(264,153,o),
(231,153,c),
(192,153,o),
(159,151,o),
(132,147,c),
(105,142,o),
(81,134,o),
(62,122,c),
(62,42,l),
(83,54,o),
(107,62,o),
(134,67,c),
(160,71,o),
(192,73,o),
(231,73,c),
(307,73,o),
(362,106,o),
(395,171,c),
(410,202,o),
(418,236,o),
(418,275,c),
(418,332,o),
(411,389,o),
(397,444,c),
(124,444,l),
(125,544,o),
(154,618,o),
(211,665,c),
(240,688,o),
(276,699,o),
(319,699,c),
(376,699,o),
(421,676,o),
(456,629,c),
(490,582,o),
(515,512,o),
(530,418,c),
(546,325,o),
(567,244,o),
(593,176,c),
(616,115,o),
(654,34,o),
(707,-67,c)
);
}
);
width = 1145;
}
);
},
{
export = 0;
glyphname = _PI.fina;
layers = (
{
layerId = "E14AE757-7134-4DB9-897C-AD248BACE90D";
shapes = (
{
closed = 1;
nodes = (
(735,-31,l),
(651,121,o),
(598,253,o),
(575,364,c),
(880,364,l),
(915,364,o),
(940,357,o),
(955,343,c),
(970,328,o),
(978,307,o),
(978,279,c),
(978,234,o),
(971,195,o),
(956,162,c),
(1030,162,l),
(1047,198,o),
(1055,237,o),
(1055,279,c),
(1056,389,o),
(997,444,o),
(880,444,c),
(560,444,l),
(538,586,o),
(491,685,o),
(420,740,c),
(382,768,o),
(333,782,o),
(274,782,c),
(213,782,o),
(163,766,o),
(122,735,c),
(81,703,o),
(50,658,o),
(30,600,c),
(10,543,o),
(0,479,o),
(0,408,c),
(0,364,l),
(284,364,l),
(291,344,o),
(294,314,o),
(294,275,c),
(294,238,o),
(284,209,o),
(265,187,c),
(246,164,o),
(219,153,o),
(186,153,c),
(147,153,o),
(114,151,o),
(87,147,c),
(60,142,o),
(36,134,o),
(17,122,c),
(17,42,l),
(38,54,o),
(62,62,o),
(89,67,c),
(115,71,o),
(147,73,o),
(186,73,c),
(262,73,o),
(317,106,o),
(350,171,c),
(365,202,o),
(373,236,o),
(373,275,c),
(373,332,o),
(366,389,o),
(352,444,c),
(79,444,l),
(80,544,o),
(109,618,o),
(166,665,c),
(195,688,o),
(231,699,o),
(274,699,c),
(331,699,o),
(376,676,o),
(411,629,c),
(445,582,o),
(470,512,o),
(485,418,c),
(501,325,o),
(522,244,o),
(548,176,c),
(571,115,o),
(609,34,o),
(662,-67,c)
);
}
);
width = 1100;
}
);
},
{
export = 0;
glyphname = _PO.init;
layers = (
{
layerId = "E14AE757-7134-4DB9-897C-AD248BACE90D";
shapes = (
{
closed = 1;
nodes = (
(124,444,l),
(129,547,o),
(168,621,o),
(243,667,c),
(280,688,o),
(323,699,o),
(372,699,c),
(471,699,o),
(544,659,o),
(591,578,c),
(614,539,o),
(628,495,o),
(635,444,c)
);
},
{
closed = 1;
nodes = (
(438,123,o),
(405,177,o),
(405,286,c),
(405,364,l),
(640,364,l),
(639,259,o),
(623,189,o),
(590,154,c),
(571,133,o),
(543,123,o),
(505,123,c)
);
},
{
closed = 1;
nodes = (
(576,40,o),
(630,67,o),
(665,120,c),
(700,173,o),
(718,254,o),
(719,364,c),
(930,364,l),
(930,444,l),
(715,444,l),
(698,585,o),
(640,684,o),
(541,741,c),
(492,768,o),
(436,782,o),
(372,782,c),
(244,782,o),
(149,724,o),
(87,607,c),
(59,551,o),
(45,485,o),
(45,409,c),
(45,364,l),
(326,364,l),
(326,275,l),
(326,236,o),
(317,206,o),
(298,185,c),
(279,164,o),
(255,153,o),
(225,153,c),
(187,153,o),
(155,151,o),
(130,147,c),
(104,142,o),
(81,134,o),
(62,122,c),
(62,42,l),
(83,54,o),
(107,62,o),
(132,67,c),
(157,71,o),
(188,73,o),
(225,73,c),
(282,73,o),
(328,94,o),
(363,136,c),
(389,72,o),
(436,40,o),
(505,40,c)
);
}
);
width = 900;
}
);
},
{
export = 0;
glyphname = _PO.medi;
layers = (
{
layerId = "E14AE757-7134-4DB9-897C-AD248BACE90D";
shapes = (
{
closed = 1;
nodes = (
(79,444,l),
(84,547,o),
(123,621,o),
(198,667,c),
(235,688,o),
(278,699,o),
(327,699,c),
(426,699,o),
(499,659,o),
(546,578,c),
(569,539,o),
(583,495,o),
(590,444,c)
);
},
{
closed = 1;
nodes = (
(393,123,o),
(360,177,o),
(360,286,c),
(360,364,l),
(595,364,l),
(594,259,o),
(578,189,o),
(545,154,c),
(526,133,o),
(498,123,o),
(460,123,c)
);
},
{
closed = 1;
nodes = (
(531,40,o),
(585,67,o),
(620,120,c),
(655,173,o),
(673,254,o),
(674,364,c),
(885,364,l),
(885,444,l),
(670,444,l),
(653,585,o),
(595,684,o),
(496,741,c),
(447,768,o),
(391,782,o),
(327,782,c),
(199,782,o),
(104,724,o),
(42,607,c),
(14,551,o),
(0,485,o),
(0,409,c),
(0,364,l),
(281,364,l),
(281,275,l),
(281,236,o),
(272,206,o),
(253,185,c),
(234,164,o),
(210,153,o),
(180,153,c),
(142,153,o),
(110,151,o),
(85,147,c),
(59,142,o),
(36,134,o),
(17,122,c),
(17,42,l),
(38,54,o),
(62,62,o),
(87,67,c),
(112,71,o),
(143,73,o),
(180,73,c),
(237,73,o),
(283,94,o),
(318,136,c),
(344,72,o),
(391,40,o),
(460,40,c)
);
}
);
width = 855;
}
);
},
{
export = 0;
glyphname = _PO.isol;
layers = (
{
layerId = "E14AE757-7134-4DB9-897C-AD248BACE90D";
shapes = (
{
closed = 1;
nodes = (
(124,444,l),
(129,547,o),
(168,621,o),
(243,667,c),
(280,688,o),
(323,699,o),
(372,699,c),
(471,699,o),
(544,659,o),
(591,578,c),
(614,539,o),
(628,495,o),
(635,444,c)
);
},
{
closed = 1;
nodes = (
(438,123,o),
(405,177,o),
(405,286,c),
(405,364,l),
(640,364,l),
(641,260,o),
(624,190,o),
(591,153,c),
(572,133,o),
(543,123,o),
(505,123,c)
);
},
{
closed = 1;
nodes = (
(578,40,o),
(632,68,o),
(667,123,c),
(702,178,o),
(719,262,o),
(719,375,c),
(719,538,o),
(665,657,o),
(558,731,c),
(506,765,o),
(444,782,o),
(372,782,c),
(241,782,o),
(146,724,o),
(86,607,c),
(59,551,o),
(45,485,o),
(45,409,c),
(45,364,l),
(326,364,l),
(326,275,l),
(326,236,o),
(317,206,o),
(298,185,c),
(279,164,o),
(255,153,o),
(225,153,c),
(187,153,o),
(155,151,o),
(130,147,c),
(104,142,o),
(81,134,o),
(62,122,c),
(62,42,l),
(83,54,o),
(107,62,o),
(132,67,c),
(157,71,o),
(188,73,o),
(225,73,c),
(282,73,o),
(328,94,o),
(363,136,c),
(389,72,o),
(436,40,o),
(505,40,c)
);
}
);
width = 764;
}
);
},
{
export = 0;
glyphname = _PO.fina;
layers = (
{
layerId = "E14AE757-7134-4DB9-897C-AD248BACE90D";
shapes = (
{
closed = 1;
nodes = (
(79,444,l),
(84,547,o),
(123,621,o),
(198,667,c),
(235,688,o),
(278,699,o),
(327,699,c),
(426,699,o),
(499,659,o),
(546,578,c),
(569,539,o),
(583,495,o),
(590,444,c)
);
},
{
closed = 1;
nodes = (
(393,123,o),
(360,177,o),
(360,286,c),
(360,364,l),
(595,364,l),
(596,260,o),
(579,190,o),
(546,153,c),
(527,133,o),
(498,123,o),
(460,123,c)
);
},
{
closed = 1;
nodes = (
(533,40,o),
(587,68,o),
(622,123,c),
(657,178,o),
(674,262,o),
(674,375,c),
(674,538,o),
(620,657,o),
(513,731,c),
(461,765,o),
(399,782,o),
(327,782,c),
(196,782,o),
(101,724,o),
(41,607,c),
(14,551,o),
(0,485,o),
(0,409,c),
(0,364,l),
(281,364,l),
(281,275,l),
(281,236,o),
(272,206,o),
(253,185,c),
(234,164,o),
(210,153,o),
(180,153,c),
(142,153,o),
(110,151,o),
(85,147,c),
(59,142,o),
(36,134,o),
(17,122,c),
(17,42,l),
(38,54,o),
(62,62,o),
(87,67,c),
(112,71,o),
(143,73,o),
(180,73,c),
(237,73,o),
(283,94,o),
(318,136,c),
(344,72,o),
(391,40,o),
(460,40,c)
);
}
);
width = 719;
}
);
},
{
export = 0;
glyphname = _POI.init;
layers = (
{
layerId = "E14AE757-7134-4DB9-897C-AD248BACE90D";
shapes = (
{
closed = 1;
nodes = (
(124,444,l),
(128,547,o),
(168,621,o),
(243,667,c),
(280,688,o),
(323,699,o),
(372,699,c),
(471,699,o),
(544,659,o),
(591,578,c),
(614,539,o),
(628,495,o),
(635,444,c)
);
},
{
closed = 1;
nodes = (
(438,123,o),
(405,177,o),
(405,286,c),
(405,364,l),
(640,364,l),
(641,260,o),
(624,190,o),
(591,153,c),
(572,133,o),
(543,123,o),
(505,123,c)
);
},
{
closed = 1;
nodes = (
(1076,-31,l),
(1003,98,o),
(948,229,o),
(909,364,c),
(1221,364,l),
(1221,444,l),
(715,444,l),
(698,585,o),
(641,684,o),
(542,741,c),
(493,768,o),
(436,782,o),
(371,782,c),
(240,782,o),
(145,724,o),
(86,608,c),
(59,552,o),
(45,486,o),
(45,410,c),
(45,364,l),
(326,364,l),
(326,275,l),
(326,236,o),
(317,206,o),
(298,185,c),
(279,164,o),
(255,153,o),
(225,153,c),
(187,153,o),
(155,151,o),
(130,147,c),
(104,142,o),
(81,134,o),
(62,122,c),
(62,42,l),
(83,54,o),
(107,62,o),
(132,67,c),
(157,71,o),
(188,73,o),
(225,73,c),
(282,73,o),
(328,94,o),
(363,136,c),
(389,72,o),
(436,40,o),
(505,40,c),
(576,40,o),
(630,67,o),
(665,120,c),
(700,173,o),
(718,254,o),
(719,364,c),
(830,364,l),
(869,220,o),
(926,76,o),
(1003,-67,c)
);
}
);
width = 1191;
}
);
},
{
export = 0;
glyphname = _POI.medi;
layers = (
{
layerId = "E14AE757-7134-4DB9-897C-AD248BACE90D";
shapes = (
{
closed = 1;
nodes = (
(79,444,l),
(83,547,o),
(123,621,o),
(198,667,c),
(235,688,o),
(278,699,o),
(327,699,c),
(426,699,o),
(499,659,o),
(546,578,c),
(569,539,o),
(583,495,o),
(590,444,c)
);
},
{
closed = 1;
nodes = (
(393,123,o),
(360,177,o),
(360,286,c),
(360,364,l),
(595,364,l),
(596,260,o),
(579,190,o),
(546,153,c),
(527,133,o),
(498,123,o),
(460,123,c)
);
},
{
closed = 1;
nodes = (
(1031,-31,l),
(958,98,o),
(903,229,o),
(864,364,c),
(1176,364,l),
(1176,444,l),
(670,444,l),
(653,585,o),
(596,684,o),
(497,741,c),
(448,768,o),
(391,782,o),
(326,782,c),
(195,782,o),
(100,724,o),
(41,608,c),
(14,552,o),
(0,486,o),
(0,410,c),
(0,364,l),
(281,364,l),
(281,275,l),
(281,236,o),
(272,206,o),
(253,185,c),
(234,164,o),
(210,153,o),
(180,153,c),
(142,153,o),
(110,151,o),
(85,147,c),
(59,142,o),
(36,134,o),
(17,122,c),
(17,42,l),
(38,54,o),
(62,62,o),
(87,67,c),
(112,71,o),
(143,73,o),
(180,73,c),
(237,73,o),
(283,94,o),
(318,136,c),
(344,72,o),
(391,40,o),
(460,40,c),
(531,40,o),
(585,67,o),
(620,120,c),
(655,173,o),
(673,254,o),
(674,364,c),
(785,364,l),
(824,220,o),
(881,76,o),
(958,-67,c)
);
}
);
width = 1146;
}
);
},
{
export = 0;
glyphname = _PUe.isol;
layers = (
{
layerId = "E14AE757-7134-4DB9-897C-AD248BACE90D";
shapes = (
{
closed = 1;
nodes = (
(124,444,l),
(128,547,o),
(168,621,o),
(243,667,c),
(280,688,o),
(323,699,o),
(372,699,c),
(471,699,o),
(544,659,o),
(591,578,c),
(614,539,o),
(628,495,o),
(635,444,c)
);
},
{
closed = 1;
nodes = (
(439,123,o),
(405,177,o),
(405,286,c),
(405,364,l),
(640,364,l),
(639,259,o),
(623,188,o),
(591,153,c),
(572,133,o),
(544,123,o),
(506,123,c)
);
},
{
closed = 1;
nodes = (
(576,40,o),
(630,67,o),
(665,120,c),
(700,173,o),
(718,254,o),
(719,364,c),
(930,364,l),
(965,364,o),
(990,357,o),
(1005,343,c),
(1020,328,o),
(1028,307,o),
(1028,279,c),
(1028,234,o),
(1021,195,o),
(1006,162,c),
(1080,162,l),
(1097,198,o),
(1105,237,o),
(1105,279,c),
(1106,389,o),
(1047,444,o),
(930,444,c),
(715,444,l),
(698,585,o),
(641,684,o),
(542,741,c),
(494,768,o),
(437,782,o),
(372,782,c),
(241,782,o),
(146,724,o),
(86,609,c),
(59,554,o),
(45,488,o),
(45,412,c),
(45,364,l),
(326,364,l),
(326,275,l),
(326,236,o),
(317,206,o),
(298,185,c),
(279,164,o),
(255,153,o),
(225,153,c),
(187,153,o),
(155,151,o),
(130,147,c),
(104,142,o),
(81,134,o),
(62,122,c),
(62,42,l),
(83,54,o),
(107,62,o),
(132,67,c),
(157,71,o),
(188,73,o),
(225,73,c),
(282,73,o),
(328,94,o),
(363,136,c),
(389,72,o),
(436,40,o),
(505,40,c)
);
}
);
width = 1150;
}
);
},
{
export = 0;
glyphname = _PUe.fina;
layers = (
{
layerId = "E14AE757-7134-4DB9-897C-AD248BACE90D";
shapes = (
{
closed = 1;
nodes = (
(78,444,l),
(82,547,o),
(122,621,o),
(197,667,c),
(234,688,o),
(277,699,o),
(326,699,c),
(425,699,o),
(498,659,o),
(545,578,c),
(568,539,o),
(582,495,o),
(589,444,c)
);
},
{
closed = 1;
nodes = (
(393,123,o),
(359,177,o),
(359,286,c),
(359,364,l),
(594,364,l),
(593,259,o),
(577,188,o),
(545,153,c),
(526,133,o),
(498,123,o),
(460,123,c)
);
},
{
closed = 1;
nodes = (
(530,40,o),
(584,67,o),
(619,120,c),
(654,173,o),
(672,254,o),
(673,364,c),
(884,364,l),
(919,364,o),
(944,357,o),
(959,343,c),
(974,328,o),
(982,307,o),
(982,279,c),
(982,234,o),
(975,195,o),
(960,162,c),
(1034,162,l),
(1051,198,o),
(1059,237,o),
(1059,279,c),
(1060,389,o),
(1001,444,o),
(884,444,c),
(669,444,l),
(652,585,o),
(595,684,o),
(496,741,c),
(448,768,o),
(391,782,o),
(326,782,c),
(195,782,o),
(100,724,o),
(40,609,c),
(13,554,o),
(-1,488,o),
(-1,412,c),
(-1,364,l),
(280,364,l),
(280,275,l),
(280,236,o),
(271,206,o),
(252,185,c),
(233,164,o),
(209,153,o),
(179,153,c),
(141,153,o),
(109,151,o),
(84,147,c),
(58,142,o),
(35,134,o),
(16,122,c),
(16,42,l),
(37,54,o),
(61,62,o),
(86,67,c),
(111,71,o),
(142,73,o),
(179,73,c),
(236,73,o),
(282,94,o),
(317,136,c),
(343,72,o),
(390,40,o),
(459,40,c)
);
}
);
width = 1104;
}
);
},
{
export = 0;
glyphname = _PW.init;
layers = (
{
layerId = "E14AE757-7134-4DB9-897C-AD248BACE90D";
shapes = (
{
closed = 1;
nodes = (
(875,-119,o),
(903,-108,o),
(918,-85,c),
(918,6,l),
(899,-22,o),
(872,-36,o),
(836,-36,c),
(812,-36,o),
(789,-24,o),
(768,-1,c),
(747,22,o),
(725,57,o),
(703,106,c),
(664,189,o),
(636,275,o),
(619,364,c),
(1014,364,l),
(1014,444,l),
(604,444,l),
(581,586,o),
(534,685,o),
(464,740,c),
(427,768,o),
(378,782,o),
(319,782,c),
(258,782,o),
(208,766,o),
(167,735,c),
(126,703,o),
(95,658,o),
(75,600,c),
(55,543,o),
(45,479,o),
(45,408,c),
(45,364,l),
(329,364,l),
(336,344,o),
(339,314,o),
(339,275,c),
(339,238,o),
(329,209,o),
(310,187,c),
(291,164,o),
(264,153,o),
(231,153,c),
(192,153,o),
(159,151,o),
(132,147,c),
(105,142,o),
(81,134,o),
(62,122,c),
(62,42,l),
(83,54,o),
(107,62,o),
(134,67,c),
(160,71,o),
(192,73,o),
(231,73,c),
(307,73,o),
(362,106,o),
(395,171,c),
(410,202,o),
(418,236,o),
(418,275,c),
(418,332,o),
(411,389,o),
(397,444,c),
(124,444,l),
(125,544,o),
(154,618,o),
(211,665,c),
(240,688,o),
(276,699,o),
(319,699,c),
(362,699,o),
(398,688,o),
(427,665,c),
(455,642,o),
(477,609,o),
(493,565,c),
(508,523,o),
(521,474,o),
(530,418,c),
(553,281,o),
(591,155,o),
(645,41,c),
(670,-12,o),
(697,-52,o),
(726,-79,c),
(755,-106,o),
(792,-119,o),
(836,-119,c)
);
}
);
width = 984;
}
);
},
{
export = 0;
glyphname = _PW.medi;
layers = (
{
layerId = "E14AE757-7134-4DB9-897C-AD248BACE90D";
shapes = (
{
closed = 1;
nodes = (
(830,-119,o),
(858,-108,o),
(873,-85,c),
(873,6,l),
(854,-22,o),
(827,-36,o),
(791,-36,c),
(767,-36,o),
(744,-24,o),
(723,-1,c),
(702,22,o),
(680,57,o),
(658,106,c),
(619,189,o),
(591,275,o),
(574,364,c),
(969,364,l),
(969,444,l),
(559,444,l),
(536,586,o),
(489,685,o),
(419,740,c),
(382,768,o),
(333,782,o),
(274,782,c),
(213,782,o),
(163,766,o),
(122,735,c),
(81,703,o),
(50,658,o),
(30,600,c),
(10,543,o),
(0,479,o),
(0,408,c),
(0,364,l),
(284,364,l),
(291,344,o),
(294,314,o),
(294,275,c),
(294,238,o),
(284,209,o),
(265,187,c),
(246,164,o),
(219,153,o),
(186,153,c),
(147,153,o),
(114,151,o),
(87,147,c),
(60,142,o),
(36,134,o),
(17,122,c),
(17,42,l),
(38,54,o),
(62,62,o),
(89,67,c),
(115,71,o),
(147,73,o),
(186,73,c),
(262,73,o),
(317,106,o),
(350,171,c),
(365,202,o),
(373,236,o),
(373,275,c),
(373,332,o),
(366,389,o),
(352,444,c),
(79,444,l),
(80,544,o),
(109,618,o),
(166,665,c),
(195,688,o),
(231,699,o),
(274,699,c),
(317,699,o),
(353,688,o),
(382,665,c),
(410,642,o),
(432,609,o),
(448,565,c),
(463,523,o),
(476,474,o),
(485,418,c),
(508,281,o),
(546,155,o),
(600,41,c),
(625,-12,o),
(652,-52,o),
(681,-79,c),
(710,-106,o),
(747,-119,o),
(791,-119,c)
);
}
);
width = 939;
}
);
},
{
export = 0;
glyphname = _PW.isol;
layers = (
{
layerId = "E14AE757-7134-4DB9-897C-AD248BACE90D";
shapes = (
{
closed = 1;
nodes = (
(875,-119,o),
(903,-108,o),
(918,-85,c),
(918,6,l),
(899,-22,o),
(872,-36,o),
(836,-36,c),
(812,-36,o),
(789,-24,o),
(768,-1,c),
(747,22,o),
(725,57,o),
(703,106,c),
(664,189,o),
(636,275,o),
(619,364,c),
(1014,364,l),
(1049,364,o),
(1074,357,o),
(1089,343,c),
(1104,328,o),
(1112,307,o),
(1112,279,c),
(1112,236,o),
(1105,197,o),
(1090,162,c),
(1164,162,l),
(1181,198,o),
(1189,237,o),
(1189,279,c),
(1190,389,o),
(1131,444,o),
(1014,444,c),
(604,444,l),
(581,586,o),
(534,685,o),
(464,740,c),
(427,768,o),
(378,782,o),
(319,782,c),
(258,782,o),
(208,766,o),
(167,735,c),
(126,703,o),
(95,658,o),
(75,600,c),
(55,543,o),
(45,479,o),
(45,408,c),
(45,364,l),
(329,364,l),
(336,344,o),
(339,314,o),
(339,274,c),
(339,237,o),
(329,208,o),
(310,186,c),
(291,164,o),
(264,153,o),
(231,153,c),
(192,153,o),
(159,151,o),
(132,147,c),
(105,142,o),
(81,134,o),
(62,122,c),
(62,42,l),
(83,54,o),
(107,62,o),
(134,67,c),
(160,71,o),
(192,73,o),
(231,73,c),
(307,73,o),
(362,106,o),
(395,171,c),
(410,202,o),
(418,236,o),
(418,275,c),
(418,332,o),
(411,389,o),
(397,444,c),
(124,444,l),
(125,544,o),
(154,618,o),
(211,665,c),
(240,688,o),
(276,699,o),
(319,699,c),
(362,699,o),
(398,688,o),
(427,665,c),
(455,642,o),
(477,609,o),
(493,565,c),
(508,523,o),
(521,474,o),
(530,418,c),
(553,281,o),
(591,155,o),
(645,41,c),
(670,-12,o),
(697,-52,o),
(726,-79,c),
(755,-106,o),
(792,-119,o),
(836,-119,c)
);
}
);
width = 1234;
}
);
},
{
export = 0;
glyphname = _PW.fina;
layers = (
{
layerId = "E14AE757-7134-4DB9-897C-AD248BACE90D";
shapes = (
{
closed = 1;
nodes = (
(830,-119,o),
(858,-108,o),
(873,-85,c),
(873,6,l),
(854,-22,o),
(827,-36,o),
(791,-36,c),
(767,-36,o),
(744,-24,o),
(723,-1,c),
(702,22,o),
(680,57,o),
(658,106,c),
(619,189,o),
(591,275,o),
(574,364,c),
(969,364,l),
(1004,364,o),
(1029,357,o),
(1044,343,c),
(1059,328,o),
(1067,307,o),
(1067,279,c),
(1067,236,o),
(1060,197,o),
(1045,162,c),
(1119,162,l),
(1136,198,o),
(1144,237,o),
(1144,279,c),
(1145,389,o),
(1086,444,o),
(969,444,c),
(559,444,l),
(536,586,o),
(489,685,o),
(419,740,c),
(382,768,o),
(333,782,o),
(274,782,c),
(213,782,o),
(163,766,o),
(122,735,c),
(81,703,o),
(50,658,o),
(30,600,c),
(10,543,o),
(0,479,o),
(0,408,c),
(0,364,l),
(284,364,l),
(291,344,o),
(294,314,o),
(294,274,c),
(294,237,o),
(284,208,o),
(265,186,c),
(246,164,o),
(219,153,o),
(186,153,c),
(147,153,o),
(114,151,o),
(87,147,c),
(60,142,o),
(36,134,o),
(17,122,c),
(17,42,l),
(38,54,o),
(62,62,o),
(89,67,c),
(115,71,o),
(147,73,o),
(186,73,c),
(262,73,o),
(317,106,o),
(350,171,c),
(365,202,o),
(373,236,o),
(373,275,c),
(373,332,o),
(366,389,o),
(352,444,c),
(79,444,l),
(80,544,o),
(109,618,o),
(166,665,c),
(195,688,o),
(231,699,o),
(274,699,c),
(317,699,o),
(353,688,o),
(382,665,c),
(410,642,o),
(432,609,o),
(448,565,c),
(463,523,o),
(476,474,o),
(485,418,c),
(508,281,o),
(546,155,o),
(600,41,c),
(625,-12,o),
(652,-52,o),
(681,-79,c),
(710,-106,o),
(747,-119,o),
(791,-119,c)
);
}
);
width = 1189;
}
);
},
{
export = 0;
glyphname = _FA.init;
layers = (
{
layerId = "E14AE757-7134-4DB9-897C-AD248BACE90D";
shapes = (
{
closed = 1;
nodes = (
(173,123,o),
(127,203,o),
(124,364,c),
(362,364,l),
(369,345,o),
(372,315,o),
(372,274,c),
(372,229,o),
(363,193,o),
(344,165,c),
(325,137,o),
(299,123,o),
(264,123,c)
);
},
{
closed = 1;
nodes = (
(289,-182,l),
(264,-147,o),
(251,-108,o),
(251,-63,c),
(251,-26,o),
(258,9,o),
(271,40,c),
(280,40,l),
(309,40,o),
(336,49,o),
(362,68,c),
(387,87,o),
(409,113,o),
(426,147,c),
(443,182,o),
(451,223,o),
(451,272,c),
(451,294,o),
(449,324,o),
(444,361,c),
(439,398,o),
(434,425,o),
(428,444,c),
(124,444,l),
(126,546,o),
(161,620,o),
(228,666,c),
(262,688,o),
(303,699,o),
(352,699,c),
(422,699,o),
(475,671,o),
(512,616,c),
(549,561,o),
(571,477,o),
(579,364,c),
(598,96,l),
(664,96,l),
(683,364,l),
(893,364,l),
(893,444,l),
(652,444,l),
(635,579,o),
(586,677,o),
(506,738,c),
(465,767,o),
(413,782,o),
(352,782,c),
(220,782,o),
(129,722,o),
(80,603,c),
(57,547,o),
(45,482,o),
(45,408,c),
(45,202,o),
(97,83,o),
(201,50,c),
(180,13,o),
(169,-25,o),
(169,-64,c),
(169,-113,o),
(179,-152,o),
(199,-182,c)
);
}
);
width = 863;
}
);
},
{
export = 0;
glyphname = _FA.medi;
layers = (
{
layerId = "E14AE757-7134-4DB9-897C-AD248BACE90D";
shapes = (
{
closed = 1;
nodes = (
(127,123,o),
(81,203,o),
(78,364,c),
(316,364,l),
(323,345,o),
(326,315,o),
(326,274,c),
(326,229,o),
(317,193,o),
(298,165,c),
(279,137,o),
(253,123,o),
(218,123,c)
);
},
{
closed = 1;
nodes = (
(243,-182,l),
(218,-147,o),
(205,-108,o),
(205,-63,c),
(205,-26,o),
(212,9,o),
(225,40,c),
(234,40,l),
(263,40,o),
(290,49,o),
(316,68,c),
(341,87,o),
(363,113,o),
(380,147,c),
(397,182,o),
(405,223,o),
(405,272,c),
(405,294,o),
(403,324,o),
(398,361,c),
(393,398,o),
(388,425,o),
(382,444,c),
(78,444,l),
(80,546,o),
(115,620,o),
(182,666,c),
(216,688,o),
(257,699,o),
(306,699,c),
(376,699,o),
(429,671,o),
(466,616,c),
(503,561,o),
(525,477,o),
(533,364,c),
(552,96,l),
(618,96,l),
(637,364,l),
(847,364,l),
(847,444,l),
(606,444,l),
(589,579,o),
(540,677,o),
(460,738,c),
(419,767,o),
(367,782,o),
(306,782,c),
(174,782,o),
(83,722,o),
(34,603,c),
(11,547,o),
(-1,482,o),
(-1,408,c),
(-1,202,o),
(51,83,o),
(155,50,c),
(134,13,o),
(123,-25,o),
(123,-64,c),
(123,-113,o),
(133,-152,o),
(153,-182,c)
);
}
);
width = 817;
}
);
},
{
export = 0;
glyphname = _FAa.isol;
layers = (
{
layerId = "E14AE757-7134-4DB9-897C-AD248BACE90D";
shapes = (
{
closed = 1;
nodes = (
(173,123,o),
(127,203,o),
(124,364,c),
(362,364,l),
(369,345,o),
(372,314,o),
(372,271,c),
(372,227,o),
(363,191,o),
(344,164,c),
(325,137,o),
(299,123,o),
(264,123,c)
);
},
{
closed = 1;
nodes = (
(946,-264,l),
(932,-237,o),
(925,-212,o),
(925,-187,c),
(925,-157,o),
(930,-132,o),
(940,-111,c),
(949,-90,o),
(967,-64,o),
(992,-31,c),
(1035,25,o),
(1068,75,o),
(1091,119,c),
(1114,162,o),
(1125,204,o),
(1125,245,c),
(1123,378,o),
(1046,444,o),
(894,444,c),
(652,444,l),
(635,579,o),
(586,677,o),
(506,738,c),
(465,767,o),
(413,782,o),
(352,782,c),
(221,782,o),
(131,722,o),
(80,603,c),
(57,547,o),
(45,482,o),
(45,408,c),
(45,202,o),
(97,83,o),
(201,50,c),
(180,13,o),
(169,-25,o),
(169,-64,c),
(169,-113,o),
(179,-152,o),
(199,-182,c),
(289,-182,l),
(264,-147,o),
(251,-108,o),
(251,-63,c),
(251,-26,o),
(258,9,o),
(271,40,c),
(275,40,l),
(342,40,o),
(393,78,o),
(428,153,c),
(443,188,o),
(451,228,o),
(451,273,c),
(451,295,o),
(449,324,o),
(444,361,c),
(439,398,o),
(434,425,o),
(428,444,c),
(124,444,l),
(126,546,o),
(161,620,o),
(228,666,c),
(262,688,o),
(303,699,o),
(352,699,c),
(422,699,o),
(475,671,o),
(512,616,c),
(549,561,o),
(571,477,o),
(579,364,c),
(598,96,l),
(664,96,l),
(683,364,l),
(893,364,l),
(996,367,o),
(1047,326,o),
(1047,243,c),
(1047,212,o),
(1039,180,o),
(1022,149,c),
(1005,117,o),
(978,77,o),
(940,28,c),
(909,-13,o),
(885,-50,o),
(869,-83,c),
(853,-116,o),
(845,-151,o),
(845,-187,c),
(845,-214,o),
(851,-239,o),
(864,-264,c)
);
}
);
width = 1170;
}
);
},
{
export = 0;
glyphname = _FAa.fina;
layers = (
{
layerId = "E14AE757-7134-4DB9-897C-AD248BACE90D";
shapes = (
{
closed = 1;
nodes = (
(127,123,o),
(81,203,o),
(78,364,c),
(316,364,l),
(323,345,o),
(326,314,o),
(326,271,c),
(326,227,o),
(317,191,o),
(298,164,c),
(279,137,o),
(253,123,o),
(218,123,c)
);
},
{
closed = 1;
nodes = (
(900,-264,l),
(886,-237,o),
(879,-212,o),
(879,-187,c),
(879,-157,o),
(884,-132,o),
(894,-111,c),
(903,-90,o),
(921,-64,o),
(946,-31,c),
(989,25,o),
(1022,75,o),
(1045,119,c),
(1068,162,o),
(1079,204,o),
(1079,245,c),
(1077,378,o),
(1000,444,o),
(848,444,c),
(606,444,l),
(589,579,o),
(540,677,o),
(460,738,c),
(419,767,o),
(367,782,o),
(306,782,c),
(175,782,o),
(85,722,o),
(34,603,c),
(11,547,o),
(-1,482,o),
(-1,408,c),
(-1,202,o),
(51,83,o),
(155,50,c),
(134,13,o),
(123,-25,o),
(123,-64,c),
(123,-113,o),
(133,-152,o),
(153,-182,c),
(243,-182,l),
(218,-147,o),
(205,-108,o),
(205,-63,c),
(205,-26,o),
(212,9,o),
(225,40,c),
(229,40,l),
(296,40,o),
(347,78,o),
(382,153,c),
(397,188,o),
(405,228,o),
(405,273,c),
(405,295,o),
(403,324,o),
(398,361,c),
(393,398,o),
(388,425,o),
(382,444,c),
(78,444,l),
(80,546,o),
(115,620,o),
(182,666,c),
(216,688,o),
(257,699,o),
(306,699,c),
(376,699,o),
(429,671,o),
(466,616,c),
(503,561,o),
(525,477,o),
(533,364,c),
(552,96,l),
(618,96,l),
(637,364,l),
(847,364,l),
(950,367,o),
(1001,326,o),
(1001,243,c),
(1001,212,o),
(993,180,o),
(976,149,c),
(959,117,o),
(932,77,o),
(894,28,c),
(863,-13,o),
(839,-50,o),
(823,-83,c),
(807,-116,o),
(799,-151,o),
(799,-187,c),
(799,-214,o),
(805,-239,o),
(818,-264,c)
);
}
);
width = 1124;
}
);
},
{
export = 0;
glyphname = _FI.init;
layers = (
{
layerId = "E14AE757-7134-4DB9-897C-AD248BACE90D";
shapes = (
{
closed = 1;
nodes = (
(173,123,o),
(127,203,o),
(124,364,c),
(362,364,l),
(369,346,o),
(372,316,o),
(372,275,c),
(372,230,o),
(363,194,o),
(345,166,c),
(326,137,o),
(299,123,o),
(264,123,c)
);
},
{
closed = 1;
nodes = (
(289,-182,l),
(264,-147,o),
(251,-108,o),
(251,-63,c),
(251,-26,o),
(258,9,o),
(271,40,c),
(276,40,l),
(343,40,o),
(394,78,o),
(428,153,c),
(443,189,o),
(451,229,o),
(451,274,c),
(451,294,o),
(449,323,o),
(444,360,c),
(439,397,o),
(434,425,o),
(428,444,c),
(124,444,l),
(125,545,o),
(156,619,o),
(217,666,c),
(248,688,o),
(285,699,o),
(330,699,c),
(375,699,o),
(413,688,o),
(442,666,c),
(471,643,o),
(495,610,o),
(513,567,c),
(530,525,o),
(543,475,o),
(552,418,c),
(567,328,o),
(589,247,o),
(616,176,c),
(641,111,o),
(678,30,o),
(729,-67,c),
(802,-31,l),
(721,113,o),
(667,245,o),
(642,364,c),
(947,364,l),
(947,444,l),
(627,444,l),
(602,589,o),
(554,688,o),
(481,741,c),
(442,768,o),
(391,782,o),
(330,782,c),
(267,782,o),
(215,766,o),
(172,735,c),
(129,704,o),
(97,659,o),
(76,601,c),
(55,544,o),
(45,480,o),
(45,408,c),
(45,202,o),
(97,83,o),
(201,50,c),
(180,13,o),
(169,-25,o),
(169,-64,c),
(169,-113,o),
(179,-152,o),
(199,-182,c)
);
}
);
width = 917;
}
);
},
{
export = 0;
glyphname = _FI.medi;
layers = (
{
layerId = "E14AE757-7134-4DB9-897C-AD248BACE90D";
shapes = (
{
closed = 1;
nodes = (
(127,123,o),
(81,203,o),
(78,364,c),
(316,364,l),
(323,346,o),
(326,316,o),
(326,275,c),
(326,230,o),
(317,194,o),
(299,166,c),
(280,137,o),
(253,123,o),
(218,123,c)
);
},
{
closed = 1;
nodes = (
(243,-182,l),
(218,-147,o),
(205,-108,o),
(205,-63,c),
(205,-26,o),
(212,9,o),
(225,40,c),
(230,40,l),
(297,40,o),
(348,78,o),
(382,153,c),
(397,189,o),
(405,229,o),
(405,274,c),
(405,294,o),
(403,323,o),
(398,360,c),
(393,397,o),
(388,425,o),
(382,444,c),
(78,444,l),
(79,545,o),
(110,619,o),
(171,666,c),
(202,688,o),
(239,699,o),
(284,699,c),
(329,699,o),
(367,688,o),
(396,666,c),
(425,643,o),
(449,610,o),
(467,567,c),
(484,525,o),
(497,475,o),
(506,418,c),
(521,328,o),
(543,247,o),
(570,176,c),
(595,111,o),
(632,30,o),
(683,-67,c),
(756,-31,l),
(675,113,o),
(621,245,o),
(596,364,c),
(901,364,l),
(901,444,l),
(581,444,l),
(556,589,o),
(508,688,o),
(435,741,c),
(396,768,o),
(345,782,o),
(284,782,c),
(221,782,o),
(169,766,o),
(126,735,c),
(83,704,o),
(51,659,o),
(30,601,c),
(9,544,o),
(-1,480,o),
(-1,408,c),
(-1,202,o),
(51,83,o),
(155,50,c),
(134,13,o),
(123,-25,o),
(123,-64,c),
(123,-113,o),
(133,-152,o),
(153,-182,c)
);
}
);
width = 871;
}
);
},
{
export = 0;
glyphname = _FI.isol;
layers = (
{
layerId = "E14AE757-7134-4DB9-897C-AD248BACE90D";
shapes = (
{
closed = 1;
nodes = (
(173,123,o),
(127,203,o),
(124,364,c),
(362,364,l),
(369,346,o),
(372,316,o),
(372,275,c),
(372,230,o),
(363,194,o),
(345,166,c),
(326,137,o),
(299,123,o),
(264,123,c)
);
},
{
closed = 1;
nodes = (
(289,-182,l),
(264,-147,o),
(251,-108,o),
(251,-63,c),
(251,-26,o),
(258,9,o),
(271,40,c),
(277,40,l),
(342,40,o),
(393,78,o),
(428,153,c),
(443,188,o),
(451,228,o),
(451,273,c),
(451,295,o),
(449,324,o),
(444,361,c),
(439,398,o),
(434,425,o),
(428,444,c),
(124,444,l),
(125,545,o),
(156,619,o),
(217,666,c),
(248,688,o),
(285,699,o),
(330,699,c),
(375,699,o),
(413,688,o),
(442,666,c),
(471,643,o),
(495,610,o),
(513,567,c),
(530,525,o),
(543,475,o),
(552,418,c),
(567,328,o),
(589,247,o),
(616,176,c),
(641,111,o),
(678,30,o),
(729,-67,c),
(802,-31,l),
(721,113,o),
(667,245,o),
(642,364,c),
(947,364,l),
(982,364,o),
(1007,357,o),
(1022,343,c),
(1037,328,o),
(1045,307,o),
(1045,279,c),
(1045,234,o),
(1038,195,o),
(1023,162,c),
(1097,162,l),
(1114,198,o),
(1122,237,o),
(1122,279,c),
(1123,389,o),
(1064,444,o),
(947,444,c),
(627,444,l),
(602,589,o),
(554,688,o),
(481,741,c),
(442,768,o),
(391,782,o),
(330,782,c),
(267,782,o),
(215,766,o),
(172,735,c),
(129,704,o),
(97,659,o),
(76,601,c),
(55,544,o),
(45,480,o),
(45,408,c),
(45,202,o),
(97,83,o),
(201,50,c),
(180,13,o),
(169,-25,o),
(169,-64,c),
(169,-113,o),
(179,-152,o),
(199,-182,c)
);
}
);
width = 1167;
}
);
},
{
export = 0;
glyphname = _FI.fina;
layers = (
{
layerId = "E14AE757-7134-4DB9-897C-AD248BACE90D";
shapes = (
{
closed = 1;
nodes = (
(173,123,o),
(127,203,o),
(124,364,c),
(362,364,l),
(369,346,o),
(372,316,o),
(372,275,c),
(372,230,o),
(363,194,o),
(345,166,c),
(326,137,o),
(299,123,o),
(264,123,c)
);
},
{
closed = 1;
nodes = (
(289,-182,l),
(264,-147,o),
(251,-108,o),
(251,-63,c),
(251,-26,o),
(258,9,o),
(271,40,c),
(277,40,l),
(342,40,o),
(393,78,o),
(428,153,c),
(443,188,o),
(451,228,o),
(451,273,c),
(451,295,o),
(449,324,o),
(444,361,c),
(439,398,o),
(434,425,o),
(428,444,c),
(124,444,l),
(125,545,o),
(156,619,o),
(217,666,c),
(248,688,o),
(285,699,o),
(330,699,c),
(375,699,o),
(413,688,o),
(442,666,c),
(471,643,o),
(495,610,o),
(513,567,c),
(530,525,o),
(543,475,o),
(552,418,c),
(567,328,o),
(589,247,o),
(616,176,c),
(641,111,o),
(678,30,o),
(729,-67,c),
(802,-31,l),
(721,113,o),
(667,245,o),
(642,364,c),
(947,364,l),
(982,364,o),
(1007,357,o),
(1022,343,c),
(1037,328,o),
(1045,307,o),
(1045,279,c),
(1045,234,o),
(1038,195,o),
(1023,162,c),
(1097,162,l),
(1114,198,o),
(1122,237,o),
(1122,279,c),
(1123,389,o),
(1064,444,o),
(947,444,c),
(627,444,l),
(602,589,o),
(554,688,o),
(481,741,c),
(442,768,o),
(391,782,o),
(330,782,c),
(267,782,o),
(215,766,o),
(172,735,c),
(129,704,o),
(97,659,o),
(76,601,c),
(55,544,o),
(45,480,o),
(45,408,c),
(45,202,o),
(97,83,o),
(201,50,c),
(180,13,o),
(169,-25,o),
(169,-64,c),
(169,-113,o),
(179,-152,o),
(199,-182,c)
);
}
);
width = 1167;
}
);
},
{
export = 0;
glyphname = _FO.init;
layers = (
{
layerId = "E14AE757-7134-4DB9-897C-AD248BACE90D";
shapes = (
{
closed = 1;
nodes = (
(127,444,l),
(137,527,o),
(165,590,o),
(211,634,c),
(257,677,o),
(322,699,o),
(405,699,c),
(505,699,o),
(578,659,o),
(625,578,c),
(647,539,o),
(661,495,o),
(668,444,c)
);
},
{
closed = 1;
nodes = (
(216,123,o),
(190,133,o),
(171,153,c),
(152,172,o),
(140,201,o),
(134,239,c),
(127,276,o),
(124,317,o),
(124,364,c),
(359,364,l),
(359,285,l),
(359,237,o),
(350,198,o),
(331,168,c),
(312,138,o),
(285,123,o),
(249,123,c)
);
},
{
closed = 1;
nodes = (
(471,123,o),
(438,177,o),
(438,286,c),
(438,364,l),
(673,364,l),
(672,247,o),
(653,175,o),
(617,147,c),
(598,131,o),
(571,123,o),
(538,123,c)
);
},
{
closed = 1;
nodes = (
(288,-182,l),
(263,-147,o),
(250,-108,o),
(250,-63,c),
(250,-24,o),
(257,11,o),
(271,41,c),
(329,48,o),
(371,80,o),
(396,135,c),
(426,72,o),
(473,40,o),
(538,40,c),
(681,40,o),
(753,148,o),
(752,364,c),
(963,364,l),
(963,444,l),
(748,444,l),
(731,585,o),
(674,684,o),
(575,741,c),
(527,768,o),
(470,782,o),
(405,782,c),
(330,782,o),
(266,765,o),
(213,732,c),
(159,698,o),
(117,650,o),
(88,588,c),
(59,527,o),
(45,456,o),
(45,375,c),
(45,276,o),
(58,199,o),
(83,145,c),
(108,90,o),
(147,57,o),
(198,45,c),
(178,10,o),
(168,-26,o),
(168,-64,c),
(168,-113,o),
(178,-152,o),
(198,-182,c)
);
}
);
width = 933;
}
);
},
{
export = 0;
glyphname = _FO.medi;
layers = (
{
layerId = "E14AE757-7134-4DB9-897C-AD248BACE90D";
shapes = (
{
closed = 1;
nodes = (
(81,444,l),
(91,527,o),
(119,590,o),
(165,634,c),
(211,677,o),
(276,699,o),
(359,699,c),
(459,699,o),
(532,659,o),
(579,578,c),
(601,539,o),
(615,495,o),
(622,444,c)
);
},
{
closed = 1;
nodes = (
(170,123,o),
(144,133,o),
(125,153,c),
(106,172,o),
(94,201,o),
(88,239,c),
(81,276,o),
(78,317,o),
(78,364,c),
(313,364,l),
(313,285,l),
(313,237,o),
(304,198,o),
(285,168,c),
(266,138,o),
(239,123,o),
(203,123,c)
);
},
{
closed = 1;
nodes = (
(425,123,o),
(392,177,o),
(392,286,c),
(392,364,l),
(627,364,l),
(626,247,o),
(607,175,o),
(571,147,c),
(552,131,o),
(525,123,o),
(492,123,c)
);
},
{
closed = 1;
nodes = (
(242,-182,l),
(217,-147,o),
(204,-108,o),
(204,-63,c),
(204,-24,o),
(211,11,o),
(225,41,c),
(283,48,o),
(325,80,o),
(350,135,c),
(380,72,o),
(427,40,o),
(492,40,c),
(635,40,o),
(707,148,o),
(706,364,c),
(917,364,l),
(917,444,l),
(702,444,l),
(685,585,o),
(628,684,o),
(529,741,c),
(481,768,o),
(424,782,o),
(359,782,c),
(284,782,o),
(220,765,o),
(167,732,c),
(113,698,o),
(71,650,o),
(42,588,c),
(13,527,o),
(-1,456,o),
(-1,375,c),
(-1,276,o),
(12,199,o),
(37,145,c),
(62,90,o),
(101,57,o),
(152,45,c),
(132,10,o),
(122,-26,o),
(122,-64,c),
(122,-113,o),
(132,-152,o),
(152,-182,c)
);
}
);
width = 887;
}
);
},
{
export = 0;
glyphname = _FO.isol;
layers = (
{
layerId = "E14AE757-7134-4DB9-897C-AD248BACE90D";
shapes = (
{
closed = 1;
nodes = (
(127,444,l),
(136,527,o),
(164,590,o),
(211,634,c),
(257,677,o),
(322,699,o),
(405,699,c),
(505,699,o),
(578,659,o),
(625,578,c),
(647,539,o),
(661,495,o),
(668,444,c)
);
},
{
closed = 1;
nodes = (
(215,123,o),
(189,133,o),
(171,153,c),
(152,172,o),
(140,201,o),
(134,240,c),
(127,276,o),
(124,317,o),
(124,364,c),
(359,364,l),
(359,281,l),
(359,234,o),
(349,196,o),
(330,167,c),
(311,138,o),
(283,123,o),
(248,123,c)
);
},
{
closed = 1;
nodes = (
(471,123,o),
(438,177,o),
(438,286,c),
(438,364,l),
(673,364,l),
(672,247,o),
(653,175,o),
(617,147,c),
(598,131,o),
(571,123,o),
(538,123,c)
);
},
{
closed = 1;
nodes = (
(288,-182,l),
(263,-147,o),
(250,-108,o),
(250,-63,c),
(250,-24,o),
(257,11,o),
(271,41,c),
(329,48,o),
(371,80,o),
(396,135,c),
(426,72,o),
(473,40,o),
(538,40,c),
(611,40,o),
(665,67,o),
(700,122,c),
(735,176,o),
(752,260,o),
(752,375,c),
(752,453,o),
(739,523,o),
(712,584,c),
(685,645,o),
(647,694,o),
(596,729,c),
(545,764,o),
(481,782,o),
(405,782,c),
(330,782,o),
(266,765,o),
(213,732,c),
(159,698,o),
(117,650,o),
(88,588,c),
(59,527,o),
(45,456,o),
(45,375,c),
(45,276,o),
(58,199,o),
(83,145,c),
(108,90,o),
(147,57,o),
(198,45,c),
(178,10,o),
(168,-26,o),
(168,-64,c),
(168,-113,o),
(178,-152,o),
(198,-182,c)
);
}
);
width = 797;
}
);
},
{
export = 0;
glyphname = _FO.fina;
layers = (
{
layerId = "E14AE757-7134-4DB9-897C-AD248BACE90D";
shapes = (
{
closed = 1;
nodes = (
(81,444,l),
(90,527,o),
(118,590,o),
(165,634,c),
(211,677,o),
(276,699,o),
(359,699,c),
(459,699,o),
(532,659,o),
(579,578,c),
(601,539,o),
(615,495,o),
(622,444,c)
);
},
{
closed = 1;
nodes = (
(169,123,o),
(143,133,o),
(125,153,c),
(106,172,o),
(94,201,o),
(88,240,c),
(81,276,o),
(78,317,o),
(78,364,c),
(313,364,l),
(313,281,l),
(313,234,o),
(303,196,o),
(284,167,c),
(265,138,o),
(237,123,o),
(202,123,c)
);
},
{
closed = 1;
nodes = (
(425,123,o),
(392,177,o),
(392,286,c),
(392,364,l),
(627,364,l),
(626,247,o),
(607,175,o),
(571,147,c),
(552,131,o),
(525,123,o),
(492,123,c)
);
},
{
closed = 1;
nodes = (
(242,-182,l),
(217,-147,o),
(204,-108,o),
(204,-63,c),
(204,-24,o),
(211,11,o),
(225,41,c),
(283,48,o),
(325,80,o),
(350,135,c),
(380,72,o),
(427,40,o),
(492,40,c),
(565,40,o),
(619,67,o),
(654,122,c),
(689,176,o),
(706,260,o),
(706,375,c),
(706,453,o),
(693,523,o),
(666,584,c),
(639,645,o),
(601,694,o),
(550,729,c),
(499,764,o),
(435,782,o),
(359,782,c),
(284,782,o),
(220,765,o),
(167,732,c),
(113,698,o),
(71,650,o),
(42,588,c),
(13,527,o),
(-1,456,o),
(-1,375,c),
(-1,276,o),
(12,199,o),
(37,145,c),
(62,90,o),
(101,57,o),
(152,45,c),
(132,10,o),
(122,-26,o),
(122,-64,c),
(122,-113,o),
(132,-152,o),
(152,-182,c)
);
}
);
width = 751;
}
);
},
{
export = 0;
glyphname = _FOI.init;
layers = (
{
layerId = "E14AE757-7134-4DB9-897C-AD248BACE90D";
shapes = (
{
closed = 1;
nodes = (
(127,444,l),
(137,527,o),
(165,590,o),
(211,634,c),
(257,677,o),
(322,699,o),
(405,699,c),
(505,699,o),
(578,659,o),
(625,578,c),
(647,539,o),
(661,495,o),
(668,444,c)
);
},
{
closed = 1;
nodes = (
(216,123,o),
(190,133,o),
(171,153,c),
(152,172,o),
(140,201,o),
(134,239,c),
(127,276,o),
(124,317,o),
(124,364,c),
(359,364,l),
(359,286,l),
(359,238,o),
(350,199,o),
(331,169,c),
(312,138,o),
(285,123,o),
(249,123,c)
);
},
{
closed = 1;
nodes = (
(471,123,o),
(438,177,o),
(438,286,c),
(438,364,l),
(673,364,l),
(672,247,o),
(653,175,o),
(617,147,c),
(598,131,o),
(571,123,o),
(538,123,c)
);
},
{
closed = 1;
nodes = (
(288,-182,l),
(263,-147,o),
(250,-108,o),
(250,-63,c),
(250,-24,o),
(257,11,o),
(271,41,c),
(329,48,o),
(371,80,o),
(396,135,c),
(426,72,o),
(473,40,o),
(538,40,c),
(681,40,o),
(753,148,o),
(752,364,c),
(863,364,l),
(902,219,o),
(959,75,o),
(1036,-67,c),
(1109,-31,l),
(1036,98,o),
(981,229,o),
(942,364,c),
(1254,364,l),
(1254,444,l),
(748,444,l),
(731,585,o),
(674,684,o),
(575,741,c),
(526,768,o),
(470,782,o),
(406,782,c),
(332,782,o),
(268,765,o),
(214,732,c),
(160,698,o),
(118,650,o),
(88,588,c),
(59,527,o),
(45,456,o),
(45,375,c),
(45,276,o),
(58,199,o),
(83,145,c),
(108,90,o),
(147,57,o),
(198,45,c),
(178,10,o),
(168,-26,o),
(168,-64,c),
(168,-113,o),
(178,-152,o),
(198,-182,c)
);
}
);
width = 1224;
}
);
},
{
export = 0;
glyphname = _FOI.medi;
layers = (
{
layerId = "E14AE757-7134-4DB9-897C-AD248BACE90D";
shapes = (
{
closed = 1;
nodes = (
(81,444,l),
(91,527,o),
(119,590,o),
(165,634,c),
(211,677,o),
(276,699,o),
(359,699,c),
(459,699,o),
(532,659,o),
(579,578,c),
(601,539,o),
(615,495,o),
(622,444,c)
);
},
{
closed = 1;
nodes = (
(170,123,o),
(144,133,o),
(125,153,c),
(106,172,o),
(94,201,o),
(88,239,c),
(81,276,o),
(78,317,o),
(78,364,c),
(313,364,l),
(313,286,l),
(313,238,o),
(304,199,o),
(285,169,c),
(266,138,o),
(239,123,o),
(203,123,c)
);
},
{
closed = 1;
nodes = (
(425,123,o),
(392,177,o),
(392,286,c),
(392,364,l),
(627,364,l),
(626,247,o),
(607,175,o),
(571,147,c),
(552,131,o),
(525,123,o),
(492,123,c)
);
},
{
closed = 1;
nodes = (
(242,-182,l),
(217,-147,o),
(204,-108,o),
(204,-63,c),
(204,-24,o),
(211,11,o),
(225,41,c),
(283,48,o),
(325,80,o),
(350,135,c),
(380,72,o),
(427,40,o),
(492,40,c),
(635,40,o),
(707,148,o),
(706,364,c),
(817,364,l),
(856,219,o),
(913,75,o),
(990,-67,c),
(1063,-31,l),
(990,98,o),
(935,229,o),
(896,364,c),
(1208,364,l),
(1208,444,l),
(702,444,l),
(685,585,o),
(628,684,o),
(529,741,c),
(480,768,o),
(424,782,o),
(360,782,c),
(286,782,o),
(222,765,o),
(168,732,c),
(114,698,o),
(72,650,o),
(42,588,c),
(13,527,o),
(-1,456,o),
(-1,375,c),
(-1,276,o),
(12,199,o),
(37,145,c),
(62,90,o),
(101,57,o),
(152,45,c),
(132,10,o),
(122,-26,o),
(122,-64,c),
(122,-113,o),
(132,-152,o),
(152,-182,c)
);
}
);
width = 1178;
}
);
},
{
export = 0;
glyphname = _FUe.isol;
layers = (
{
layerId = "E14AE757-7134-4DB9-897C-AD248BACE90D";
shapes = (
{
closed = 1;
nodes = (
(127,444,l),
(136,527,o),
(164,590,o),
(211,634,c),
(257,677,o),
(322,699,o),
(405,699,c),
(505,699,o),
(578,659,o),
(625,578,c),
(647,539,o),
(661,495,o),
(668,444,c)
);
},
{
closed = 1;
nodes = (
(216,123,o),
(190,133,o),
(171,153,c),
(152,172,o),
(140,201,o),
(134,239,c),
(127,276,o),
(124,317,o),
(124,364,c),
(359,364,l),
(359,286,l),
(359,238,o),
(350,199,o),
(331,169,c),
(312,138,o),
(285,123,o),
(249,123,c)
);
},
{
closed = 1;
nodes = (
(471,123,o),
(438,177,o),
(438,286,c),
(438,364,l),
(673,364,l),
(672,247,o),
(653,175,o),
(617,147,c),
(598,131,o),
(571,123,o),
(538,123,c)
);
},
{
closed = 1;
nodes = (
(288,-182,l),
(263,-147,o),
(250,-108,o),
(250,-63,c),
(250,-24,o),
(257,11,o),
(271,41,c),
(329,48,o),
(371,80,o),
(396,135,c),
(426,72,o),
(473,40,o),
(538,40,c),
(681,40,o),
(753,148,o),
(752,364,c),
(963,364,l),
(998,364,o),
(1023,357,o),
(1038,343,c),
(1053,328,o),
(1061,307,o),
(1061,279,c),
(1061,235,o),
(1054,196,o),
(1039,162,c),
(1113,162,l),
(1130,197,o),
(1138,236,o),
(1138,279,c),
(1139,389,o),
(1080,444,o),
(963,444,c),
(748,444,l),
(731,585,o),
(673,684,o),
(574,741,c),
(525,768,o),
(469,782,o),
(405,782,c),
(330,782,o),
(266,765,o),
(213,732,c),
(159,698,o),
(117,650,o),
(88,588,c),
(59,527,o),
(45,456,o),
(45,375,c),
(45,276,o),
(58,199,o),
(83,145,c),
(108,90,o),
(147,57,o),
(198,45,c),
(178,10,o),
(168,-26,o),
(168,-64,c),
(168,-113,o),
(178,-152,o),
(198,-182,c)
);
}
);
width = 1183;
}
);
},
{
export = 0;
glyphname = _FUe.fina;
layers = (
{
layerId = "E14AE757-7134-4DB9-897C-AD248BACE90D";
shapes = (
{
closed = 1;
nodes = (
(81,444,l),
(90,527,o),
(118,590,o),
(165,634,c),
(211,677,o),
(276,699,o),
(359,699,c),
(459,699,o),
(532,659,o),
(579,578,c),
(601,539,o),
(615,495,o),
(622,444,c)
);
},
{
closed = 1;
nodes = (
(170,123,o),
(144,133,o),
(125,153,c),
(106,172,o),
(94,201,o),
(88,239,c),
(81,276,o),
(78,317,o),
(78,364,c),
(313,364,l),
(313,286,l),
(313,238,o),
(304,199,o),
(285,169,c),
(266,138,o),
(239,123,o),
(203,123,c)
);
},
{
closed = 1;
nodes = (
(425,123,o),
(392,177,o),
(392,286,c),
(392,364,l),
(627,364,l),
(626,247,o),
(607,175,o),
(571,147,c),
(552,131,o),
(525,123,o),
(492,123,c)
);
},
{
closed = 1;
nodes = (
(242,-182,l),
(217,-147,o),
(204,-108,o),
(204,-63,c),
(204,-24,o),
(211,11,o),
(225,41,c),
(283,48,o),
(325,80,o),
(350,135,c),
(380,72,o),
(427,40,o),
(492,40,c),
(635,40,o),
(707,148,o),
(706,364,c),
(917,364,l),
(952,364,o),
(977,357,o),
(992,343,c),
(1007,328,o),
(1015,307,o),
(1015,279,c),
(1015,235,o),
(1008,196,o),
(993,162,c),
(1067,162,l),
(1084,197,o),
(1092,236,o),
(1092,279,c),
(1093,389,o),
(1034,444,o),
(917,444,c),
(702,444,l),
(685,585,o),
(627,684,o),
(528,741,c),
(479,768,o),
(423,782,o),
(359,782,c),
(284,782,o),
(220,765,o),
(167,732,c),
(113,698,o),
(71,650,o),
(42,588,c),
(13,527,o),
(-1,456,o),
(-1,375,c),
(-1,276,o),
(12,199,o),
(37,145,c),
(62,90,o),
(101,57,o),
(152,45,c),
(132,10,o),
(122,-26,o),
(122,-64,c),
(122,-113,o),
(132,-152,o),
(152,-182,c)
);
}
);
width = 1137;
}
);
},
{
export = 0;
glyphname = _FW.init;
layers = (
{
layerId = "E14AE757-7134-4DB9-897C-AD248BACE90D";
shapes = (
{
closed = 1;
nodes = (
(173,123,o),
(127,203,o),
(124,364,c),
(362,364,l),
(369,346,o),
(372,316,o),
(372,275,c),
(372,230,o),
(363,194,o),
(345,166,c),
(326,137,o),
(299,123,o),
(264,123,c)
);
},
{
closed = 1;
nodes = (
(289,-182,l),
(264,-147,o),
(251,-108,o),
(251,-63,c),
(251,-26,o),
(258,9,o),
(271,40,c),
(277,40,l),
(341,40,o),
(391,78,o),
(428,153,c),
(443,188,o),
(451,228,o),
(451,273,c),
(451,295,o),
(449,324,o),
(444,361,c),
(439,398,o),
(434,425,o),
(428,444,c),
(124,444,l),
(125,545,o),
(156,619,o),
(217,666,c),
(248,688,o),
(285,699,o),
(330,699,c),
(375,699,o),
(413,688,o),
(442,666,c),
(471,643,o),
(495,610,o),
(512,567,c),
(529,525,o),
(542,475,o),
(552,418,c),
(577,276,o),
(615,150,o),
(667,41,c),
(692,-12,o),
(719,-52,o),
(748,-79,c),
(777,-106,o),
(814,-119,o),
(858,-119,c),
(897,-119,o),
(925,-108,o),
(940,-85,c),
(940,6,l),
(921,-22,o),
(894,-36,o),
(858,-36,c),
(834,-36,o),
(811,-24,o),
(790,-1,c),
(769,22,o),
(747,57,o),
(725,106,c),
(686,189,o),
(658,275,o),
(641,364,c),
(1036,364,l),
(1036,444,l),
(626,444,l),
(603,588,o),
(554,687,o),
(480,740,c),
(441,768,o),
(391,782,o),
(330,782,c),
(267,782,o),
(215,766,o),
(172,735,c),
(129,704,o),
(97,659,o),
(76,601,c),
(55,544,o),
(45,480,o),
(45,408,c),
(45,202,o),
(97,83,o),
(201,50,c),
(180,13,o),
(169,-25,o),
(169,-64,c),
(169,-113,o),
(179,-152,o),
(199,-182,c)
);
}
);
width = 1006;
}
);
},
